  0
SECTION
  2
HEADER
  9
$ACADVER
  1
AC1009
  9
$EXTMIN
 10
0.0
 20
0.0
 30
0.0
  9
$EXTMAX
 10
1000.0
 20
1000.0
 30
0.0
  9
$FILLMODE
 70
 0
  9
$SPLFRAME
 70
 1
  0
ENDSEC
  0
SECTION
  2
TABLES
  0
TABLE
  2
LAYER
 70
1
  0
LAYER
  2
0
 70
     0
 62
     7
  6
CONTINUOUS
  0
ENDTAB
  0
ENDSEC
  0
SECTION
  2
ENTITIES
  0
LINE
  8
0
 62
     250
 10
25.4675
 20
0
 30
0.0
 11
25.4675
 21
0
 31
0.0
  0
LINE
  8
0
 62
     250
 10
25.4675
 20
0
 30
0.0
 11
24.7537
 21
0
 31
0.0
  0
LINE
  8
0
 62
     250
 10
24.7537
 20
0
 30
0.0
 11
22.8713
 21
0
 31
0.0
  0
LINE
  8
0
 62
     250
 10
22.8713
 20
0
 30
0.0
 11
20.2103
 21
0
 31
0.0
  0
LINE
  8
0
 62
     250
 10
20.2103
 20
0
 30
0.0
 11
17.1607
 21
0
 31
0.0
  0
LINE
  8
0
 62
     250
 10
17.1607
 20
0
 30
0.0
 11
14.1111
 21
0
 31
0.0
  0
LINE
  8
0
 62
     250
 10
14.1111
 20
0
 30
0.0
 11
11.4501
 21
0
 31
0.0
  0
LINE
  8
0
 62
     250
 10
11.4501
 20
0
 30
0.0
 11
9.56772
 21
0
 31
0.0
  0
LINE
  8
0
 62
     250
 10
9.56772
 20
0
 30
0.0
 11
8.85529
 21
0
 31
0.0
  0
LINE
  8
0
 62
     250
 10
8.85529
 20
0
 30
0.0
 11
8.85529
 21
0
 31
0.0
  0
LINE
  8
0
 62
     250
 10
8.85529
 20
0
 30
0.0
 11
8.85529
 21
0
 31
0.0
  0
LINE
  8
0
 62
     250
 10
8.85529
 20
0
 30
0.0
 11
8.85529
 21
1.11621
 31
0.0
  0
LINE
  8
0
 62
     250
 10
8.85529
 20
1.11621
 30
0.0
 11
8.85529
 21
3.56912
 31
0.0
  0
LINE
  8
0
 62
     250
 10
8.85529
 20
3.56912
 30
0.0
 11
8.85529
 21
6.0234
 31
0.0
  0
LINE
  8
0
 62
     250
 10
8.85529
 20
6.0234
 30
0.0
 11
8.85529
 21
7.13825
 31
0.0
  0
LINE
  8
0
 62
     250
 10
8.85529
 20
7.13825
 30
0.0
 11
8.85529
 21
7.13825
 31
0.0
  0
LINE
  8
0
 62
     250
 10
8.85529
 20
7.13825
 30
0.0
 11
8.85529
 21
7.13825
 31
0.0
  0
LINE
  8
0
 62
     250
 10
8.85529
 20
7.13825
 30
0.0
 11
9.41888
 21
7.13825
 31
0.0
  0
LINE
  8
0
 62
     250
 10
9.41888
 20
7.13825
 30
0.0
 11
10.6619
 21
7.13825
 31
0.0
  0
LINE
  8
0
 62
     250
 10
10.6619
 20
7.13825
 30
0.0
 11
11.9049
 21
7.13825
 31
0.0
  0
LINE
  8
0
 62
     250
 10
11.9049
 20
7.13825
 30
0.0
 11
12.4699
 21
7.13825
 31
0.0
  0
LINE
  8
0
 62
     250
 10
12.4699
 20
7.13825
 30
0.0
 11
12.4699
 21
7.13825
 31
0.0
  0
LINE
  8
0
 62
     250
 10
12.4699
 20
7.13825
 30
0.0
 11
12.4699
 21
7.13825
 31
0.0
  0
LINE
  8
0
 62
     250
 10
12.4699
 20
7.13825
 30
0.0
 11
12.4699
 21
7.35323
 31
0.0
  0
LINE
  8
0
 62
     250
 10
12.4699
 20
7.35323
 30
0.0
 11
12.4699
 21
7.91683
 31
0.0
  0
LINE
  8
0
 62
     250
 10
12.4699
 20
7.91683
 30
0.0
 11
12.4699
 21
8.71608
 31
0.0
  0
LINE
  8
0
 62
     250
 10
12.4699
 20
8.71608
 30
0.0
 11
12.4699
 21
9.62974
 31
0.0
  0
LINE
  8
0
 62
     250
 10
12.4699
 20
9.62974
 30
0.0
 11
12.4699
 21
10.5447
 31
0.0
  0
LINE
  8
0
 62
     250
 10
12.4699
 20
10.5447
 30
0.0
 11
12.4699
 21
11.3426
 31
0.0
  0
LINE
  8
0
 62
     250
 10
12.4699
 20
11.3426
 30
0.0
 11
12.4699
 21
11.9076
 31
0.0
  0
LINE
  8
0
 62
     250
 10
12.4699
 20
11.9076
 30
0.0
 11
12.4699
 21
12.1212
 31
0.0
  0
LINE
  8
0
 62
     250
 10
12.4699
 20
12.1212
 30
0.0
 11
12.4699
 21
12.1212
 31
0.0
  0
LINE
  8
0
 62
     250
 10
12.4699
 20
12.1212
 30
0.0
 11
12.4699
 21
12.1212
 31
0.0
  0
LINE
  8
0
 62
     250
 10
12.4699
 20
12.1212
 30
0.0
 11
12.0702
 21
12.6711
 31
0.0
  0
LINE
  8
0
 62
     250
 10
12.0702
 20
12.6711
 30
0.0
 11
11.0174
 21
14.118
 31
0.0
  0
LINE
  8
0
 62
     250
 10
11.0174
 20
14.118
 30
0.0
 11
9.52913
 21
16.1644
 31
0.0
  0
LINE
  8
0
 62
     250
 10
9.52913
 20
16.1644
 30
0.0
 11
7.82313
 21
18.5084
 31
0.0
  0
LINE
  8
0
 62
     250
 10
7.82313
 20
18.5084
 30
0.0
 11
6.1171
 21
20.8539
 31
0.0
  0
LINE
  8
0
 62
     250
 10
6.1171
 20
20.8539
 30
0.0
 11
4.62883
 21
22.9003
 31
0.0
  0
LINE
  8
0
 62
     250
 10
4.62883
 20
22.9003
 30
0.0
 11
3.576
 21
24.3472
 31
0.0
  0
LINE
  8
0
 62
     250
 10
3.576
 20
24.3472
 30
0.0
 11
3.17776
 21
24.8956
 31
0.0
  0
LINE
  8
0
 62
     250
 10
3.17776
 20
24.8956
 30
0.0
 11
3.17776
 21
24.8956
 31
0.0
  0
LINE
  8
0
 62
     250
 10
3.17776
 20
24.8956
 30
0.0
 11
3.17776
 21
24.8956
 31
0.0
  0
LINE
  8
0
 62
     250
 10
3.17776
 20
24.8956
 30
0.0
 11
2.68166
 21
24.8956
 31
0.0
  0
LINE
  8
0
 62
     250
 10
2.68166
 20
24.8956
 30
0.0
 11
1.59026
 21
24.8956
 31
0.0
  0
LINE
  8
0
 62
     250
 10
1.59026
 20
24.8956
 30
0.0
 11
0.498849
 21
24.8956
 31
0.0
  0
LINE
  8
0
 62
     250
 10
0.498849
 20
24.8956
 30
0.0
 11
0.00275608
 21
24.8956
 31
0.0
  0
LINE
  8
0
 62
     250
 10
0.00275608
 20
24.8956
 30
0.0
 11
0.00275608
 21
24.8956
 31
0.0
  0
LINE
  8
0
 62
     250
 10
0.00275608
 20
24.8956
 30
0.0
 11
0.00275608
 21
24.8956
 31
0.0
  0
LINE
  8
0
 62
     250
 10
0.00275608
 20
24.8956
 30
0.0
 11
0.00275608
 21
26.0119
 31
0.0
  0
LINE
  8
0
 62
     250
 10
0.00275608
 20
26.0119
 30
0.0
 11
0.00275608
 21
28.4661
 31
0.0
  0
LINE
  8
0
 62
     250
 10
0.00275608
 20
28.4661
 30
0.0
 11
0.00275608
 21
30.9204
 31
0.0
  0
LINE
  8
0
 62
     250
 10
0.00275608
 20
30.9204
 30
0.0
 11
0.00275608
 21
32.0353
 31
0.0
  0
LINE
  8
0
 62
     250
 10
0.00275608
 20
32.0353
 30
0.0
 11
0.00275608
 21
32.0353
 31
0.0
  0
LINE
  8
0
 62
     250
 10
0.00275608
 20
32.0353
 30
0.0
 11
0.00275608
 21
32.0353
 31
0.0
  0
LINE
  8
0
 62
     250
 10
0.00275608
 20
32.0353
 30
0.0
 11
0.71658
 21
32.0353
 31
0.0
  0
LINE
  8
0
 62
     250
 10
0.71658
 20
32.0353
 30
0.0
 11
2.60036
 21
32.0353
 31
0.0
  0
LINE
  8
0
 62
     250
 10
2.60036
 20
32.0353
 30
0.0
 11
5.26411
 21
32.0353
 31
0.0
  0
LINE
  8
0
 62
     250
 10
5.26411
 20
32.0353
 30
0.0
 11
8.31645
 21
32.0353
 31
0.0
  0
LINE
  8
0
 62
     250
 10
8.31645
 20
32.0353
 30
0.0
 11
11.3688
 21
32.0353
 31
0.0
  0
LINE
  8
0
 62
     250
 10
11.3688
 20
32.0353
 30
0.0
 11
14.0325
 21
32.0353
 31
0.0
  0
LINE
  8
0
 62
     250
 10
14.0325
 20
32.0353
 30
0.0
 11
15.9163
 21
32.0353
 31
0.0
  0
LINE
  8
0
 62
     250
 10
15.9163
 20
32.0353
 30
0.0
 11
16.6315
 21
32.0353
 31
0.0
  0
LINE
  8
0
 62
     250
 10
16.6315
 20
32.0353
 30
0.0
 11
16.6315
 21
32.0353
 31
0.0
  0
LINE
  8
0
 62
     250
 10
16.6315
 20
32.0353
 30
0.0
 11
16.6315
 21
32.0353
 31
0.0
  0
LINE
  8
0
 62
     250
 10
16.6315
 20
32.0353
 30
0.0
 11
16.6315
 21
30.9342
 31
0.0
  0
LINE
  8
0
 62
     250
 10
16.6315
 20
30.9342
 30
0.0
 11
16.6315
 21
28.5116
 31
0.0
  0
LINE
  8
0
 62
     250
 10
16.6315
 20
28.5116
 30
0.0
 11
16.6315
 21
26.0904
 31
0.0
  0
LINE
  8
0
 62
     250
 10
16.6315
 20
26.0904
 30
0.0
 11
16.6315
 21
24.988
 31
0.0
  0
LINE
  8
0
 62
     250
 10
16.6315
 20
24.988
 30
0.0
 11
16.6315
 21
24.988
 31
0.0
  0
LINE
  8
0
 62
     250
 10
16.6315
 20
24.988
 30
0.0
 11
16.6315
 21
24.988
 31
0.0
  0
LINE
  8
0
 62
     250
 10
16.6315
 20
24.988
 30
0.0
 11
16.1947
 21
24.988
 31
0.0
  0
LINE
  8
0
 62
     250
 10
16.1947
 20
24.988
 30
0.0
 11
15.237
 21
24.988
 31
0.0
  0
LINE
  8
0
 62
     250
 10
15.237
 20
24.988
 30
0.0
 11
14.2792
 21
24.988
 31
0.0
  0
LINE
  8
0
 62
     250
 10
14.2792
 20
24.988
 30
0.0
 11
13.8438
 21
24.988
 31
0.0
  0
LINE
  8
0
 62
     250
 10
13.8438
 20
24.988
 30
0.0
 11
13.8438
 21
24.988
 31
0.0
  0
LINE
  8
0
 62
     250
 10
13.8438
 20
24.988
 30
0.0
 11
13.8438
 21
24.988
 31
0.0
  0
LINE
  8
0
 62
     250
 10
13.8438
 20
24.988
 30
0.0
 11
13.994
 21
24.7523
 31
0.0
  0
LINE
  8
0
 62
     250
 10
13.994
 20
24.7523
 30
0.0
 11
14.3936
 21
24.1294
 31
0.0
  0
LINE
  8
0
 62
     250
 10
14.3936
 20
24.1294
 30
0.0
 11
14.9572
 21
23.2489
 31
0.0
  0
LINE
  8
0
 62
     250
 10
14.9572
 20
23.2489
 30
0.0
 11
15.6035
 21
22.2402
 31
0.0
  0
LINE
  8
0
 62
     250
 10
15.6035
 20
22.2402
 30
0.0
 11
16.2485
 21
21.2314
 31
0.0
  0
LINE
  8
0
 62
     250
 10
16.2485
 20
21.2314
 30
0.0
 11
16.8121
 21
20.3509
 31
0.0
  0
LINE
  8
0
 62
     250
 10
16.8121
 20
20.3509
 30
0.0
 11
17.2117
 21
19.728
 31
0.0
  0
LINE
  8
0
 62
     250
 10
17.2117
 20
19.728
 30
0.0
 11
17.3633
 21
19.491
 31
0.0
  0
LINE
  8
0
 62
     250
 10
17.3633
 20
19.491
 30
0.0
 11
17.3633
 21
19.491
 31
0.0
  0
LINE
  8
0
 62
     250
 10
17.3633
 20
19.491
 30
0.0
 11
17.3633
 21
19.491
 31
0.0
  0
LINE
  8
0
 62
     250
 10
17.3633
 20
19.491
 30
0.0
 11
17.5466
 21
19.491
 31
0.0
  0
LINE
  8
0
 62
     250
 10
17.5466
 20
19.491
 30
0.0
 11
17.5466
 21
19.491
 31
0.0
  0
LINE
  8
0
 62
     250
 10
17.5466
 20
19.491
 30
0.0
 11
17.5466
 21
19.491
 31
0.0
  0
LINE
  8
0
 62
     250
 10
17.5466
 20
19.491
 30
0.0
 11
17.7092
 21
19.728
 31
0.0
  0
LINE
  8
0
 62
     250
 10
17.7092
 20
19.728
 30
0.0
 11
18.1405
 21
20.3509
 31
0.0
  0
LINE
  8
0
 62
     250
 10
18.1405
 20
20.3509
 30
0.0
 11
18.7482
 21
21.2314
 31
0.0
  0
LINE
  8
0
 62
     250
 10
18.7482
 20
21.2314
 30
0.0
 11
19.4469
 21
22.2402
 31
0.0
  0
LINE
  8
0
 62
     250
 10
19.4469
 20
22.2402
 30
0.0
 11
20.1456
 21
23.2489
 31
0.0
  0
LINE
  8
0
 62
     250
 10
20.1456
 20
23.2489
 30
0.0
 11
20.7532
 21
24.1294
 31
0.0
  0
LINE
  8
0
 62
     250
 10
20.7532
 20
24.1294
 30
0.0
 11
21.1846
 21
24.7523
 31
0.0
  0
LINE
  8
0
 62
     250
 10
21.1846
 20
24.7523
 30
0.0
 11
21.3486
 21
24.988
 31
0.0
  0
LINE
  8
0
 62
     250
 10
21.3486
 20
24.988
 30
0.0
 11
21.3486
 21
24.988
 31
0.0
  0
LINE
  8
0
 62
     250
 10
21.3486
 20
24.988
 30
0.0
 11
21.3486
 21
24.988
 31
0.0
  0
LINE
  8
0
 62
     250
 10
21.3486
 20
24.988
 30
0.0
 11
20.9117
 21
24.988
 31
0.0
  0
LINE
  8
0
 62
     250
 10
20.9117
 20
24.988
 30
0.0
 11
19.9512
 21
24.988
 31
0.0
  0
LINE
  8
0
 62
     250
 10
19.9512
 20
24.988
 30
0.0
 11
18.9907
 21
24.988
 31
0.0
  0
LINE
  8
0
 62
     250
 10
18.9907
 20
24.988
 30
0.0
 11
18.5553
 21
24.988
 31
0.0
  0
LINE
  8
0
 62
     250
 10
18.5553
 20
24.988
 30
0.0
 11
18.5553
 21
24.988
 31
0.0
  0
LINE
  8
0
 62
     250
 10
18.5553
 20
24.988
 30
0.0
 11
18.5553
 21
24.988
 31
0.0
  0
LINE
  8
0
 62
     250
 10
18.5553
 20
24.988
 30
0.0
 11
18.5553
 21
26.0904
 31
0.0
  0
LINE
  8
0
 62
     250
 10
18.5553
 20
26.0904
 30
0.0
 11
18.5553
 21
28.5116
 31
0.0
  0
LINE
  8
0
 62
     250
 10
18.5553
 20
28.5116
 30
0.0
 11
18.5553
 21
30.9342
 31
0.0
  0
LINE
  8
0
 62
     250
 10
18.5553
 20
30.9342
 30
0.0
 11
18.5553
 21
32.0353
 31
0.0
  0
LINE
  8
0
 62
     250
 10
18.5553
 20
32.0353
 30
0.0
 11
18.5553
 21
32.0353
 31
0.0
  0
LINE
  8
0
 62
     250
 10
18.5553
 20
32.0353
 30
0.0
 11
18.5553
 21
32.0353
 31
0.0
  0
LINE
  8
0
 62
     250
 10
18.5553
 20
32.0353
 30
0.0
 11
19.2429
 21
32.0353
 31
0.0
  0
LINE
  8
0
 62
     250
 10
19.2429
 20
32.0353
 30
0.0
 11
21.0578
 21
32.0353
 31
0.0
  0
LINE
  8
0
 62
     250
 10
21.0578
 20
32.0353
 30
0.0
 11
23.6237
 21
32.0353
 31
0.0
  0
LINE
  8
0
 62
     250
 10
23.6237
 20
32.0353
 30
0.0
 11
26.5658
 21
32.0353
 31
0.0
  0
LINE
  8
0
 62
     250
 10
26.5658
 20
32.0353
 30
0.0
 11
29.5065
 21
32.0353
 31
0.0
  0
LINE
  8
0
 62
     250
 10
29.5065
 20
32.0353
 30
0.0
 11
32.0725
 21
32.0353
 31
0.0
  0
LINE
  8
0
 62
     250
 10
32.0725
 20
32.0353
 30
0.0
 11
33.8873
 21
32.0353
 31
0.0
  0
LINE
  8
0
 62
     250
 10
33.8873
 20
32.0353
 30
0.0
 11
34.5764
 21
32.0353
 31
0.0
  0
LINE
  8
0
 62
     250
 10
34.5764
 20
32.0353
 30
0.0
 11
34.5764
 21
32.0353
 31
0.0
  0
LINE
  8
0
 62
     250
 10
34.5764
 20
32.0353
 30
0.0
 11
34.5764
 21
32.0353
 31
0.0
  0
LINE
  8
0
 62
     250
 10
34.5764
 20
32.0353
 30
0.0
 11
34.5764
 21
30.9204
 31
0.0
  0
LINE
  8
0
 62
     250
 10
34.5764
 20
30.9204
 30
0.0
 11
34.5764
 21
28.4661
 31
0.0
  0
LINE
  8
0
 62
     250
 10
34.5764
 20
28.4661
 30
0.0
 11
34.5764
 21
26.0119
 31
0.0
  0
LINE
  8
0
 62
     250
 10
34.5764
 20
26.0119
 30
0.0
 11
34.5764
 21
24.8956
 31
0.0
  0
LINE
  8
0
 62
     250
 10
34.5764
 20
24.8956
 30
0.0
 11
34.5764
 21
24.8956
 31
0.0
  0
LINE
  8
0
 62
     250
 10
34.5764
 20
24.8956
 30
0.0
 11
34.5764
 21
24.8956
 31
0.0
  0
LINE
  8
0
 62
     250
 10
34.5764
 20
24.8956
 30
0.0
 11
34.0679
 21
24.8956
 31
0.0
  0
LINE
  8
0
 62
     250
 10
34.0679
 20
24.8956
 30
0.0
 11
32.9503
 21
24.8956
 31
0.0
  0
LINE
  8
0
 62
     250
 10
32.9503
 20
24.8956
 30
0.0
 11
31.8327
 21
24.8956
 31
0.0
  0
LINE
  8
0
 62
     250
 10
31.8327
 20
24.8956
 30
0.0
 11
31.3256
 21
24.8956
 31
0.0
  0
LINE
  8
0
 62
     250
 10
31.3256
 20
24.8956
 30
0.0
 11
31.3256
 21
24.8956
 31
0.0
  0
LINE
  8
0
 62
     250
 10
31.3256
 20
24.8956
 30
0.0
 11
31.3256
 21
24.8956
 31
0.0
  0
LINE
  8
0
 62
     250
 10
31.3256
 20
24.8956
 30
0.0
 11
30.9177
 21
24.3541
 31
0.0
  0
LINE
  8
0
 62
     250
 10
30.9177
 20
24.3541
 30
0.0
 11
29.8442
 21
22.9223
 31
0.0
  0
LINE
  8
0
 62
     250
 10
29.8442
 20
22.9223
 30
0.0
 11
28.327
 21
20.8993
 31
0.0
  0
LINE
  8
0
 62
     250
 10
28.327
 20
20.8993
 30
0.0
 11
26.5879
 21
18.5787
 31
0.0
  0
LINE
  8
0
 62
     250
 10
26.5879
 20
18.5787
 30
0.0
 11
24.8474
 21
16.2595
 31
0.0
  0
LINE
  8
0
 62
     250
 10
24.8474
 20
16.2595
 30
0.0
 11
23.3302
 21
14.2365
 31
0.0
  0
LINE
  8
0
 62
     250
 10
23.3302
 20
14.2365
 30
0.0
 11
22.2567
 21
12.8047
 31
0.0
  0
LINE
  8
0
 62
     250
 10
22.2567
 20
12.8047
 30
0.0
 11
21.8502
 21
12.2618
 31
0.0
  0
LINE
  8
0
 62
     250
 10
21.8502
 20
12.2618
 30
0.0
 11
21.8502
 21
12.2618
 31
0.0
  0
LINE
  8
0
 62
     250
 10
21.8502
 20
12.2618
 30
0.0
 11
21.8502
 21
12.2618
 31
0.0
  0
LINE
  8
0
 62
     250
 10
21.8502
 20
12.2618
 30
0.0
 11
21.8502
 21
12.0427
 31
0.0
  0
LINE
  8
0
 62
     250
 10
21.8502
 20
12.0427
 30
0.0
 11
21.8502
 21
11.4625
 31
0.0
  0
LINE
  8
0
 62
     250
 10
21.8502
 20
11.4625
 30
0.0
 11
21.8502
 21
10.6412
 31
0.0
  0
LINE
  8
0
 62
     250
 10
21.8502
 20
10.6412
 30
0.0
 11
21.8502
 21
9.70139
 31
0.0
  0
LINE
  8
0
 62
     250
 10
21.8502
 20
9.70139
 30
0.0
 11
21.8502
 21
8.76155
 31
0.0
  0
LINE
  8
0
 62
     250
 10
21.8502
 20
8.76155
 30
0.0
 11
21.8502
 21
7.94025
 31
0.0
  0
LINE
  8
0
 62
     250
 10
21.8502
 20
7.94025
 30
0.0
 11
21.8502
 21
7.36011
 31
0.0
  0
LINE
  8
0
 62
     250
 10
21.8502
 20
7.36011
 30
0.0
 11
21.8502
 21
7.13962
 31
0.0
  0
LINE
  8
0
 62
     250
 10
21.8502
 20
7.13962
 30
0.0
 11
21.8502
 21
7.13962
 31
0.0
  0
LINE
  8
0
 62
     250
 10
21.8502
 20
7.13962
 30
0.0
 11
21.8502
 21
7.13962
 31
0.0
  0
LINE
  8
0
 62
     250
 10
21.8502
 20
7.13962
 30
0.0
 11
22.4152
 21
7.13962
 31
0.0
  0
LINE
  8
0
 62
     250
 10
22.4152
 20
7.13962
 30
0.0
 11
23.6582
 21
7.13962
 31
0.0
  0
LINE
  8
0
 62
     250
 10
23.6582
 20
7.13962
 30
0.0
 11
24.9011
 21
7.13962
 31
0.0
  0
LINE
  8
0
 62
     250
 10
24.9011
 20
7.13962
 30
0.0
 11
25.4675
 21
7.13962
 31
0.0
  0
LINE
  8
0
 62
     250
 10
25.4675
 20
7.13962
 30
0.0
 11
25.4675
 21
7.13962
 31
0.0
  0
LINE
  8
0
 62
     250
 10
25.4675
 20
7.13962
 30
0.0
 11
25.4675
 21
7.13962
 31
0.0
  0
LINE
  8
0
 62
     250
 10
25.4675
 20
7.13962
 30
0.0
 11
25.4675
 21
6.02477
 31
0.0
  0
LINE
  8
0
 62
     250
 10
25.4675
 20
6.02477
 30
0.0
 11
25.4675
 21
3.5705
 31
0.0
  0
LINE
  8
0
 62
     250
 10
25.4675
 20
3.5705
 30
0.0
 11
25.4675
 21
1.11621
 31
0.0
  0
LINE
  8
0
 62
     250
 10
25.4675
 20
1.11621
 30
0.0
 11
25.4675
 21
0
 31
0.0
  0
LINE
  8
0
 62
     250
 10
25.4675
 20
0
 30
0.0
 11
25.4675
 21
0
 31
0.0
  0
LINE
  8
0
 62
     250
 10
43.7459
 20
0.00275608
 30
0.0
 11
43.7459
 21
0.00275608
 31
0.0
  0
LINE
  8
0
 62
     250
 10
43.7459
 20
0.00275608
 30
0.0
 11
43.0597
 21
0.00275608
 31
0.0
  0
LINE
  8
0
 62
     250
 10
43.0597
 20
0.00275608
 30
0.0
 11
41.2503
 21
0.00275608
 31
0.0
  0
LINE
  8
0
 62
     250
 10
41.2503
 20
0.00275608
 30
0.0
 11
38.6941
 21
0.00275608
 31
0.0
  0
LINE
  8
0
 62
     250
 10
38.6941
 20
0.00275608
 30
0.0
 11
35.7628
 21
0.00275608
 31
0.0
  0
LINE
  8
0
 62
     250
 10
35.7628
 20
0.00275608
 30
0.0
 11
32.8304
 21
0.00275608
 31
0.0
  0
LINE
  8
0
 62
     250
 10
32.8304
 20
0.00275608
 30
0.0
 11
30.2741
 21
0.00275608
 31
0.0
  0
LINE
  8
0
 62
     250
 10
30.2741
 20
0.00275608
 30
0.0
 11
28.4648
 21
0.00275608
 31
0.0
  0
LINE
  8
0
 62
     250
 10
28.4648
 20
0.00275608
 30
0.0
 11
27.7799
 21
0.00275608
 31
0.0
  0
LINE
  8
0
 62
     250
 10
27.7799
 20
0.00275608
 30
0.0
 11
27.7799
 21
0.00275608
 31
0.0
  0
LINE
  8
0
 62
     250
 10
27.7799
 20
0.00275608
 30
0.0
 11
27.7799
 21
0.00275608
 31
0.0
  0
LINE
  8
0
 62
     250
 10
27.7799
 20
0.00275608
 30
0.0
 11
27.7799
 21
1.11897
 31
0.0
  0
LINE
  8
0
 62
     250
 10
27.7799
 20
1.11897
 30
0.0
 11
27.7799
 21
3.57188
 31
0.0
  0
LINE
  8
0
 62
     250
 10
27.7799
 20
3.57188
 30
0.0
 11
27.7799
 21
6.02477
 31
0.0
  0
LINE
  8
0
 62
     250
 10
27.7799
 20
6.02477
 30
0.0
 11
27.7799
 21
7.13962
 31
0.0
  0
LINE
  8
0
 62
     250
 10
27.7799
 20
7.13962
 30
0.0
 11
27.7799
 21
7.13962
 31
0.0
  0
LINE
  8
0
 62
     250
 10
27.7799
 20
7.13962
 30
0.0
 11
27.7799
 21
7.13962
 31
0.0
  0
LINE
  8
0
 62
     250
 10
27.7799
 20
7.13962
 30
0.0
 11
28.3504
 21
7.13962
 31
0.0
  0
LINE
  8
0
 62
     250
 10
28.3504
 20
7.13962
 30
0.0
 11
29.6085
 21
7.13962
 31
0.0
  0
LINE
  8
0
 62
     250
 10
29.6085
 20
7.13962
 30
0.0
 11
30.8667
 21
7.13962
 31
0.0
  0
LINE
  8
0
 62
     250
 10
30.8667
 20
7.13962
 30
0.0
 11
31.4386
 21
7.13962
 31
0.0
  0
LINE
  8
0
 62
     250
 10
31.4386
 20
7.13962
 30
0.0
 11
31.4386
 21
7.13962
 31
0.0
  0
LINE
  8
0
 62
     250
 10
31.4386
 20
7.13962
 30
0.0
 11
31.4386
 21
7.13962
 31
0.0
  0
LINE
  8
0
 62
     250
 10
31.4386
 20
7.13962
 30
0.0
 11
31.5336
 21
7.42213
 31
0.0
  0
LINE
  8
0
 62
     250
 10
31.5336
 20
7.42213
 30
0.0
 11
31.8024
 21
8.21588
 31
0.0
  0
LINE
  8
0
 62
     250
 10
31.8024
 20
8.21588
 30
0.0
 11
32.2213
 21
9.4506
 31
0.0
  0
LINE
  8
0
 62
     250
 10
32.2213
 20
9.4506
 30
0.0
 11
32.7642
 21
11.0519
 31
0.0
  0
LINE
  8
0
 62
     250
 10
32.7642
 20
11.0519
 30
0.0
 11
33.4064
 21
12.9467
 31
0.0
  0
LINE
  8
0
 62
     250
 10
33.4064
 20
12.9467
 30
0.0
 11
34.123
 21
15.062
 31
0.0
  0
LINE
  8
0
 62
     250
 10
34.123
 20
15.062
 30
0.0
 11
34.8905
 21
17.3233
 31
0.0
  0
LINE
  8
0
 62
     250
 10
34.8905
 20
17.3233
 30
0.0
 11
35.6817
 21
19.6577
 31
0.0
  0
LINE
  8
0
 62
     250
 10
35.6817
 20
19.6577
 30
0.0
 11
36.4726
 21
21.9921
 31
0.0
  0
LINE
  8
0
 62
     250
 10
36.4726
 20
21.9921
 30
0.0
 11
37.2403
 21
24.2535
 31
0.0
  0
LINE
  8
0
 62
     250
 10
37.2403
 20
24.2535
 30
0.0
 11
37.9568
 21
26.3688
 31
0.0
  0
LINE
  8
0
 62
     250
 10
37.9568
 20
26.3688
 30
0.0
 11
38.5988
 21
28.2636
 31
0.0
  0
LINE
  8
0
 62
     250
 10
38.5988
 20
28.2636
 30
0.0
 11
39.1418
 21
29.8649
 31
0.0
  0
LINE
  8
0
 62
     250
 10
39.1418
 20
29.8649
 30
0.0
 11
39.5609
 21
31.0996
 31
0.0
  0
LINE
  8
0
 62
     250
 10
39.5609
 20
31.0996
 30
0.0
 11
39.8293
 21
31.8933
 31
0.0
  0
LINE
  8
0
 62
     250
 10
39.8293
 20
31.8933
 30
0.0
 11
39.926
 21
32.1744
 31
0.0
  0
LINE
  8
0
 62
     250
 10
39.926
 20
32.1744
 30
0.0
 11
39.926
 21
32.1744
 31
0.0
  0
LINE
  8
0
 62
     250
 10
39.926
 20
32.1744
 30
0.0
 11
39.926
 21
32.1744
 31
0.0
  0
LINE
  8
0
 62
     250
 10
39.926
 20
32.1744
 30
0.0
 11
40.5448
 21
32.1744
 31
0.0
  0
LINE
  8
0
 62
     250
 10
40.5448
 20
32.1744
 30
0.0
 11
42.1763
 21
32.1744
 31
0.0
  0
LINE
  8
0
 62
     250
 10
42.1763
 20
32.1744
 30
0.0
 11
44.4846
 21
32.1744
 31
0.0
  0
LINE
  8
0
 62
     250
 10
44.4846
 20
32.1744
 30
0.0
 11
47.1304
 21
32.1744
 31
0.0
  0
LINE
  8
0
 62
     250
 10
47.1304
 20
32.1744
 30
0.0
 11
49.7748
 21
32.1744
 31
0.0
  0
LINE
  8
0
 62
     250
 10
49.7748
 20
32.1744
 30
0.0
 11
52.0831
 21
32.1744
 31
0.0
  0
LINE
  8
0
 62
     250
 10
52.0831
 20
32.1744
 30
0.0
 11
53.7146
 21
32.1744
 31
0.0
  0
LINE
  8
0
 62
     250
 10
53.7146
 20
32.1744
 30
0.0
 11
54.3348
 21
32.1744
 31
0.0
  0
LINE
  8
0
 62
     250
 10
54.3348
 20
32.1744
 30
0.0
 11
54.3348
 21
32.1744
 31
0.0
  0
LINE
  8
0
 62
     250
 10
54.3348
 20
32.1744
 30
0.0
 11
54.3348
 21
32.1744
 31
0.0
  0
LINE
  8
0
 62
     250
 10
54.3348
 20
32.1744
 30
0.0
 11
54.4283
 21
31.8933
 31
0.0
  0
LINE
  8
0
 62
     250
 10
54.4283
 20
31.8933
 30
0.0
 11
54.6971
 21
31.0996
 31
0.0
  0
LINE
  8
0
 62
     250
 10
54.6971
 20
31.0996
 30
0.0
 11
55.1145
 21
29.8649
 31
0.0
  0
LINE
  8
0
 62
     250
 10
55.1145
 20
29.8649
 30
0.0
 11
55.6549
 21
28.2636
 31
0.0
  0
LINE
  8
0
 62
     250
 10
55.6549
 20
28.2636
 30
0.0
 11
56.2942
 21
26.3688
 31
0.0
  0
LINE
  8
0
 62
     250
 10
56.2942
 20
26.3688
 30
0.0
 11
57.0082
 21
24.2535
 31
0.0
  0
LINE
  8
0
 62
     250
 10
57.0082
 20
24.2535
 30
0.0
 11
57.7716
 21
21.9921
 31
0.0
  0
LINE
  8
0
 62
     250
 10
57.7716
 20
21.9921
 30
0.0
 11
58.5611
 21
19.6577
 31
0.0
  0
LINE
  8
0
 62
     250
 10
58.5611
 20
19.6577
 30
0.0
 11
59.3492
 21
17.3233
 31
0.0
  0
LINE
  8
0
 62
     250
 10
59.3492
 20
17.3233
 30
0.0
 11
60.1126
 21
15.062
 31
0.0
  0
LINE
  8
0
 62
     250
 10
60.1126
 20
15.062
 30
0.0
 11
60.8266
 21
12.9467
 31
0.0
  0
LINE
  8
0
 62
     250
 10
60.8266
 20
12.9467
 30
0.0
 11
61.4659
 21
11.0519
 31
0.0
  0
LINE
  8
0
 62
     250
 10
61.4659
 20
11.0519
 30
0.0
 11
62.0063
 21
9.4506
 31
0.0
  0
LINE
  8
0
 62
     250
 10
62.0063
 20
9.4506
 30
0.0
 11
62.4237
 21
8.21588
 31
0.0
  0
LINE
  8
0
 62
     250
 10
62.4237
 20
8.21588
 30
0.0
 11
62.6925
 21
7.42213
 31
0.0
  0
LINE
  8
0
 62
     250
 10
62.6925
 20
7.42213
 30
0.0
 11
62.7874
 21
7.13962
 31
0.0
  0
LINE
  8
0
 62
     250
 10
62.7874
 20
7.13962
 30
0.0
 11
62.7874
 21
7.13962
 31
0.0
  0
LINE
  8
0
 62
     250
 10
62.7874
 20
7.13962
 30
0.0
 11
62.7874
 21
7.13962
 31
0.0
  0
LINE
  8
0
 62
     250
 10
62.7874
 20
7.13962
 30
0.0
 11
62.9916
 21
7.13962
 31
0.0
  0
LINE
  8
0
 62
     250
 10
62.9916
 20
7.13962
 30
0.0
 11
63.5317
 21
7.13962
 31
0.0
  0
LINE
  8
0
 62
     250
 10
63.5317
 20
7.13962
 30
0.0
 11
64.2952
 21
7.13962
 31
0.0
  0
LINE
  8
0
 62
     250
 10
64.2952
 20
7.13962
 30
0.0
 11
65.17
 21
7.13962
 31
0.0
  0
LINE
  8
0
 62
     250
 10
65.17
 20
7.13962
 30
0.0
 11
66.0439
 21
7.13962
 31
0.0
  0
LINE
  8
0
 62
     250
 10
66.0439
 20
7.13962
 30
0.0
 11
66.8073
 21
7.13962
 31
0.0
  0
LINE
  8
0
 62
     250
 10
66.8073
 20
7.13962
 30
0.0
 11
67.3474
 21
7.13962
 31
0.0
  0
LINE
  8
0
 62
     250
 10
67.3474
 20
7.13962
 30
0.0
 11
67.5527
 21
7.13962
 31
0.0
  0
LINE
  8
0
 62
     250
 10
67.5527
 20
7.13962
 30
0.0
 11
67.5527
 21
7.13962
 31
0.0
  0
LINE
  8
0
 62
     250
 10
67.5527
 20
7.13962
 30
0.0
 11
67.5527
 21
7.13962
 31
0.0
  0
LINE
  8
0
 62
     250
 10
67.5527
 20
7.13962
 30
0.0
 11
67.5527
 21
7.90303
 31
0.0
  0
LINE
  8
0
 62
     250
 10
67.5527
 20
7.90303
 30
0.0
 11
67.5527
 21
9.915
 31
0.0
  0
LINE
  8
0
 62
     250
 10
67.5527
 20
9.915
 30
0.0
 11
67.5527
 21
12.7579
 31
0.0
  0
LINE
  8
0
 62
     250
 10
67.5527
 20
12.7579
 30
0.0
 11
67.5527
 21
16.0183
 31
0.0
  0
LINE
  8
0
 62
     250
 10
67.5527
 20
16.0183
 30
0.0
 11
67.5527
 21
19.2787
 31
0.0
  0
LINE
  8
0
 62
     250
 10
67.5527
 20
19.2787
 30
0.0
 11
67.5527
 21
22.1216
 31
0.0
  0
LINE
  8
0
 62
     250
 10
67.5527
 20
22.1216
 30
0.0
 11
67.5527
 21
24.1336
 31
0.0
  0
LINE
  8
0
 62
     250
 10
67.5527
 20
24.1336
 30
0.0
 11
67.5527
 21
24.8956
 31
0.0
  0
LINE
  8
0
 62
     250
 10
67.5527
 20
24.8956
 30
0.0
 11
67.5527
 21
24.8956
 31
0.0
  0
LINE
  8
0
 62
     250
 10
67.5527
 20
24.8956
 30
0.0
 11
67.5527
 21
24.8956
 31
0.0
  0
LINE
  8
0
 62
     250
 10
67.5527
 20
24.8956
 30
0.0
 11
67.0235
 21
24.8956
 31
0.0
  0
LINE
  8
0
 62
     250
 10
67.0235
 20
24.8956
 30
0.0
 11
65.8604
 21
24.8956
 31
0.0
  0
LINE
  8
0
 62
     250
 10
65.8604
 20
24.8956
 30
0.0
 11
64.6977
 21
24.8956
 31
0.0
  0
LINE
  8
0
 62
     250
 10
64.6977
 20
24.8956
 30
0.0
 11
64.1696
 21
24.8956
 31
0.0
  0
LINE
  8
0
 62
     250
 10
64.1696
 20
24.8956
 30
0.0
 11
64.1696
 21
24.8956
 31
0.0
  0
LINE
  8
0
 62
     250
 10
64.1696
 20
24.8956
 30
0.0
 11
64.1696
 21
24.8956
 31
0.0
  0
LINE
  8
0
 62
     250
 10
64.1696
 20
24.8956
 30
0.0
 11
64.1696
 21
26.0119
 31
0.0
  0
LINE
  8
0
 62
     250
 10
64.1696
 20
26.0119
 30
0.0
 11
64.1696
 21
28.4661
 31
0.0
  0
LINE
  8
0
 62
     250
 10
64.1696
 20
28.4661
 30
0.0
 11
64.1696
 21
30.9204
 31
0.0
  0
LINE
  8
0
 62
     250
 10
64.1696
 20
30.9204
 30
0.0
 11
64.1696
 21
32.0353
 31
0.0
  0
LINE
  8
0
 62
     250
 10
64.1696
 20
32.0353
 30
0.0
 11
64.1696
 21
32.0353
 31
0.0
  0
LINE
  8
0
 62
     250
 10
64.1696
 20
32.0353
 30
0.0
 11
64.1696
 21
32.0353
 31
0.0
  0
LINE
  8
0
 62
     250
 10
64.1696
 20
32.0353
 30
0.0
 11
65.235
 21
32.0353
 31
0.0
  0
LINE
  8
0
 62
     250
 10
65.235
 20
32.0353
 30
0.0
 11
68.0434
 21
32.0353
 31
0.0
  0
LINE
  8
0
 62
     250
 10
68.0434
 20
32.0353
 30
0.0
 11
72.0136
 21
32.0353
 31
0.0
  0
LINE
  8
0
 62
     250
 10
72.0136
 20
32.0353
 30
0.0
 11
76.5665
 21
32.0353
 31
0.0
  0
LINE
  8
0
 62
     250
 10
76.5665
 20
32.0353
 30
0.0
 11
81.1181
 21
32.0353
 31
0.0
  0
LINE
  8
0
 62
     250
 10
81.1181
 20
32.0353
 30
0.0
 11
85.0882
 21
32.0353
 31
0.0
  0
LINE
  8
0
 62
     250
 10
85.0882
 20
32.0353
 30
0.0
 11
87.8967
 21
32.0353
 31
0.0
  0
LINE
  8
0
 62
     250
 10
87.8967
 20
32.0353
 30
0.0
 11
88.9635
 21
32.0353
 31
0.0
  0
LINE
  8
0
 62
     250
 10
88.9635
 20
32.0353
 30
0.0
 11
88.9635
 21
32.0353
 31
0.0
  0
LINE
  8
0
 62
     250
 10
88.9635
 20
32.0353
 30
0.0
 11
89.8246
 21
32.0353
 31
0.0
  0
LINE
  8
0
 62
     250
 10
89.8246
 20
32.0353
 30
0.0
 11
92.4084
 21
31.6522
 31
0.0
  0
LINE
  8
0
 62
     250
 10
92.4084
 20
31.6522
 30
0.0
 11
94.4178
 21
30.6503
 31
0.0
  0
LINE
  8
0
 62
     250
 10
94.4178
 20
30.6503
 30
0.0
 11
94.7279
 21
30.3416
 31
0.0
  0
LINE
  8
0
 62
     250
 10
94.7279
 20
30.3416
 30
0.0
 11
94.9826
 21
30.0853
 31
0.0
  0
LINE
  8
0
 62
     250
 10
94.9826
 20
30.0853
 30
0.0
 11
95.6179
 21
29.1799
 31
0.0
  0
LINE
  8
0
 62
     250
 10
95.6179
 20
29.1799
 30
0.0
 11
96.1954
 21
27.7096
 31
0.0
  0
LINE
  8
0
 62
     250
 10
96.1954
 20
27.7096
 30
0.0
 11
96.5069
 21
25.7583
 31
0.0
  0
LINE
  8
0
 62
     250
 10
96.5069
 20
25.7583
 30
0.0
 11
96.6004
 21
23.8029
 31
0.0
  0
LINE
  8
0
 62
     250
 10
96.6004
 20
23.8029
 30
0.0
 11
96.6004
 21
23.151
 31
0.0
  0
LINE
  8
0
 62
     250
 10
96.6004
 20
23.151
 30
0.0
 11
96.6004
 21
22.276
 31
0.0
  0
LINE
  8
0
 62
     250
 10
96.6004
 20
22.276
 30
0.0
 11
96.3055
 21
19.6481
 31
0.0
  0
LINE
  8
0
 62
     250
 10
96.3055
 20
19.6481
 30
0.0
 11
95.3823
 21
17.4115
 31
0.0
  0
LINE
  8
0
 62
     250
 10
95.3823
 20
17.4115
 30
0.0
 11
93.763
 21
16.0996
 31
0.0
  0
LINE
  8
0
 62
     250
 10
93.763
 20
16.0996
 30
0.0
 11
91.991
 21
15.4919
 31
0.0
  0
LINE
  8
0
 62
     250
 10
91.991
 20
15.4919
 30
0.0
 11
91.3846
 21
15.372
 31
0.0
  0
LINE
  8
0
 62
     250
 10
91.3846
 20
15.372
 30
0.0
 11
91.3846
 21
15.372
 31
0.0
  0
LINE
  8
0
 62
     250
 10
91.3846
 20
15.372
 30
0.0
 11
91.5928
 21
15.0192
 31
0.0
  0
LINE
  8
0
 62
     250
 10
91.5928
 20
15.0192
 30
0.0
 11
92.1424
 21
14.0863
 31
0.0
  0
LINE
  8
0
 62
     250
 10
92.1424
 20
14.0863
 30
0.0
 11
92.9199
 21
12.7675
 31
0.0
  0
LINE
  8
0
 62
     250
 10
92.9199
 20
12.7675
 30
0.0
 11
93.81
 21
11.2558
 31
0.0
  0
LINE
  8
0
 62
     250
 10
93.81
 20
11.2558
 30
0.0
 11
94.7
 21
9.74411
 31
0.0
  0
LINE
  8
0
 62
     250
 10
94.7
 20
9.74411
 30
0.0
 11
95.4775
 21
8.42532
 31
0.0
  0
LINE
  8
0
 62
     250
 10
95.4775
 20
8.42532
 30
0.0
 11
96.0272
 21
7.4924
 31
0.0
  0
LINE
  8
0
 62
     250
 10
96.0272
 20
7.4924
 30
0.0
 11
96.2367
 21
7.13825
 31
0.0
  0
LINE
  8
0
 62
     250
 10
96.2367
 20
7.13825
 30
0.0
 11
96.2367
 21
7.13825
 31
0.0
  0
LINE
  8
0
 62
     250
 10
96.2367
 20
7.13825
 30
0.0
 11
96.2367
 21
7.13825
 31
0.0
  0
LINE
  8
0
 62
     250
 10
96.2367
 20
7.13825
 30
0.0
 11
97.2439
 21
7.13825
 31
0.0
  0
LINE
  8
0
 62
     250
 10
97.2439
 20
7.13825
 30
0.0
 11
99.4625
 21
7.13825
 31
0.0
  0
LINE
  8
0
 62
     250
 10
99.4625
 20
7.13825
 30
0.0
 11
101.68
 21
7.13825
 31
0.0
  0
LINE
  8
0
 62
     250
 10
101.68
 20
7.13825
 30
0.0
 11
102.689
 21
7.13825
 31
0.0
  0
LINE
  8
0
 62
     250
 10
102.689
 20
7.13825
 30
0.0
 11
102.689
 21
7.13825
 31
0.0
  0
LINE
  8
0
 62
     250
 10
102.689
 20
7.13825
 30
0.0
 11
102.689
 21
7.13825
 31
0.0
  0
LINE
  8
0
 62
     250
 10
102.689
 20
7.13825
 30
0.0
 11
102.689
 21
7.90166
 31
0.0
  0
LINE
  8
0
 62
     250
 10
102.689
 20
7.90166
 30
0.0
 11
102.689
 21
9.91362
 31
0.0
  0
LINE
  8
0
 62
     250
 10
102.689
 20
9.91362
 30
0.0
 11
102.689
 21
12.7565
 31
0.0
  0
LINE
  8
0
 62
     250
 10
102.689
 20
12.7565
 30
0.0
 11
102.689
 21
16.0169
 31
0.0
  0
LINE
  8
0
 62
     250
 10
102.689
 20
16.0169
 30
0.0
 11
102.689
 21
19.2774
 31
0.0
  0
LINE
  8
0
 62
     250
 10
102.689
 20
19.2774
 30
0.0
 11
102.689
 21
22.1203
 31
0.0
  0
LINE
  8
0
 62
     250
 10
102.689
 20
22.1203
 30
0.0
 11
102.689
 21
24.1322
 31
0.0
  0
LINE
  8
0
 62
     250
 10
102.689
 20
24.1322
 30
0.0
 11
102.689
 21
24.8943
 31
0.0
  0
LINE
  8
0
 62
     250
 10
102.689
 20
24.8943
 30
0.0
 11
102.689
 21
24.8943
 31
0.0
  0
LINE
  8
0
 62
     250
 10
102.689
 20
24.8943
 30
0.0
 11
102.689
 21
24.8943
 31
0.0
  0
LINE
  8
0
 62
     250
 10
102.689
 20
24.8943
 30
0.0
 11
102.16
 21
24.8943
 31
0.0
  0
LINE
  8
0
 62
     250
 10
102.16
 20
24.8943
 30
0.0
 11
100.996
 21
24.8943
 31
0.0
  0
LINE
  8
0
 62
     250
 10
100.996
 20
24.8943
 30
0.0
 11
99.8319
 21
24.8943
 31
0.0
  0
LINE
  8
0
 62
     250
 10
99.8319
 20
24.8943
 30
0.0
 11
99.3041
 21
24.8943
 31
0.0
  0
LINE
  8
0
 62
     250
 10
99.3041
 20
24.8943
 30
0.0
 11
99.3041
 21
24.8943
 31
0.0
  0
LINE
  8
0
 62
     250
 10
99.3041
 20
24.8943
 30
0.0
 11
99.3041
 21
24.8943
 31
0.0
  0
LINE
  8
0
 62
     250
 10
99.3041
 20
24.8943
 30
0.0
 11
99.3041
 21
26.0105
 31
0.0
  0
LINE
  8
0
 62
     250
 10
99.3041
 20
26.0105
 30
0.0
 11
99.3041
 21
28.4648
 31
0.0
  0
LINE
  8
0
 62
     250
 10
99.3041
 20
28.4648
 30
0.0
 11
99.3041
 21
30.919
 31
0.0
  0
LINE
  8
0
 62
     250
 10
99.3041
 20
30.919
 30
0.0
 11
99.3041
 21
32.0339
 31
0.0
  0
LINE
  8
0
 62
     250
 10
99.3041
 20
32.0339
 30
0.0
 11
99.3041
 21
32.0339
 31
0.0
  0
LINE
  8
0
 62
     250
 10
99.3041
 20
32.0339
 30
0.0
 11
99.3041
 21
32.0339
 31
0.0
  0
LINE
  8
0
 62
     250
 10
99.3041
 20
32.0339
 30
0.0
 11
100.241
 21
32.0339
 31
0.0
  0
LINE
  8
0
 62
     250
 10
100.241
 20
32.0339
 30
0.0
 11
102.715
 21
32.0339
 31
0.0
  0
LINE
  8
0
 62
     250
 10
102.715
 20
32.0339
 30
0.0
 11
106.212
 21
32.0339
 31
0.0
  0
LINE
  8
0
 62
     250
 10
106.212
 20
32.0339
 30
0.0
 11
110.221
 21
32.0339
 31
0.0
  0
LINE
  8
0
 62
     250
 10
110.221
 20
32.0339
 30
0.0
 11
114.228
 21
32.0339
 31
0.0
  0
LINE
  8
0
 62
     250
 10
114.228
 20
32.0339
 30
0.0
 11
117.726
 21
32.0339
 31
0.0
  0
LINE
  8
0
 62
     250
 10
117.726
 20
32.0339
 30
0.0
 11
120.2
 21
32.0339
 31
0.0
  0
LINE
  8
0
 62
     250
 10
120.2
 20
32.0339
 30
0.0
 11
121.138
 21
32.0339
 31
0.0
  0
LINE
  8
0
 62
     250
 10
121.138
 20
32.0339
 30
0.0
 11
121.138
 21
32.0339
 31
0.0
  0
LINE
  8
0
 62
     250
 10
121.138
 20
32.0339
 30
0.0
 11
121.908
 21
32.0339
 31
0.0
  0
LINE
  8
0
 62
     250
 10
121.908
 20
32.0339
 30
0.0
 11
124.223
 21
31.9112
 31
0.0
  0
LINE
  8
0
 62
     250
 10
124.223
 20
31.9112
 30
0.0
 11
126.657
 21
31.4965
 31
0.0
  0
LINE
  8
0
 62
     250
 10
126.657
 20
31.4965
 30
0.0
 11
128.583
 21
30.7206
 31
0.0
  0
LINE
  8
0
 62
     250
 10
128.583
 20
30.7206
 30
0.0
 11
129.807
 21
29.8621
 31
0.0
  0
LINE
  8
0
 62
     250
 10
129.807
 20
29.8621
 30
0.0
 11
130.154
 21
29.5148
 31
0.0
  0
LINE
  8
0
 62
     250
 10
130.154
 20
29.5148
 30
0.0
 11
130.572
 21
29.0945
 31
0.0
  0
LINE
  8
0
 62
     250
 10
130.572
 20
29.0945
 30
0.0
 11
131.598
 21
27.6049
 31
0.0
  0
LINE
  8
0
 62
     250
 10
131.598
 20
27.6049
 30
0.0
 11
132.644
 21
24.9425
 31
0.0
  0
LINE
  8
0
 62
     250
 10
132.644
 20
24.9425
 30
0.0
 11
133.278
 21
21.1915
 31
0.0
  0
LINE
  8
0
 62
     250
 10
133.278
 20
21.1915
 30
0.0
 11
133.493
 21
17.3054
 31
0.0
  0
LINE
  8
0
 62
     250
 10
133.493
 20
17.3054
 30
0.0
 11
133.493
 21
16.01
 31
0.0
  0
LINE
  8
0
 62
     250
 10
133.493
 20
16.01
 30
0.0
 11
133.493
 21
14.7175
 31
0.0
  0
LINE
  8
0
 62
     250
 10
133.493
 20
14.7175
 30
0.0
 11
133.278
 21
10.8369
 31
0.0
  0
LINE
  8
0
 62
     250
 10
133.278
 20
10.8369
 30
0.0
 11
132.644
 21
7.08865
 31
0.0
  0
LINE
  8
0
 62
     250
 10
132.644
 20
7.08865
 30
0.0
 11
131.598
 21
4.4304
 31
0.0
  0
LINE
  8
0
 62
     250
 10
131.598
 20
4.4304
 30
0.0
 11
130.572
 21
2.94211
 31
0.0
  0
LINE
  8
0
 62
     250
 10
130.572
 20
2.94211
 30
0.0
 11
130.154
 21
2.52319
 31
0.0
  0
LINE
  8
0
 62
     250
 10
130.154
 20
2.52319
 30
0.0
 11
129.807
 21
2.17592
 31
0.0
  0
LINE
  8
0
 62
     250
 10
129.807
 20
2.17592
 30
0.0
 11
128.583
 21
1.31741
 31
0.0
  0
LINE
  8
0
 62
     250
 10
128.583
 20
1.31741
 30
0.0
 11
126.657
 21
0.540191
 31
0.0
  0
LINE
  8
0
 62
     250
 10
126.657
 20
0.540191
 30
0.0
 11
124.223
 21
0.124024
 31
0.0
  0
LINE
  8
0
 62
     250
 10
124.223
 20
0.124024
 30
0.0
 11
121.908
 21
0
 31
0.0
  0
LINE
  8
0
 62
     250
 10
121.908
 20
0
 30
0.0
 11
121.138
 21
0
 31
0.0
  0
LINE
  8
0
 62
     250
 10
121.138
 20
0
 30
0.0
 11
121.138
 21
0
 31
0.0
  0
LINE
  8
0
 62
     250
 10
121.138
 20
0
 30
0.0
 11
120.781
 21
0
 31
0.0
  0
LINE
  8
0
 62
     250
 10
120.781
 20
0
 30
0.0
 11
119.774
 21
0
 31
0.0
  0
LINE
  8
0
 62
     250
 10
119.774
 20
0
 30
0.0
 11
118.209
 21
0
 31
0.0
  0
LINE
  8
0
 62
     250
 10
118.209
 20
0
 30
0.0
 11
116.18
 21
0
 31
0.0
  0
LINE
  8
0
 62
     250
 10
116.18
 20
0
 30
0.0
 11
113.778
 21
0
 31
0.0
  0
LINE
  8
0
 62
     250
 10
113.778
 20
0
 30
0.0
 11
111.099
 21
0
 31
0.0
  0
LINE
  8
0
 62
     250
 10
111.099
 20
0
 30
0.0
 11
108.233
 21
0
 31
0.0
  0
LINE
  8
0
 62
     250
 10
108.233
 20
0
 30
0.0
 11
105.274
 21
0
 31
0.0
  0
LINE
  8
0
 62
     250
 10
105.274
 20
0
 30
0.0
 11
102.314
 21
0
 31
0.0
  0
LINE
  8
0
 62
     250
 10
102.314
 20
0
 30
0.0
 11
99.4474
 21
0
 31
0.0
  0
LINE
  8
0
 62
     250
 10
99.4474
 20
0
 30
0.0
 11
96.7687
 21
0
 31
0.0
  0
LINE
  8
0
 62
     250
 10
96.7687
 20
0
 30
0.0
 11
94.3666
 21
0
 31
0.0
  0
LINE
  8
0
 62
     250
 10
94.3666
 20
0
 30
0.0
 11
92.3368
 21
0
 31
0.0
  0
LINE
  8
0
 62
     250
 10
92.3368
 20
0
 30
0.0
 11
90.7729
 21
0
 31
0.0
  0
LINE
  8
0
 62
     250
 10
90.7729
 20
0
 30
0.0
 11
89.7654
 21
0
 31
0.0
  0
LINE
  8
0
 62
     250
 10
89.7654
 20
0
 30
0.0
 11
89.4098
 21
0
 31
0.0
  0
LINE
  8
0
 62
     250
 10
89.4098
 20
0
 30
0.0
 11
89.4098
 21
0
 31
0.0
  0
LINE
  8
0
 62
     250
 10
89.4098
 20
0
 30
0.0
 11
89.4098
 21
0
 31
0.0
  0
LINE
  8
0
 62
     250
 10
89.4098
 20
0
 30
0.0
 11
89.1039
 21
0.519522
 31
0.0
  0
LINE
  8
0
 62
     250
 10
89.1039
 20
0.519522
 30
0.0
 11
88.3006
 21
1.88929
 31
0.0
  0
LINE
  8
0
 62
     250
 10
88.3006
 20
1.88929
 30
0.0
 11
87.1636
 21
3.82404
 31
0.0
  0
LINE
  8
0
 62
     250
 10
87.1636
 20
3.82404
 30
0.0
 11
85.8615
 21
6.0427
 31
0.0
  0
LINE
  8
0
 62
     250
 10
85.8615
 20
6.0427
 30
0.0
 11
84.5577
 21
8.26135
 31
0.0
  0
LINE
  8
0
 62
     250
 10
84.5577
 20
8.26135
 30
0.0
 11
83.421
 21
10.1961
 31
0.0
  0
LINE
  8
0
 62
     250
 10
83.421
 20
10.1961
 30
0.0
 11
82.6174
 21
11.5659
 31
0.0
  0
LINE
  8
0
 62
     250
 10
82.6174
 20
11.5659
 30
0.0
 11
82.3129
 21
12.084
 31
0.0
  0
LINE
  8
0
 62
     250
 10
82.3129
 20
12.084
 30
0.0
 11
82.3129
 21
12.084
 31
0.0
  0
LINE
  8
0
 62
     250
 10
82.3129
 20
12.084
 30
0.0
 11
82.3129
 21
12.084
 31
0.0
  0
LINE
  8
0
 62
     250
 10
82.3129
 20
12.084
 30
0.0
 11
82.0815
 21
12.084
 31
0.0
  0
LINE
  8
0
 62
     250
 10
82.0815
 20
12.084
 30
0.0
 11
81.4723
 21
12.084
 31
0.0
  0
LINE
  8
0
 62
     250
 10
81.4723
 20
12.084
 30
0.0
 11
80.6111
 21
12.084
 31
0.0
  0
LINE
  8
0
 62
     250
 10
80.6111
 20
12.084
 30
0.0
 11
79.6244
 21
12.084
 31
0.0
  0
LINE
  8
0
 62
     250
 10
79.6244
 20
12.084
 30
0.0
 11
78.6363
 21
12.084
 31
0.0
  0
LINE
  8
0
 62
     250
 10
78.6363
 20
12.084
 30
0.0
 11
77.7752
 21
12.084
 31
0.0
  0
LINE
  8
0
 62
     250
 10
77.7752
 20
12.084
 30
0.0
 11
77.1659
 21
12.084
 31
0.0
  0
LINE
  8
0
 62
     250
 10
77.1659
 20
12.084
 30
0.0
 11
76.9359
 21
12.084
 31
0.0
  0
LINE
  8
0
 62
     250
 10
76.9359
 20
12.084
 30
0.0
 11
76.9359
 21
12.084
 31
0.0
  0
LINE
  8
0
 62
     250
 10
76.9359
 20
12.084
 30
0.0
 11
76.9359
 21
12.084
 31
0.0
  0
LINE
  8
0
 62
     250
 10
76.9359
 20
12.084
 30
0.0
 11
76.9359
 21
11.8718
 31
0.0
  0
LINE
  8
0
 62
     250
 10
76.9359
 20
11.8718
 30
0.0
 11
76.9359
 21
11.3123
 31
0.0
  0
LINE
  8
0
 62
     250
 10
76.9359
 20
11.3123
 30
0.0
 11
76.9359
 21
10.5199
 31
0.0
  0
LINE
  8
0
 62
     250
 10
76.9359
 20
10.5199
 30
0.0
 11
76.9359
 21
9.61182
 31
0.0
  0
LINE
  8
0
 62
     250
 10
76.9359
 20
9.61182
 30
0.0
 11
76.9359
 21
8.70507
 31
0.0
  0
LINE
  8
0
 62
     250
 10
76.9359
 20
8.70507
 30
0.0
 11
76.9359
 21
7.9127
 31
0.0
  0
LINE
  8
0
 62
     250
 10
76.9359
 20
7.9127
 30
0.0
 11
76.9359
 21
7.35323
 31
0.0
  0
LINE
  8
0
 62
     250
 10
76.9359
 20
7.35323
 30
0.0
 11
76.9359
 21
7.13962
 31
0.0
  0
LINE
  8
0
 62
     250
 10
76.9359
 20
7.13962
 30
0.0
 11
76.9359
 21
7.13962
 31
0.0
  0
LINE
  8
0
 62
     250
 10
76.9359
 20
7.13962
 30
0.0
 11
76.9359
 21
7.13962
 31
0.0
  0
LINE
  8
0
 62
     250
 10
76.9359
 20
7.13962
 30
0.0
 11
77.4788
 21
7.13962
 31
0.0
  0
LINE
  8
0
 62
     250
 10
77.4788
 20
7.13962
 30
0.0
 11
78.6751
 21
7.13962
 31
0.0
  0
LINE
  8
0
 62
     250
 10
78.6751
 20
7.13962
 30
0.0
 11
79.8696
 21
7.13962
 31
0.0
  0
LINE
  8
0
 62
     250
 10
79.8696
 20
7.13962
 30
0.0
 11
80.4139
 21
7.13962
 31
0.0
  0
LINE
  8
0
 62
     250
 10
80.4139
 20
7.13962
 30
0.0
 11
80.4139
 21
7.13962
 31
0.0
  0
LINE
  8
0
 62
     250
 10
80.4139
 20
7.13962
 30
0.0
 11
80.4139
 21
7.13962
 31
0.0
  0
LINE
  8
0
 62
     250
 10
80.4139
 20
7.13962
 30
0.0
 11
80.4139
 21
6.02477
 31
0.0
  0
LINE
  8
0
 62
     250
 10
80.4139
 20
6.02477
 30
0.0
 11
80.4139
 21
3.57188
 31
0.0
  0
LINE
  8
0
 62
     250
 10
80.4139
 20
3.57188
 30
0.0
 11
80.4139
 21
1.11897
 31
0.0
  0
LINE
  8
0
 62
     250
 10
80.4139
 20
1.11897
 30
0.0
 11
80.4139
 21
0.00275608
 31
0.0
  0
LINE
  8
0
 62
     250
 10
80.4139
 20
0.00275608
 30
0.0
 11
80.4139
 21
0.00275608
 31
0.0
  0
LINE
  8
0
 62
     250
 10
80.4139
 20
0.00275608
 30
0.0
 11
80.4139
 21
0.00275608
 31
0.0
  0
LINE
  8
0
 62
     250
 10
80.4139
 20
0.00275608
 30
0.0
 11
80.0696
 21
0.00275608
 31
0.0
  0
LINE
  8
0
 62
     250
 10
80.0696
 20
0.00275608
 30
0.0
 11
79.0981
 21
0.00275608
 31
0.0
  0
LINE
  8
0
 62
     250
 10
79.0981
 20
0.00275608
 30
0.0
 11
77.5878
 21
0.00275608
 31
0.0
  0
LINE
  8
0
 62
     250
 10
77.5878
 20
0.00275608
 30
0.0
 11
75.6281
 21
0.00275608
 31
0.0
  0
LINE
  8
0
 62
     250
 10
75.6281
 20
0.00275608
 30
0.0
 11
73.3104
 21
0.00275608
 31
0.0
  0
LINE
  8
0
 62
     250
 10
73.3104
 20
0.00275608
 30
0.0
 11
70.7238
 21
0.00275608
 31
0.0
  0
LINE
  8
0
 62
     250
 10
70.7238
 20
0.00275608
 30
0.0
 11
67.9581
 21
0.00275608
 31
0.0
  0
LINE
  8
0
 62
     250
 10
67.9581
 20
0.00275608
 30
0.0
 11
65.1013
 21
0.00275608
 31
0.0
  0
LINE
  8
0
 62
     250
 10
65.1013
 20
0.00275608
 30
0.0
 11
62.2445
 21
0.00275608
 31
0.0
  0
LINE
  8
0
 62
     250
 10
62.2445
 20
0.00275608
 30
0.0
 11
59.479
 21
0.00275608
 31
0.0
  0
LINE
  8
0
 62
     250
 10
59.479
 20
0.00275608
 30
0.0
 11
56.8925
 21
0.00275608
 31
0.0
  0
LINE
  8
0
 62
     250
 10
56.8925
 20
0.00275608
 30
0.0
 11
54.5744
 21
0.00275608
 31
0.0
  0
LINE
  8
0
 62
     250
 10
54.5744
 20
0.00275608
 30
0.0
 11
52.615
 21
0.00275608
 31
0.0
  0
LINE
  8
0
 62
     250
 10
52.615
 20
0.00275608
 30
0.0
 11
51.1044
 21
0.00275608
 31
0.0
  0
LINE
  8
0
 62
     250
 10
51.1044
 20
0.00275608
 30
0.0
 11
50.1329
 21
0.00275608
 31
0.0
  0
LINE
  8
0
 62
     250
 10
50.1329
 20
0.00275608
 30
0.0
 11
49.79
 21
0.00275608
 31
0.0
  0
LINE
  8
0
 62
     250
 10
49.79
 20
0.00275608
 30
0.0
 11
49.79
 21
0.00275608
 31
0.0
  0
LINE
  8
0
 62
     250
 10
49.79
 20
0.00275608
 30
0.0
 11
49.79
 21
0.00275608
 31
0.0
  0
LINE
  8
0
 62
     250
 10
49.79
 20
0.00275608
 30
0.0
 11
49.79
 21
1.09692
 31
0.0
  0
LINE
  8
0
 62
     250
 10
49.79
 20
1.09692
 30
0.0
 11
49.79
 21
3.50297
 31
0.0
  0
LINE
  8
0
 62
     250
 10
49.79
 20
3.50297
 30
0.0
 11
49.79
 21
5.90903
 31
0.0
  0
LINE
  8
0
 62
     250
 10
49.79
 20
5.90903
 30
0.0
 11
49.79
 21
7.00183
 31
0.0
  0
LINE
  8
0
 62
     250
 10
49.79
 20
7.00183
 30
0.0
 11
49.79
 21
7.00183
 31
0.0
  0
LINE
  8
0
 62
     250
 10
49.79
 20
7.00183
 30
0.0
 11
49.79
 21
7.00183
 31
0.0
  0
LINE
  8
0
 62
     250
 10
49.79
 20
7.00183
 30
0.0
 11
50.2476
 21
7.00183
 31
0.0
  0
LINE
  8
0
 62
     250
 10
50.2476
 20
7.00183
 30
0.0
 11
51.2547
 21
7.00183
 31
0.0
  0
LINE
  8
0
 62
     250
 10
51.2547
 20
7.00183
 30
0.0
 11
52.2609
 21
7.00183
 31
0.0
  0
LINE
  8
0
 62
     250
 10
52.2609
 20
7.00183
 30
0.0
 11
52.7195
 21
7.00183
 31
0.0
  0
LINE
  8
0
 62
     250
 10
52.7195
 20
7.00183
 30
0.0
 11
52.7195
 21
7.00183
 31
0.0
  0
LINE
  8
0
 62
     250
 10
52.7195
 20
7.00183
 30
0.0
 11
52.7195
 21
7.00183
 31
0.0
  0
LINE
  8
0
 62
     250
 10
52.7195
 20
7.00183
 30
0.0
 11
52.597
 21
7.43176
 31
0.0
  0
LINE
  8
0
 62
     250
 10
52.597
 20
7.43176
 30
0.0
 11
52.3296
 21
8.37572
 31
0.0
  0
LINE
  8
0
 62
     250
 10
52.3296
 20
8.37572
 30
0.0
 11
52.0622
 21
9.31968
 31
0.0
  0
LINE
  8
0
 62
     250
 10
52.0622
 20
9.31968
 30
0.0
 11
51.9409
 21
9.74824
 31
0.0
  0
LINE
  8
0
 62
     250
 10
51.9409
 20
9.74824
 30
0.0
 11
51.9409
 21
9.74824
 31
0.0
  0
LINE
  8
0
 62
     250
 10
51.9409
 20
9.74824
 30
0.0
 11
51.9409
 21
9.74824
 31
0.0
  0
LINE
  8
0
 62
     250
 10
51.9409
 20
9.74824
 30
0.0
 11
51.4932
 21
9.74824
 31
0.0
  0
LINE
  8
0
 62
     250
 10
51.4932
 20
9.74824
 30
0.0
 11
50.3163
 21
9.74824
 31
0.0
  0
LINE
  8
0
 62
     250
 10
50.3163
 20
9.74824
 30
0.0
 11
48.6516
 21
9.74824
 31
0.0
  0
LINE
  8
0
 62
     250
 10
48.6516
 20
9.74824
 30
0.0
 11
46.7445
 21
9.74824
 31
0.0
  0
LINE
  8
0
 62
     250
 10
46.7445
 20
9.74824
 30
0.0
 11
44.8374
 21
9.74824
 31
0.0
  0
LINE
  8
0
 62
     250
 10
44.8374
 20
9.74824
 30
0.0
 11
43.1726
 21
9.74824
 31
0.0
  0
LINE
  8
0
 62
     250
 10
43.1726
 20
9.74824
 30
0.0
 11
41.9957
 21
9.74824
 31
0.0
  0
LINE
  8
0
 62
     250
 10
41.9957
 20
9.74824
 30
0.0
 11
41.5491
 21
9.74824
 31
0.0
  0
LINE
  8
0
 62
     250
 10
41.5491
 20
9.74824
 30
0.0
 11
41.5491
 21
9.74824
 31
0.0
  0
LINE
  8
0
 62
     250
 10
41.5491
 20
9.74824
 30
0.0
 11
41.5491
 21
9.74824
 31
0.0
  0
LINE
  8
0
 62
     250
 10
41.5491
 20
9.74824
 30
0.0
 11
41.4334
 21
9.31968
 31
0.0
  0
LINE
  8
0
 62
     250
 10
41.4334
 20
9.31968
 30
0.0
 11
41.1826
 21
8.37572
 31
0.0
  0
LINE
  8
0
 62
     250
 10
41.1826
 20
8.37572
 30
0.0
 11
40.9303
 21
7.43176
 31
0.0
  0
LINE
  8
0
 62
     250
 10
40.9303
 20
7.43176
 30
0.0
 11
40.816
 21
7.00183
 31
0.0
  0
LINE
  8
0
 62
     250
 10
40.816
 20
7.00183
 30
0.0
 11
40.816
 21
7.00183
 31
0.0
  0
LINE
  8
0
 62
     250
 10
40.816
 20
7.00183
 30
0.0
 11
40.816
 21
7.00183
 31
0.0
  0
LINE
  8
0
 62
     250
 10
40.816
 20
7.00183
 30
0.0
 11
41.2736
 21
7.00183
 31
0.0
  0
LINE
  8
0
 62
     250
 10
41.2736
 20
7.00183
 30
0.0
 11
42.2811
 21
7.00183
 31
0.0
  0
LINE
  8
0
 62
     250
 10
42.2811
 20
7.00183
 30
0.0
 11
43.2869
 21
7.00183
 31
0.0
  0
LINE
  8
0
 62
     250
 10
43.2869
 20
7.00183
 30
0.0
 11
43.7459
 21
7.00183
 31
0.0
  0
LINE
  8
0
 62
     250
 10
43.7459
 20
7.00183
 30
0.0
 11
43.7459
 21
7.00183
 31
0.0
  0
LINE
  8
0
 62
     250
 10
43.7459
 20
7.00183
 30
0.0
 11
43.7459
 21
7.00183
 31
0.0
  0
LINE
  8
0
 62
     250
 10
43.7459
 20
7.00183
 30
0.0
 11
43.7459
 21
5.90903
 31
0.0
  0
LINE
  8
0
 62
     250
 10
43.7459
 20
5.90903
 30
0.0
 11
43.7459
 21
3.50297
 31
0.0
  0
LINE
  8
0
 62
     250
 10
43.7459
 20
3.50297
 30
0.0
 11
43.7459
 21
1.09692
 31
0.0
  0
LINE
  8
0
 62
     250
 10
43.7459
 20
1.09692
 30
0.0
 11
43.7459
 21
0.00275608
 31
0.0
  0
LINE
  8
0
 62
     250
 10
43.7459
 20
0.00275608
 30
0.0
 11
43.7459
 21
0.00275608
 31
0.0
  0
LINE
  8
0
 62
     250
 10
119.618
 20
24.8956
 30
0.0
 11
119.618
 21
24.8956
 31
0.0
  0
LINE
  8
0
 62
     250
 10
119.618
 20
24.8956
 30
0.0
 11
119.293
 21
24.8956
 31
0.0
  0
LINE
  8
0
 62
     250
 10
119.293
 20
24.8956
 30
0.0
 11
118.438
 21
24.8956
 31
0.0
  0
LINE
  8
0
 62
     250
 10
118.438
 20
24.8956
 30
0.0
 11
117.23
 21
24.8956
 31
0.0
  0
LINE
  8
0
 62
     250
 10
117.23
 20
24.8956
 30
0.0
 11
115.845
 21
24.8956
 31
0.0
  0
LINE
  8
0
 62
     250
 10
115.845
 20
24.8956
 30
0.0
 11
114.458
 21
24.8956
 31
0.0
  0
LINE
  8
0
 62
     250
 10
114.458
 20
24.8956
 30
0.0
 11
113.25
 21
24.8956
 31
0.0
  0
LINE
  8
0
 62
     250
 10
113.25
 20
24.8956
 30
0.0
 11
112.396
 21
24.8956
 31
0.0
  0
LINE
  8
0
 62
     250
 10
112.396
 20
24.8956
 30
0.0
 11
112.072
 21
24.8956
 31
0.0
  0
LINE
  8
0
 62
     250
 10
112.072
 20
24.8956
 30
0.0
 11
112.072
 21
24.8956
 31
0.0
  0
LINE
  8
0
 62
     250
 10
112.072
 20
24.8956
 30
0.0
 11
112.072
 21
24.8956
 31
0.0
  0
LINE
  8
0
 62
     250
 10
112.072
 20
24.8956
 30
0.0
 11
112.074
 21
24.1336
 31
0.0
  0
LINE
  8
0
 62
     250
 10
112.074
 20
24.1336
 30
0.0
 11
112.084
 21
22.1216
 31
0.0
  0
LINE
  8
0
 62
     250
 10
112.084
 20
22.1216
 30
0.0
 11
112.098
 21
19.2787
 31
0.0
  0
LINE
  8
0
 62
     250
 10
112.098
 20
19.2787
 30
0.0
 11
112.115
 21
16.0183
 31
0.0
  0
LINE
  8
0
 62
     250
 10
112.115
 20
16.0183
 30
0.0
 11
112.131
 21
12.7579
 31
0.0
  0
LINE
  8
0
 62
     250
 10
112.131
 20
12.7579
 30
0.0
 11
112.145
 21
9.915
 31
0.0
  0
LINE
  8
0
 62
     250
 10
112.145
 20
9.915
 30
0.0
 11
112.154
 21
7.90303
 31
0.0
  0
LINE
  8
0
 62
     250
 10
112.154
 20
7.90303
 30
0.0
 11
112.159
 21
7.13962
 31
0.0
  0
LINE
  8
0
 62
     250
 10
112.159
 20
7.13962
 30
0.0
 11
112.159
 21
7.13962
 31
0.0
  0
LINE
  8
0
 62
     250
 10
112.159
 20
7.13962
 30
0.0
 11
112.159
 21
7.13962
 31
0.0
  0
LINE
  8
0
 62
     250
 10
112.159
 20
7.13962
 30
0.0
 11
113.323
 21
7.13962
 31
0.0
  0
LINE
  8
0
 62
     250
 10
113.323
 20
7.13962
 30
0.0
 11
115.888
 21
7.13962
 31
0.0
  0
LINE
  8
0
 62
     250
 10
115.888
 20
7.13962
 30
0.0
 11
118.452
 21
7.13962
 31
0.0
  0
LINE
  8
0
 62
     250
 10
118.452
 20
7.13962
 30
0.0
 11
119.618
 21
7.13962
 31
0.0
  0
LINE
  8
0
 62
     250
 10
119.618
 20
7.13962
 30
0.0
 11
119.618
 21
7.13962
 31
0.0
  0
LINE
  8
0
 62
     250
 10
119.618
 20
7.13962
 30
0.0
 11
119.949
 21
7.13962
 31
0.0
  0
LINE
  8
0
 62
     250
 10
119.949
 20
7.13962
 30
0.0
 11
120.941
 21
7.16993
 31
0.0
  0
LINE
  8
0
 62
     250
 10
120.941
 20
7.16993
 30
0.0
 11
121.872
 21
7.26641
 31
0.0
  0
LINE
  8
0
 62
     250
 10
121.872
 20
7.26641
 30
0.0
 11
122.501
 21
7.44968
 31
0.0
  0
LINE
  8
0
 62
     250
 10
122.501
 20
7.44968
 30
0.0
 11
122.83
 21
7.64399
 31
0.0
  0
LINE
  8
0
 62
     250
 10
122.83
 20
7.64399
 30
0.0
 11
122.918
 21
7.73081
 31
0.0
  0
LINE
  8
0
 62
     250
 10
122.918
 20
7.73081
 30
0.0
 11
123.033
 21
7.84793
 31
0.0
  0
LINE
  8
0
 62
     250
 10
123.033
 20
7.84793
 30
0.0
 11
123.238
 21
8.33988
 31
0.0
  0
LINE
  8
0
 62
     250
 10
123.238
 20
8.33988
 30
0.0
 11
123.449
 21
9.66142
 31
0.0
  0
LINE
  8
0
 62
     250
 10
123.449
 20
9.66142
 30
0.0
 11
123.566
 21
12.0895
 31
0.0
  0
LINE
  8
0
 62
     250
 10
123.566
 20
12.0895
 30
0.0
 11
123.603
 21
15.033
 31
0.0
  0
LINE
  8
0
 62
     250
 10
123.603
 20
15.033
 30
0.0
 11
123.603
 21
16.0142
 31
0.0
  0
LINE
  8
0
 62
     250
 10
123.603
 20
16.0142
 30
0.0
 11
123.603
 21
17.0009
 31
0.0
  0
LINE
  8
0
 62
     250
 10
123.603
 20
17.0009
 30
0.0
 11
123.566
 21
19.9609
 31
0.0
  0
LINE
  8
0
 62
     250
 10
123.566
 20
19.9609
 30
0.0
 11
123.449
 21
22.389
 31
0.0
  0
LINE
  8
0
 62
     250
 10
123.449
 20
22.389
 30
0.0
 11
123.238
 21
23.7009
 31
0.0
  0
LINE
  8
0
 62
     250
 10
123.238
 20
23.7009
 30
0.0
 11
123.033
 21
24.1873
 31
0.0
  0
LINE
  8
0
 62
     250
 10
123.033
 20
24.1873
 30
0.0
 11
122.918
 21
24.3031
 31
0.0
  0
LINE
  8
0
 62
     250
 10
122.918
 20
24.3031
 30
0.0
 11
122.83
 21
24.3913
 31
0.0
  0
LINE
  8
0
 62
     250
 10
122.83
 20
24.3913
 30
0.0
 11
122.499
 21
24.5897
 31
0.0
  0
LINE
  8
0
 62
     250
 10
122.499
 20
24.5897
 30
0.0
 11
121.87
 21
24.7716
 31
0.0
  0
LINE
  8
0
 62
     250
 10
121.87
 20
24.7716
 30
0.0
 11
120.939
 21
24.8681
 31
0.0
  0
LINE
  8
0
 62
     250
 10
120.939
 20
24.8681
 30
0.0
 11
119.947
 21
24.8956
 31
0.0
  0
LINE
  8
0
 62
     250
 10
119.947
 20
24.8956
 30
0.0
 11
119.618
 21
24.8956
 31
0.0
  0
LINE
  8
0
 62
     250
 10
45.6586
 20
23.8442
 30
0.0
 11
45.6586
 21
23.8442
 31
0.0
  0
LINE
  8
0
 62
     250
 10
45.6586
 20
23.8442
 30
0.0
 11
45.5567
 21
23.5259
 31
0.0
  0
LINE
  8
0
 62
     250
 10
45.5567
 20
23.5259
 30
0.0
 11
45.2878
 21
22.6853
 31
0.0
  0
LINE
  8
0
 62
     250
 10
45.2878
 20
22.6853
 30
0.0
 11
44.909
 21
21.4974
 31
0.0
  0
LINE
  8
0
 62
     250
 10
44.909
 20
21.4974
 30
0.0
 11
44.4747
 21
20.1359
 31
0.0
  0
LINE
  8
0
 62
     250
 10
44.4747
 20
20.1359
 30
0.0
 11
44.0408
 21
18.7744
 31
0.0
  0
LINE
  8
0
 62
     250
 10
44.0408
 20
18.7744
 30
0.0
 11
43.6619
 21
17.5865
 31
0.0
  0
LINE
  8
0
 62
     250
 10
43.6619
 20
17.5865
 30
0.0
 11
43.3931
 21
16.7459
 31
0.0
  0
LINE
  8
0
 62
     250
 10
43.3931
 20
16.7459
 30
0.0
 11
43.2925
 21
16.4262
 31
0.0
  0
LINE
  8
0
 62
     250
 10
43.2925
 20
16.4262
 30
0.0
 11
43.2925
 21
16.4262
 31
0.0
  0
LINE
  8
0
 62
     250
 10
43.2925
 20
16.4262
 30
0.0
 11
43.2925
 21
16.4262
 31
0.0
  0
LINE
  8
0
 62
     250
 10
43.2925
 20
16.4262
 30
0.0
 11
44.3713
 21
16.4262
 31
0.0
  0
LINE
  8
0
 62
     250
 10
44.3713
 20
16.4262
 30
0.0
 11
46.7473
 21
16.4262
 31
0.0
  0
LINE
  8
0
 62
     250
 10
46.7473
 20
16.4262
 30
0.0
 11
49.1215
 21
16.4262
 31
0.0
  0
LINE
  8
0
 62
     250
 10
49.1215
 20
16.4262
 30
0.0
 11
50.202
 21
16.4262
 31
0.0
  0
LINE
  8
0
 62
     250
 10
50.202
 20
16.4262
 30
0.0
 11
50.202
 21
16.4262
 31
0.0
  0
LINE
  8
0
 62
     250
 10
50.202
 20
16.4262
 30
0.0
 11
50.202
 21
16.4262
 31
0.0
  0
LINE
  8
0
 62
     250
 10
50.202
 20
16.4262
 30
0.0
 11
50.1026
 21
16.7459
 31
0.0
  0
LINE
  8
0
 62
     250
 10
50.1026
 20
16.7459
 30
0.0
 11
49.8422
 21
17.5865
 31
0.0
  0
LINE
  8
0
 62
     250
 10
49.8422
 20
17.5865
 30
0.0
 11
49.4729
 21
18.7744
 31
0.0
  0
LINE
  8
0
 62
     250
 10
49.4729
 20
18.7744
 30
0.0
 11
49.0513
 21
20.1359
 31
0.0
  0
LINE
  8
0
 62
     250
 10
49.0513
 20
20.1359
 30
0.0
 11
48.6283
 21
21.4974
 31
0.0
  0
LINE
  8
0
 62
     250
 10
48.6283
 20
21.4974
 30
0.0
 11
48.2589
 21
22.6853
 31
0.0
  0
LINE
  8
0
 62
     250
 10
48.2589
 20
22.6853
 30
0.0
 11
47.9986
 21
23.5259
 31
0.0
  0
LINE
  8
0
 62
     250
 10
47.9986
 20
23.5259
 30
0.0
 11
47.9005
 21
23.8442
 31
0.0
  0
LINE
  8
0
 62
     250
 10
47.9005
 20
23.8442
 30
0.0
 11
47.9005
 21
23.8442
 31
0.0
  0
LINE
  8
0
 62
     250
 10
47.9005
 20
23.8442
 30
0.0
 11
47.9005
 21
23.8442
 31
0.0
  0
LINE
  8
0
 62
     250
 10
47.9005
 20
23.8442
 30
0.0
 11
47.5492
 21
23.8442
 31
0.0
  0
LINE
  8
0
 62
     250
 10
47.5492
 20
23.8442
 30
0.0
 11
46.779
 21
23.8442
 31
0.0
  0
LINE
  8
0
 62
     250
 10
46.779
 20
23.8442
 30
0.0
 11
46.0086
 21
23.8442
 31
0.0
  0
LINE
  8
0
 62
     250
 10
46.0086
 20
23.8442
 30
0.0
 11
45.6586
 21
23.8442
 31
0.0
  0
LINE
  8
0
 62
     250
 10
45.6586
 20
23.8442
 30
0.0
 11
45.6586
 21
23.8442
 31
0.0
  0
LINE
  8
0
 62
     250
 10
84.1043
 20
24.988
 30
0.0
 11
84.1043
 21
24.988
 31
0.0
  0
LINE
  8
0
 62
     250
 10
84.1043
 20
24.988
 30
0.0
 11
82.9829
 21
24.988
 31
0.0
  0
LINE
  8
0
 62
     250
 10
82.9829
 20
24.988
 30
0.0
 11
80.5187
 21
24.988
 31
0.0
  0
LINE
  8
0
 62
     250
 10
80.5187
 20
24.988
 30
0.0
 11
78.0535
 21
24.988
 31
0.0
  0
LINE
  8
0
 62
     250
 10
78.0535
 20
24.988
 30
0.0
 11
76.9331
 21
24.988
 31
0.0
  0
LINE
  8
0
 62
     250
 10
76.9331
 20
24.988
 30
0.0
 11
76.9331
 21
24.988
 31
0.0
  0
LINE
  8
0
 62
     250
 10
76.9331
 20
24.988
 30
0.0
 11
76.9331
 21
24.988
 31
0.0
  0
LINE
  8
0
 62
     250
 10
76.9331
 20
24.988
 30
0.0
 11
76.9331
 21
24.0013
 31
0.0
  0
LINE
  8
0
 62
     250
 10
76.9331
 20
24.0013
 30
0.0
 11
76.9331
 21
21.8295
 31
0.0
  0
LINE
  8
0
 62
     250
 10
76.9331
 20
21.8295
 30
0.0
 11
76.9331
 21
19.6591
 31
0.0
  0
LINE
  8
0
 62
     250
 10
76.9331
 20
19.6591
 30
0.0
 11
76.9331
 21
18.671
 31
0.0
  0
LINE
  8
0
 62
     250
 10
76.9331
 20
18.671
 30
0.0
 11
76.9331
 21
18.671
 31
0.0
  0
LINE
  8
0
 62
     250
 10
76.9331
 20
18.671
 30
0.0
 11
76.9331
 21
18.671
 31
0.0
  0
LINE
  8
0
 62
     250
 10
76.9331
 20
18.671
 30
0.0
 11
78.0535
 21
18.671
 31
0.0
  0
LINE
  8
0
 62
     250
 10
78.0535
 20
18.671
 30
0.0
 11
80.5187
 21
18.671
 31
0.0
  0
LINE
  8
0
 62
     250
 10
80.5187
 20
18.671
 30
0.0
 11
82.9829
 21
18.671
 31
0.0
  0
LINE
  8
0
 62
     250
 10
82.9829
 20
18.671
 30
0.0
 11
84.1043
 21
18.671
 31
0.0
  0
LINE
  8
0
 62
     250
 10
84.1043
 20
18.671
 30
0.0
 11
84.1043
 21
18.671
 31
0.0
  0
LINE
  8
0
 62
     250
 10
84.1043
 20
18.671
 30
0.0
 11
84.3167
 21
18.671
 31
0.0
  0
LINE
  8
0
 62
     250
 10
84.3167
 20
18.671
 30
0.0
 11
84.9545
 21
18.6903
 31
0.0
  0
LINE
  8
0
 62
     250
 10
84.9545
 20
18.6903
 30
0.0
 11
85.5514
 21
18.7537
 31
0.0
  0
LINE
  8
0
 62
     250
 10
85.5514
 20
18.7537
 30
0.0
 11
85.9497
 21
18.8681
 31
0.0
  0
LINE
  8
0
 62
     250
 10
85.9497
 20
18.8681
 30
0.0
 11
86.1522
 21
18.9866
 31
0.0
  0
LINE
  8
0
 62
     250
 10
86.1522
 20
18.9866
 30
0.0
 11
86.2058
 21
19.0404
 31
0.0
  0
LINE
  8
0
 62
     250
 10
86.2058
 20
19.0404
 30
0.0
 11
86.2831
 21
19.1258
 31
0.0
  0
LINE
  8
0
 62
     250
 10
86.2831
 20
19.1258
 30
0.0
 11
86.4595
 21
19.4359
 31
0.0
  0
LINE
  8
0
 62
     250
 10
86.4595
 20
19.4359
 30
0.0
 11
86.6165
 21
19.9871
 31
0.0
  0
LINE
  8
0
 62
     250
 10
86.6165
 20
19.9871
 30
0.0
 11
86.6951
 21
20.7629
 31
0.0
  0
LINE
  8
0
 62
     250
 10
86.6951
 20
20.7629
 30
0.0
 11
86.7174
 21
21.5635
 31
0.0
  0
LINE
  8
0
 62
     250
 10
86.7174
 20
21.5635
 30
0.0
 11
86.7174
 21
21.8295
 31
0.0
  0
LINE
  8
0
 62
     250
 10
86.7174
 20
21.8295
 30
0.0
 11
86.7174
 21
22.0968
 31
0.0
  0
LINE
  8
0
 62
     250
 10
86.7174
 20
22.0968
 30
0.0
 11
86.6951
 21
22.8975
 31
0.0
  0
LINE
  8
0
 62
     250
 10
86.6951
 20
22.8975
 30
0.0
 11
86.6165
 21
23.6733
 31
0.0
  0
LINE
  8
0
 62
     250
 10
86.6165
 20
23.6733
 30
0.0
 11
86.4595
 21
24.2259
 31
0.0
  0
LINE
  8
0
 62
     250
 10
86.4595
 20
24.2259
 30
0.0
 11
86.2831
 21
24.5387
 31
0.0
  0
LINE
  8
0
 62
     250
 10
86.2831
 20
24.5387
 30
0.0
 11
86.2058
 21
24.6242
 31
0.0
  0
LINE
  8
0
 62
     250
 10
86.2058
 20
24.6242
 30
0.0
 11
86.1522
 21
24.6779
 31
0.0
  0
LINE
  8
0
 62
     250
 10
86.1522
 20
24.6779
 30
0.0
 11
85.9511
 21
24.7964
 31
0.0
  0
LINE
  8
0
 62
     250
 10
85.9511
 20
24.7964
 30
0.0
 11
85.5514
 21
24.9081
 31
0.0
  0
LINE
  8
0
 62
     250
 10
85.5514
 20
24.9081
 30
0.0
 11
84.9545
 21
24.9701
 31
0.0
  0
LINE
  8
0
 62
     250
 10
84.9545
 20
24.9701
 30
0.0
 11
84.3167
 21
24.988
 31
0.0
  0
LINE
  8
0
 62
     250
 10
84.3167
 20
24.988
 30
0.0
 11
84.1043
 21
24.988
 31
0.0
  0
LINE
  8
0
 62
     250
 10
87.4695
 20
37.2389
 30
0.0
 11
87.4695
 21
37.2389
 31
0.0
  0
LINE
  8
0
 62
     250
 10
87.4695
 20
37.2389
 30
0.0
 11
86.9555
 21
37.2389
 31
0.0
  0
LINE
  8
0
 62
     250
 10
86.9555
 20
37.2389
 30
0.0
 11
85.6036
 21
37.2389
 31
0.0
  0
LINE
  8
0
 62
     250
 10
85.6036
 20
37.2389
 30
0.0
 11
83.6909
 21
37.2389
 31
0.0
  0
LINE
  8
0
 62
     250
 10
83.6909
 20
37.2389
 30
0.0
 11
81.4998
 21
37.2389
 31
0.0
  0
LINE
  8
0
 62
     250
 10
81.4998
 20
37.2389
 30
0.0
 11
79.3076
 21
37.2389
 31
0.0
  0
LINE
  8
0
 62
     250
 10
79.3076
 20
37.2389
 30
0.0
 11
77.3949
 21
37.2389
 31
0.0
  0
LINE
  8
0
 62
     250
 10
77.3949
 20
37.2389
 30
0.0
 11
76.043
 21
37.2389
 31
0.0
  0
LINE
  8
0
 62
     250
 10
76.043
 20
37.2389
 30
0.0
 11
75.5304
 21
37.2389
 31
0.0
  0
LINE
  8
0
 62
     250
 10
75.5304
 20
37.2389
 30
0.0
 11
75.5304
 21
37.2389
 31
0.0
  0
LINE
  8
0
 62
     250
 10
75.5304
 20
37.2389
 30
0.0
 11
74.9886
 21
37.2389
 31
0.0
  0
LINE
  8
0
 62
     250
 10
74.9886
 20
37.2389
 30
0.0
 11
73.3654
 21
37.3366
 31
0.0
  0
LINE
  8
0
 62
     250
 10
73.3654
 20
37.3366
 30
0.0
 11
71.7684
 21
37.6439
 31
0.0
  0
LINE
  8
0
 62
     250
 10
71.7684
 20
37.6439
 30
0.0
 11
70.5651
 21
38.184
 31
0.0
  0
LINE
  8
0
 62
     250
 10
70.5651
 20
38.184
 30
0.0
 11
69.8073
 21
38.7572
 31
0.0
  0
LINE
  8
0
 62
     250
 10
69.8073
 20
38.7572
 30
0.0
 11
69.5868
 21
38.9791
 31
0.0
  0
LINE
  8
0
 62
     250
 10
69.5868
 20
38.9791
 30
0.0
 11
69.2051
 21
39.3499
 31
0.0
  0
LINE
  8
0
 62
     250
 10
69.2051
 20
39.3499
 30
0.0
 11
68.3327
 21
40.7388
 31
0.0
  0
LINE
  8
0
 62
     250
 10
68.3327
 20
40.7388
 30
0.0
 11
67.4137
 21
43.4922
 31
0.0
  0
LINE
  8
0
 62
     250
 10
67.4137
 20
43.4922
 30
0.0
 11
66.8472
 21
47.559
 31
0.0
  0
LINE
  8
0
 62
     250
 10
66.8472
 20
47.559
 30
0.0
 11
66.6556
 21
51.8351
 31
0.0
  0
LINE
  8
0
 62
     250
 10
66.6556
 20
51.8351
 30
0.0
 11
66.6556
 21
53.2599
 31
0.0
  0
LINE
  8
0
 62
     250
 10
66.6556
 20
53.2599
 30
0.0
 11
66.6556
 21
54.6848
 31
0.0
  0
LINE
  8
0
 62
     250
 10
66.6556
 20
54.6848
 30
0.0
 11
66.8472
 21
58.9594
 31
0.0
  0
LINE
  8
0
 62
     250
 10
66.8472
 20
58.9594
 30
0.0
 11
67.4137
 21
63.023
 31
0.0
  0
LINE
  8
0
 62
     250
 10
67.4137
 20
63.023
 30
0.0
 11
68.3327
 21
65.7737
 31
0.0
  0
LINE
  8
0
 62
     250
 10
68.3327
 20
65.7737
 30
0.0
 11
69.2051
 21
67.1629
 31
0.0
  0
LINE
  8
0
 62
     250
 10
69.2051
 20
67.1629
 30
0.0
 11
69.5868
 21
67.5322
 31
0.0
  0
LINE
  8
0
 62
     250
 10
69.5868
 20
67.5322
 30
0.0
 11
69.8073
 21
67.7556
 31
0.0
  0
LINE
  8
0
 62
     250
 10
69.8073
 20
67.7556
 30
0.0
 11
70.5651
 21
68.3288
 31
0.0
  0
LINE
  8
0
 62
     250
 10
70.5651
 20
68.3288
 30
0.0
 11
71.7684
 21
68.8703
 31
0.0
  0
LINE
  8
0
 62
     250
 10
71.7684
 20
68.8703
 30
0.0
 11
73.3668
 21
69.179
 31
0.0
  0
LINE
  8
0
 62
     250
 10
73.3668
 20
69.179
 30
0.0
 11
74.9886
 21
69.2753
 31
0.0
  0
LINE
  8
0
 62
     250
 10
74.9886
 20
69.2753
 30
0.0
 11
75.5304
 21
69.2753
 31
0.0
  0
LINE
  8
0
 62
     250
 10
75.5304
 20
69.2753
 30
0.0
 11
75.5304
 21
69.2753
 31
0.0
  0
LINE
  8
0
 62
     250
 10
75.5304
 20
69.2753
 30
0.0
 11
76.043
 21
69.2753
 31
0.0
  0
LINE
  8
0
 62
     250
 10
76.043
 20
69.2753
 30
0.0
 11
77.3949
 21
69.2753
 31
0.0
  0
LINE
  8
0
 62
     250
 10
77.3949
 20
69.2753
 30
0.0
 11
79.3076
 21
69.2753
 31
0.0
  0
LINE
  8
0
 62
     250
 10
79.3076
 20
69.2753
 30
0.0
 11
81.4998
 21
69.2753
 31
0.0
  0
LINE
  8
0
 62
     250
 10
81.4998
 20
69.2753
 30
0.0
 11
83.6909
 21
69.2753
 31
0.0
  0
LINE
  8
0
 62
     250
 10
83.6909
 20
69.2753
 30
0.0
 11
85.6036
 21
69.2753
 31
0.0
  0
LINE
  8
0
 62
     250
 10
85.6036
 20
69.2753
 30
0.0
 11
86.9555
 21
69.2753
 31
0.0
  0
LINE
  8
0
 62
     250
 10
86.9555
 20
69.2753
 30
0.0
 11
87.4695
 21
69.2753
 31
0.0
  0
LINE
  8
0
 62
     250
 10
87.4695
 20
69.2753
 30
0.0
 11
87.4695
 21
69.2753
 31
0.0
  0
LINE
  8
0
 62
     250
 10
87.4695
 20
69.2753
 30
0.0
 11
88.0099
 21
69.2753
 31
0.0
  0
LINE
  8
0
 62
     250
 10
88.0099
 20
69.2753
 30
0.0
 11
89.6317
 21
69.179
 31
0.0
  0
LINE
  8
0
 62
     250
 10
89.6317
 20
69.179
 30
0.0
 11
91.2315
 21
68.8703
 31
0.0
  0
LINE
  8
0
 62
     250
 10
91.2315
 20
68.8703
 30
0.0
 11
92.4359
 21
68.3288
 31
0.0
  0
LINE
  8
0
 62
     250
 10
92.4359
 20
68.3288
 30
0.0
 11
93.194
 21
67.7556
 31
0.0
  0
LINE
  8
0
 62
     250
 10
93.194
 20
67.7556
 30
0.0
 11
93.4145
 21
67.5322
 31
0.0
  0
LINE
  8
0
 62
     250
 10
93.4145
 20
67.5322
 30
0.0
 11
93.7948
 21
67.1643
 31
0.0
  0
LINE
  8
0
 62
     250
 10
93.7948
 20
67.1643
 30
0.0
 11
94.6672
 21
65.7751
 31
0.0
  0
LINE
  8
0
 62
     250
 10
94.6672
 20
65.7751
 30
0.0
 11
95.5876
 21
63.0245
 31
0.0
  0
LINE
  8
0
 62
     250
 10
95.5876
 20
63.0245
 30
0.0
 11
96.1528
 21
58.9608
 31
0.0
  0
LINE
  8
0
 62
     250
 10
96.1528
 20
58.9608
 30
0.0
 11
96.3468
 21
54.6862
 31
0.0
  0
LINE
  8
0
 62
     250
 10
96.3468
 20
54.6862
 30
0.0
 11
96.3468
 21
53.2599
 31
0.0
  0
LINE
  8
0
 62
     250
 10
96.3468
 20
53.2599
 30
0.0
 11
96.3468
 21
51.8351
 31
0.0
  0
LINE
  8
0
 62
     250
 10
96.3468
 20
51.8351
 30
0.0
 11
96.1528
 21
47.559
 31
0.0
  0
LINE
  8
0
 62
     250
 10
96.1528
 20
47.559
 30
0.0
 11
95.5876
 21
43.4922
 31
0.0
  0
LINE
  8
0
 62
     250
 10
95.5876
 20
43.4922
 30
0.0
 11
94.6672
 21
40.7388
 31
0.0
  0
LINE
  8
0
 62
     250
 10
94.6672
 20
40.7388
 30
0.0
 11
93.7948
 21
39.3485
 31
0.0
  0
LINE
  8
0
 62
     250
 10
93.7948
 20
39.3485
 30
0.0
 11
93.4145
 21
38.9791
 31
0.0
  0
LINE
  8
0
 62
     250
 10
93.4145
 20
38.9791
 30
0.0
 11
93.194
 21
38.7572
 31
0.0
  0
LINE
  8
0
 62
     250
 10
93.194
 20
38.7572
 30
0.0
 11
92.4359
 21
38.184
 31
0.0
  0
LINE
  8
0
 62
     250
 10
92.4359
 20
38.184
 30
0.0
 11
91.2315
 21
37.6439
 31
0.0
  0
LINE
  8
0
 62
     250
 10
91.2315
 20
37.6439
 30
0.0
 11
89.6317
 21
37.3366
 31
0.0
  0
LINE
  8
0
 62
     250
 10
89.6317
 20
37.3366
 30
0.0
 11
88.0099
 21
37.2389
 31
0.0
  0
LINE
  8
0
 62
     250
 10
88.0099
 20
37.2389
 30
0.0
 11
87.4695
 21
37.2389
 31
0.0
  0
LINE
  8
0
 62
     250
 10
46.6027
 20
37.2413
 30
0.0
 11
46.6027
 21
37.2413
 31
0.0
  0
LINE
  8
0
 62
     250
 10
46.6027
 20
37.2413
 30
0.0
 11
45.9038
 21
37.2413
 31
0.0
  0
LINE
  8
0
 62
     250
 10
45.9038
 20
37.2413
 30
0.0
 11
44.0641
 21
37.2413
 31
0.0
  0
LINE
  8
0
 62
     250
 10
44.0641
 20
37.2413
 30
0.0
 11
41.4623
 21
37.2413
 31
0.0
  0
LINE
  8
0
 62
     250
 10
41.4623
 20
37.2413
 30
0.0
 11
38.4803
 21
37.2413
 31
0.0
  0
LINE
  8
0
 62
     250
 10
38.4803
 20
37.2413
 30
0.0
 11
35.4969
 21
37.2413
 31
0.0
  0
LINE
  8
0
 62
     250
 10
35.4969
 20
37.2413
 30
0.0
 11
32.8952
 21
37.2413
 31
0.0
  0
LINE
  8
0
 62
     250
 10
32.8952
 20
37.2413
 30
0.0
 11
31.0555
 21
37.2413
 31
0.0
  0
LINE
  8
0
 62
     250
 10
31.0555
 20
37.2413
 30
0.0
 11
30.3582
 21
37.2413
 31
0.0
  0
LINE
  8
0
 62
     250
 10
30.3582
 20
37.2413
 30
0.0
 11
30.3582
 21
37.2413
 31
0.0
  0
LINE
  8
0
 62
     250
 10
30.3582
 20
37.2413
 30
0.0
 11
30.3582
 21
37.2413
 31
0.0
  0
LINE
  8
0
 62
     250
 10
30.3582
 20
37.2413
 30
0.0
 11
30.3582
 21
38.3575
 31
0.0
  0
LINE
  8
0
 62
     250
 10
30.3582
 20
38.3575
 30
0.0
 11
30.3582
 21
40.8107
 31
0.0
  0
LINE
  8
0
 62
     250
 10
30.3582
 20
40.8107
 30
0.0
 11
30.3582
 21
43.2636
 31
0.0
  0
LINE
  8
0
 62
     250
 10
30.3582
 20
43.2636
 30
0.0
 11
30.3582
 21
44.3784
 31
0.0
  0
LINE
  8
0
 62
     250
 10
30.3582
 20
44.3784
 30
0.0
 11
30.3582
 21
44.3784
 31
0.0
  0
LINE
  8
0
 62
     250
 10
30.3582
 20
44.3784
 30
0.0
 11
30.3582
 21
44.3784
 31
0.0
  0
LINE
  8
0
 62
     250
 10
30.3582
 20
44.3784
 30
0.0
 11
30.886
 21
44.3784
 31
0.0
  0
LINE
  8
0
 62
     250
 10
30.886
 20
44.3784
 30
0.0
 11
32.0491
 21
44.3784
 31
0.0
  0
LINE
  8
0
 62
     250
 10
32.0491
 20
44.3784
 30
0.0
 11
33.2107
 21
44.3784
 31
0.0
  0
LINE
  8
0
 62
     250
 10
33.2107
 20
44.3784
 30
0.0
 11
33.7399
 21
44.3784
 31
0.0
  0
LINE
  8
0
 62
     250
 10
33.7399
 20
44.3784
 30
0.0
 11
33.7399
 21
44.3784
 31
0.0
  0
LINE
  8
0
 62
     250
 10
33.7399
 20
44.3784
 30
0.0
 11
33.7399
 21
44.3784
 31
0.0
  0
LINE
  8
0
 62
     250
 10
33.7399
 20
44.3784
 30
0.0
 11
33.7399
 21
45.1418
 31
0.0
  0
LINE
  8
0
 62
     250
 10
33.7399
 20
45.1418
 30
0.0
 11
33.7399
 21
47.1537
 31
0.0
  0
LINE
  8
0
 62
     250
 10
33.7399
 20
47.1537
 30
0.0
 11
33.7399
 21
49.9981
 31
0.0
  0
LINE
  8
0
 62
     250
 10
33.7399
 20
49.9981
 30
0.0
 11
33.7399
 21
53.2585
 31
0.0
  0
LINE
  8
0
 62
     250
 10
33.7399
 20
53.2585
 30
0.0
 11
33.7399
 21
56.5189
 31
0.0
  0
LINE
  8
0
 62
     250
 10
33.7399
 20
56.5189
 30
0.0
 11
33.7399
 21
59.363
 31
0.0
  0
LINE
  8
0
 62
     250
 10
33.7399
 20
59.363
 30
0.0
 11
33.7399
 21
61.3752
 31
0.0
  0
LINE
  8
0
 62
     250
 10
33.7399
 20
61.3752
 30
0.0
 11
33.7399
 21
62.1372
 31
0.0
  0
LINE
  8
0
 62
     250
 10
33.7399
 20
62.1372
 30
0.0
 11
33.7399
 21
62.1372
 31
0.0
  0
LINE
  8
0
 62
     250
 10
33.7399
 20
62.1372
 30
0.0
 11
33.7399
 21
62.1372
 31
0.0
  0
LINE
  8
0
 62
     250
 10
33.7399
 20
62.1372
 30
0.0
 11
33.2107
 21
62.1372
 31
0.0
  0
LINE
  8
0
 62
     250
 10
33.2107
 20
62.1372
 30
0.0
 11
32.0491
 21
62.1372
 31
0.0
  0
LINE
  8
0
 62
     250
 10
32.0491
 20
62.1372
 30
0.0
 11
30.886
 21
62.1372
 31
0.0
  0
LINE
  8
0
 62
     250
 10
30.886
 20
62.1372
 30
0.0
 11
30.3582
 21
62.1372
 31
0.0
  0
LINE
  8
0
 62
     250
 10
30.3582
 20
62.1372
 30
0.0
 11
30.3582
 21
62.1372
 31
0.0
  0
LINE
  8
0
 62
     250
 10
30.3582
 20
62.1372
 30
0.0
 11
30.3582
 21
62.1372
 31
0.0
  0
LINE
  8
0
 62
     250
 10
30.3582
 20
62.1372
 30
0.0
 11
30.3582
 21
63.2534
 31
0.0
  0
LINE
  8
0
 62
     250
 10
30.3582
 20
63.2534
 30
0.0
 11
30.3582
 21
65.7077
 31
0.0
  0
LINE
  8
0
 62
     250
 10
30.3582
 20
65.7077
 30
0.0
 11
30.3582
 21
68.162
 31
0.0
  0
LINE
  8
0
 62
     250
 10
30.3582
 20
68.162
 30
0.0
 11
30.3582
 21
69.2767
 31
0.0
  0
LINE
  8
0
 62
     250
 10
30.3582
 20
69.2767
 30
0.0
 11
30.3582
 21
69.2767
 31
0.0
  0
LINE
  8
0
 62
     250
 10
30.3582
 20
69.2767
 30
0.0
 11
30.3582
 21
69.2767
 31
0.0
  0
LINE
  8
0
 62
     250
 10
30.3582
 20
69.2767
 30
0.0
 11
31.422
 21
69.2767
 31
0.0
  0
LINE
  8
0
 62
     250
 10
31.422
 20
69.2767
 30
0.0
 11
34.2305
 21
69.2767
 31
0.0
  0
LINE
  8
0
 62
     250
 10
34.2305
 20
69.2767
 30
0.0
 11
38.2005
 21
69.2767
 31
0.0
  0
LINE
  8
0
 62
     250
 10
38.2005
 20
69.2767
 30
0.0
 11
42.7524
 21
69.2767
 31
0.0
  0
LINE
  8
0
 62
     250
 10
42.7524
 20
69.2767
 30
0.0
 11
47.3026
 21
69.2767
 31
0.0
  0
LINE
  8
0
 62
     250
 10
47.3026
 20
69.2767
 30
0.0
 11
51.2727
 21
69.2767
 31
0.0
  0
LINE
  8
0
 62
     250
 10
51.2727
 20
69.2767
 30
0.0
 11
54.0812
 21
69.2767
 31
0.0
  0
LINE
  8
0
 62
     250
 10
54.0812
 20
69.2767
 30
0.0
 11
55.1462
 21
69.2767
 31
0.0
  0
LINE
  8
0
 62
     250
 10
55.1462
 20
69.2767
 30
0.0
 11
55.1462
 21
69.2767
 31
0.0
  0
LINE
  8
0
 62
     250
 10
55.1462
 20
69.2767
 30
0.0
 11
56.0077
 21
69.2767
 31
0.0
  0
LINE
  8
0
 62
     250
 10
56.0077
 20
69.2767
 30
0.0
 11
58.5943
 21
68.8936
 31
0.0
  0
LINE
  8
0
 62
     250
 10
58.5943
 20
68.8936
 30
0.0
 11
60.6019
 21
67.8974
 31
0.0
  0
LINE
  8
0
 62
     250
 10
60.6019
 20
67.8974
 30
0.0
 11
60.9106
 21
67.5901
 31
0.0
  0
LINE
  8
0
 62
     250
 10
60.9106
 20
67.5901
 30
0.0
 11
61.1671
 21
67.3336
 31
0.0
  0
LINE
  8
0
 62
     250
 10
61.1671
 20
67.3336
 30
0.0
 11
61.8035
 21
66.427
 31
0.0
  0
LINE
  8
0
 62
     250
 10
61.8035
 20
66.427
 30
0.0
 11
62.3824
 21
64.9552
 31
0.0
  0
LINE
  8
0
 62
     250
 10
62.3824
 20
64.9552
 30
0.0
 11
62.6939
 21
63.004
 31
0.0
  0
LINE
  8
0
 62
     250
 10
62.6939
 20
63.004
 30
0.0
 11
62.7874
 21
61.0528
 31
0.0
  0
LINE
  8
0
 62
     250
 10
62.7874
 20
61.0528
 30
0.0
 11
62.7874
 21
60.4008
 31
0.0
  0
LINE
  8
0
 62
     250
 10
62.7874
 20
60.4008
 30
0.0
 11
62.7874
 21
59.5242
 31
0.0
  0
LINE
  8
0
 62
     250
 10
62.7874
 20
59.5242
 30
0.0
 11
62.4928
 21
56.8911
 31
0.0
  0
LINE
  8
0
 62
     250
 10
62.4928
 20
56.8911
 30
0.0
 11
61.5692
 21
54.6544
 31
0.0
  0
LINE
  8
0
 62
     250
 10
61.5692
 20
54.6544
 30
0.0
 11
59.9504
 21
53.3453
 31
0.0
  0
LINE
  8
0
 62
     250
 10
59.9504
 20
53.3453
 30
0.0
 11
58.1794
 21
52.7389
 31
0.0
  0
LINE
  8
0
 62
     250
 10
58.1794
 20
52.7389
 30
0.0
 11
57.573
 21
52.6189
 31
0.0
  0
LINE
  8
0
 62
     250
 10
57.573
 20
52.6189
 30
0.0
 11
57.573
 21
52.6189
 31
0.0
  0
LINE
  8
0
 62
     250
 10
57.573
 20
52.6189
 30
0.0
 11
57.7811
 21
52.2661
 31
0.0
  0
LINE
  8
0
 62
     250
 10
57.7811
 20
52.2661
 30
0.0
 11
58.3311
 21
51.332
 31
0.0
  0
LINE
  8
0
 62
     250
 10
58.3311
 20
51.332
 30
0.0
 11
59.1069
 21
50.0119
 31
0.0
  0
LINE
  8
0
 62
     250
 10
59.1069
 20
50.0119
 30
0.0
 11
59.9983
 21
48.4988
 31
0.0
  0
LINE
  8
0
 62
     250
 10
59.9983
 20
48.4988
 30
0.0
 11
60.8887
 21
46.9868
 31
0.0
  0
LINE
  8
0
 62
     250
 10
60.8887
 20
46.9868
 30
0.0
 11
61.6659
 21
45.6667
 31
0.0
  0
LINE
  8
0
 62
     250
 10
61.6659
 20
45.6667
 30
0.0
 11
62.2141
 21
44.7326
 31
0.0
  0
LINE
  8
0
 62
     250
 10
62.2141
 20
44.7326
 30
0.0
 11
62.4237
 21
44.3784
 31
0.0
  0
LINE
  8
0
 62
     250
 10
62.4237
 20
44.3784
 30
0.0
 11
62.4237
 21
44.3784
 31
0.0
  0
LINE
  8
0
 62
     250
 10
62.4237
 20
44.3784
 30
0.0
 11
62.4237
 21
44.3784
 31
0.0
  0
LINE
  8
0
 62
     250
 10
62.4237
 20
44.3784
 30
0.0
 11
62.902
 21
44.3784
 31
0.0
  0
LINE
  8
0
 62
     250
 10
62.902
 20
44.3784
 30
0.0
 11
63.9547
 21
44.3784
 31
0.0
  0
LINE
  8
0
 62
     250
 10
63.9547
 20
44.3784
 30
0.0
 11
65.0074
 21
44.3784
 31
0.0
  0
LINE
  8
0
 62
     250
 10
65.0074
 20
44.3784
 30
0.0
 11
65.4872
 21
44.3784
 31
0.0
  0
LINE
  8
0
 62
     250
 10
65.4872
 20
44.3784
 30
0.0
 11
65.4872
 21
44.3784
 31
0.0
  0
LINE
  8
0
 62
     250
 10
65.4872
 20
44.3784
 30
0.0
 11
65.4872
 21
44.3784
 31
0.0
  0
LINE
  8
0
 62
     250
 10
65.4872
 20
44.3784
 30
0.0
 11
65.4872
 21
43.2636
 31
0.0
  0
LINE
  8
0
 62
     250
 10
65.4872
 20
43.2636
 30
0.0
 11
65.4872
 21
40.8107
 31
0.0
  0
LINE
  8
0
 62
     250
 10
65.4872
 20
40.8107
 30
0.0
 11
65.4872
 21
38.3575
 31
0.0
  0
LINE
  8
0
 62
     250
 10
65.4872
 20
38.3575
 30
0.0
 11
65.4872
 21
37.2413
 31
0.0
  0
LINE
  8
0
 62
     250
 10
65.4872
 20
37.2413
 30
0.0
 11
65.4872
 21
37.2413
 31
0.0
  0
LINE
  8
0
 62
     250
 10
65.4872
 20
37.2413
 30
0.0
 11
65.4872
 21
37.2413
 31
0.0
  0
LINE
  8
0
 62
     250
 10
65.4872
 20
37.2413
 30
0.0
 11
65.0614
 21
37.2413
 31
0.0
  0
LINE
  8
0
 62
     250
 10
65.0614
 20
37.2413
 30
0.0
 11
63.941
 21
37.2413
 31
0.0
  0
LINE
  8
0
 62
     250
 10
63.941
 20
37.2413
 30
0.0
 11
62.3563
 21
37.2413
 31
0.0
  0
LINE
  8
0
 62
     250
 10
62.3563
 20
37.2413
 30
0.0
 11
60.5398
 21
37.2413
 31
0.0
  0
LINE
  8
0
 62
     250
 10
60.5398
 20
37.2413
 30
0.0
 11
58.7223
 21
37.2413
 31
0.0
  0
LINE
  8
0
 62
     250
 10
58.7223
 20
37.2413
 30
0.0
 11
57.1377
 21
37.2413
 31
0.0
  0
LINE
  8
0
 62
     250
 10
57.1377
 20
37.2413
 30
0.0
 11
56.0172
 21
37.2413
 31
0.0
  0
LINE
  8
0
 62
     250
 10
56.0172
 20
37.2413
 30
0.0
 11
55.5928
 21
37.2413
 31
0.0
  0
LINE
  8
0
 62
     250
 10
55.5928
 20
37.2413
 30
0.0
 11
55.5928
 21
37.2413
 31
0.0
  0
LINE
  8
0
 62
     250
 10
55.5928
 20
37.2413
 30
0.0
 11
55.5928
 21
37.2413
 31
0.0
  0
LINE
  8
0
 62
     250
 10
55.5928
 20
37.2413
 30
0.0
 11
55.287
 21
37.761
 31
0.0
  0
LINE
  8
0
 62
     250
 10
55.287
 20
37.761
 30
0.0
 11
54.4848
 21
39.1294
 31
0.0
  0
LINE
  8
0
 62
     250
 10
54.4848
 20
39.1294
 30
0.0
 11
53.3495
 21
41.064
 31
0.0
  0
LINE
  8
0
 62
     250
 10
53.3495
 20
41.064
 30
0.0
 11
52.0485
 21
43.2827
 31
0.0
  0
LINE
  8
0
 62
     250
 10
52.0485
 20
43.2827
 30
0.0
 11
50.7464
 21
45.5013
 31
0.0
  0
LINE
  8
0
 62
     250
 10
50.7464
 20
45.5013
 30
0.0
 11
49.6108
 21
47.4363
 31
0.0
  0
LINE
  8
0
 62
     250
 10
49.6108
 20
47.4363
 30
0.0
 11
48.8086
 21
48.8047
 31
0.0
  0
LINE
  8
0
 62
     250
 10
48.8086
 20
48.8047
 30
0.0
 11
48.5041
 21
49.3229
 31
0.0
  0
LINE
  8
0
 62
     250
 10
48.5041
 20
49.3229
 30
0.0
 11
48.5041
 21
49.3229
 31
0.0
  0
LINE
  8
0
 62
     250
 10
48.5041
 20
49.3229
 30
0.0
 11
48.5041
 21
49.3229
 31
0.0
  0
LINE
  8
0
 62
     250
 10
48.5041
 20
49.3229
 30
0.0
 11
48.2727
 21
49.3229
 31
0.0
  0
LINE
  8
0
 62
     250
 10
48.2727
 20
49.3229
 30
0.0
 11
47.6635
 21
49.3229
 31
0.0
  0
LINE
  8
0
 62
     250
 10
47.6635
 20
49.3229
 30
0.0
 11
46.8023
 21
49.3229
 31
0.0
  0
LINE
  8
0
 62
     250
 10
46.8023
 20
49.3229
 30
0.0
 11
45.8156
 21
49.3229
 31
0.0
  0
LINE
  8
0
 62
     250
 10
45.8156
 20
49.3229
 30
0.0
 11
44.8275
 21
49.3229
 31
0.0
  0
LINE
  8
0
 62
     250
 10
44.8275
 20
49.3229
 30
0.0
 11
43.9663
 21
49.3229
 31
0.0
  0
LINE
  8
0
 62
     250
 10
43.9663
 20
49.3229
 30
0.0
 11
43.3571
 21
49.3229
 31
0.0
  0
LINE
  8
0
 62
     250
 10
43.3571
 20
49.3229
 30
0.0
 11
43.1271
 21
49.3229
 31
0.0
  0
LINE
  8
0
 62
     250
 10
43.1271
 20
49.3229
 30
0.0
 11
43.1271
 21
49.3229
 31
0.0
  0
LINE
  8
0
 62
     250
 10
43.1271
 20
49.3229
 30
0.0
 11
43.1271
 21
49.3229
 31
0.0
  0
LINE
  8
0
 62
     250
 10
43.1271
 20
49.3229
 30
0.0
 11
43.1271
 21
49.1105
 31
0.0
  0
LINE
  8
0
 62
     250
 10
43.1271
 20
49.1105
 30
0.0
 11
43.1271
 21
48.551
 31
0.0
  0
LINE
  8
0
 62
     250
 10
43.1271
 20
48.551
 30
0.0
 11
43.1271
 21
47.7587
 31
0.0
  0
LINE
  8
0
 62
     250
 10
43.1271
 20
47.7587
 30
0.0
 11
43.1271
 21
46.8507
 31
0.0
  0
LINE
  8
0
 62
     250
 10
43.1271
 20
46.8507
 30
0.0
 11
43.1271
 21
45.9437
 31
0.0
  0
LINE
  8
0
 62
     250
 10
43.1271
 20
45.9437
 30
0.0
 11
43.1271
 21
45.1513
 31
0.0
  0
LINE
  8
0
 62
     250
 10
43.1271
 20
45.1513
 30
0.0
 11
43.1271
 21
44.5918
 31
0.0
  0
LINE
  8
0
 62
     250
 10
43.1271
 20
44.5918
 30
0.0
 11
43.1271
 21
44.3784
 31
0.0
  0
LINE
  8
0
 62
     250
 10
43.1271
 20
44.3784
 30
0.0
 11
43.1271
 21
44.3784
 31
0.0
  0
LINE
  8
0
 62
     250
 10
43.1271
 20
44.3784
 30
0.0
 11
43.1271
 21
44.3784
 31
0.0
  0
LINE
  8
0
 62
     250
 10
43.1271
 20
44.3784
 30
0.0
 11
43.67
 21
44.3784
 31
0.0
  0
LINE
  8
0
 62
     250
 10
43.67
 20
44.3784
 30
0.0
 11
44.8649
 21
44.3784
 31
0.0
  0
LINE
  8
0
 62
     250
 10
44.8649
 20
44.3784
 30
0.0
 11
46.0583
 21
44.3784
 31
0.0
  0
LINE
  8
0
 62
     250
 10
46.0583
 20
44.3784
 30
0.0
 11
46.6027
 21
44.3784
 31
0.0
  0
LINE
  8
0
 62
     250
 10
46.6027
 20
44.3784
 30
0.0
 11
46.6027
 21
44.3784
 31
0.0
  0
LINE
  8
0
 62
     250
 10
46.6027
 20
44.3784
 30
0.0
 11
46.6027
 21
44.3784
 31
0.0
  0
LINE
  8
0
 62
     250
 10
46.6027
 20
44.3784
 30
0.0
 11
46.6027
 21
43.2636
 31
0.0
  0
LINE
  8
0
 62
     250
 10
46.6027
 20
43.2636
 30
0.0
 11
46.6027
 21
40.8107
 31
0.0
  0
LINE
  8
0
 62
     250
 10
46.6027
 20
40.8107
 30
0.0
 11
46.6027
 21
38.3575
 31
0.0
  0
LINE
  8
0
 62
     250
 10
46.6027
 20
38.3575
 30
0.0
 11
46.6027
 21
37.2413
 31
0.0
  0
LINE
  8
0
 62
     250
 10
46.6027
 20
37.2413
 30
0.0
 11
46.6027
 21
37.2413
 31
0.0
  0
LINE
  8
0
 62
     250
 10
27.7799
 20
37.2413
 30
0.0
 11
27.7799
 21
37.2413
 31
0.0
  0
LINE
  8
0
 62
     250
 10
27.7799
 20
37.2413
 30
0.0
 11
26.5851
 21
37.2413
 31
0.0
  0
LINE
  8
0
 62
     250
 10
26.5851
 20
37.2413
 30
0.0
 11
23.439
 21
37.2413
 31
0.0
  0
LINE
  8
0
 62
     250
 10
23.439
 20
37.2413
 30
0.0
 11
18.9894
 21
37.2413
 31
0.0
  0
LINE
  8
0
 62
     250
 10
18.9894
 20
37.2413
 30
0.0
 11
13.8892
 21
37.2413
 31
0.0
  0
LINE
  8
0
 62
     250
 10
13.8892
 20
37.2413
 30
0.0
 11
8.78914
 21
37.2413
 31
0.0
  0
LINE
  8
0
 62
     250
 10
8.78914
 20
37.2413
 30
0.0
 11
4.33945
 21
37.2413
 31
0.0
  0
LINE
  8
0
 62
     250
 10
4.33945
 20
37.2413
 30
0.0
 11
1.19338
 21
37.2413
 31
0.0
  0
LINE
  8
0
 62
     250
 10
1.19338
 20
37.2413
 30
0.0
 11
0
 21
37.2413
 31
0.0
  0
LINE
  8
0
 62
     250
 10
0
 20
37.2413
 30
0.0
 11
0
 21
37.2413
 31
0.0
  0
LINE
  8
0
 62
     250
 10
0
 20
37.2413
 30
0.0
 11
0
 21
37.2413
 31
0.0
  0
LINE
  8
0
 62
     250
 10
0
 20
37.2413
 30
0.0
 11
0
 21
38.3575
 31
0.0
  0
LINE
  8
0
 62
     250
 10
0
 20
38.3575
 30
0.0
 11
0
 21
40.8107
 31
0.0
  0
LINE
  8
0
 62
     250
 10
0
 20
40.8107
 30
0.0
 11
0
 21
43.2636
 31
0.0
  0
LINE
  8
0
 62
     250
 10
0
 20
43.2636
 30
0.0
 11
0
 21
44.3784
 31
0.0
  0
LINE
  8
0
 62
     250
 10
0
 20
44.3784
 30
0.0
 11
0
 21
44.3784
 31
0.0
  0
LINE
  8
0
 62
     250
 10
0
 20
44.3784
 30
0.0
 11
0
 21
44.3784
 31
0.0
  0
LINE
  8
0
 62
     250
 10
0
 20
44.3784
 30
0.0
 11
0.370692
 21
44.3784
 31
0.0
  0
LINE
  8
0
 62
     250
 10
0.370692
 20
44.3784
 30
0.0
 11
1.34772
 21
44.3784
 31
0.0
  0
LINE
  8
0
 62
     250
 10
1.34772
 20
44.3784
 30
0.0
 11
2.72989
 21
44.3784
 31
0.0
  0
LINE
  8
0
 62
     250
 10
2.72989
 20
44.3784
 30
0.0
 11
4.31602
 21
44.3784
 31
0.0
  0
LINE
  8
0
 62
     250
 10
4.31602
 20
44.3784
 30
0.0
 11
5.90077
 21
44.3784
 31
0.0
  0
LINE
  8
0
 62
     250
 10
5.90077
 20
44.3784
 30
0.0
 11
7.28292
 21
44.3784
 31
0.0
  0
LINE
  8
0
 62
     250
 10
7.28292
 20
44.3784
 30
0.0
 11
8.25997
 21
44.3784
 31
0.0
  0
LINE
  8
0
 62
     250
 10
8.25997
 20
44.3784
 30
0.0
 11
8.63205
 21
44.3784
 31
0.0
  0
LINE
  8
0
 62
     250
 10
8.63205
 20
44.3784
 30
0.0
 11
8.63205
 21
44.3784
 31
0.0
  0
LINE
  8
0
 62
     250
 10
8.63205
 20
44.3784
 30
0.0
 11
8.63205
 21
44.3784
 31
0.0
  0
LINE
  8
0
 62
     250
 10
8.63205
 20
44.3784
 30
0.0
 11
8.63205
 21
45.1418
 31
0.0
  0
LINE
  8
0
 62
     250
 10
8.63205
 20
45.1418
 30
0.0
 11
8.63205
 21
47.1537
 31
0.0
  0
LINE
  8
0
 62
     250
 10
8.63205
 20
47.1537
 30
0.0
 11
8.63205
 21
49.9981
 31
0.0
  0
LINE
  8
0
 62
     250
 10
8.63205
 20
49.9981
 30
0.0
 11
8.63205
 21
53.2585
 31
0.0
  0
LINE
  8
0
 62
     250
 10
8.63205
 20
53.2585
 30
0.0
 11
8.63205
 21
56.5189
 31
0.0
  0
LINE
  8
0
 62
     250
 10
8.63205
 20
56.5189
 30
0.0
 11
8.63205
 21
59.363
 31
0.0
  0
LINE
  8
0
 62
     250
 10
8.63205
 20
59.363
 30
0.0
 11
8.63205
 21
61.3752
 31
0.0
  0
LINE
  8
0
 62
     250
 10
8.63205
 20
61.3752
 30
0.0
 11
8.63205
 21
62.1372
 31
0.0
  0
LINE
  8
0
 62
     250
 10
8.63205
 20
62.1372
 30
0.0
 11
8.63205
 21
62.1372
 31
0.0
  0
LINE
  8
0
 62
     250
 10
8.63205
 20
62.1372
 30
0.0
 11
8.63205
 21
62.1372
 31
0.0
  0
LINE
  8
0
 62
     250
 10
8.63205
 20
62.1372
 30
0.0
 11
8.25997
 21
62.1372
 31
0.0
  0
LINE
  8
0
 62
     250
 10
8.25997
 20
62.1372
 30
0.0
 11
7.28292
 21
62.1372
 31
0.0
  0
LINE
  8
0
 62
     250
 10
7.28292
 20
62.1372
 30
0.0
 11
5.90077
 21
62.1372
 31
0.0
  0
LINE
  8
0
 62
     250
 10
5.90077
 20
62.1372
 30
0.0
 11
4.31602
 21
62.1372
 31
0.0
  0
LINE
  8
0
 62
     250
 10
4.31602
 20
62.1372
 30
0.0
 11
2.72989
 21
62.1372
 31
0.0
  0
LINE
  8
0
 62
     250
 10
2.72989
 20
62.1372
 30
0.0
 11
1.34772
 21
62.1372
 31
0.0
  0
LINE
  8
0
 62
     250
 10
1.34772
 20
62.1372
 30
0.0
 11
0.370692
 21
62.1372
 31
0.0
  0
LINE
  8
0
 62
     250
 10
0.370692
 20
62.1372
 30
0.0
 11
0
 21
62.1372
 31
0.0
  0
LINE
  8
0
 62
     250
 10
0
 20
62.1372
 30
0.0
 11
0
 21
62.1372
 31
0.0
  0
LINE
  8
0
 62
     250
 10
0
 20
62.1372
 30
0.0
 11
0
 21
62.1372
 31
0.0
  0
LINE
  8
0
 62
     250
 10
0
 20
62.1372
 30
0.0
 11
0
 21
63.2534
 31
0.0
  0
LINE
  8
0
 62
     250
 10
0
 20
63.2534
 30
0.0
 11
0
 21
65.7077
 31
0.0
  0
LINE
  8
0
 62
     250
 10
0
 20
65.7077
 30
0.0
 11
0
 21
68.162
 31
0.0
  0
LINE
  8
0
 62
     250
 10
0
 20
68.162
 30
0.0
 11
0
 21
69.2767
 31
0.0
  0
LINE
  8
0
 62
     250
 10
0
 20
69.2767
 30
0.0
 11
0
 21
69.2767
 31
0.0
  0
LINE
  8
0
 62
     250
 10
0
 20
69.2767
 30
0.0
 11
0
 21
69.2767
 31
0.0
  0
LINE
  8
0
 62
     250
 10
0
 20
69.2767
 30
0.0
 11
1.19338
 21
69.2767
 31
0.0
  0
LINE
  8
0
 62
     250
 10
1.19338
 20
69.2767
 30
0.0
 11
4.33945
 21
69.2767
 31
0.0
  0
LINE
  8
0
 62
     250
 10
4.33945
 20
69.2767
 30
0.0
 11
8.78914
 21
69.2767
 31
0.0
  0
LINE
  8
0
 62
     250
 10
8.78914
 20
69.2767
 30
0.0
 11
13.8892
 21
69.2767
 31
0.0
  0
LINE
  8
0
 62
     250
 10
13.8892
 20
69.2767
 30
0.0
 11
18.9894
 21
69.2767
 31
0.0
  0
LINE
  8
0
 62
     250
 10
18.9894
 20
69.2767
 30
0.0
 11
23.439
 21
69.2767
 31
0.0
  0
LINE
  8
0
 62
     250
 10
23.439
 20
69.2767
 30
0.0
 11
26.5851
 21
69.2767
 31
0.0
  0
LINE
  8
0
 62
     250
 10
26.5851
 20
69.2767
 30
0.0
 11
27.7799
 21
69.2767
 31
0.0
  0
LINE
  8
0
 62
     250
 10
27.7799
 20
69.2767
 30
0.0
 11
27.7799
 21
69.2767
 31
0.0
  0
LINE
  8
0
 62
     250
 10
27.7799
 20
69.2767
 30
0.0
 11
27.7799
 21
69.2767
 31
0.0
  0
LINE
  8
0
 62
     250
 10
27.7799
 20
69.2767
 30
0.0
 11
27.7799
 21
68.162
 31
0.0
  0
LINE
  8
0
 62
     250
 10
27.7799
 20
68.162
 30
0.0
 11
27.7799
 21
65.7077
 31
0.0
  0
LINE
  8
0
 62
     250
 10
27.7799
 20
65.7077
 30
0.0
 11
27.7799
 21
63.2534
 31
0.0
  0
LINE
  8
0
 62
     250
 10
27.7799
 20
63.2534
 30
0.0
 11
27.7799
 21
62.1372
 31
0.0
  0
LINE
  8
0
 62
     250
 10
27.7799
 20
62.1372
 30
0.0
 11
27.7799
 21
62.1372
 31
0.0
  0
LINE
  8
0
 62
     250
 10
27.7799
 20
62.1372
 30
0.0
 11
27.7799
 21
62.1372
 31
0.0
  0
LINE
  8
0
 62
     250
 10
27.7799
 20
62.1372
 30
0.0
 11
27.4092
 21
62.1372
 31
0.0
  0
LINE
  8
0
 62
     250
 10
27.4092
 20
62.1372
 30
0.0
 11
26.4322
 21
62.1372
 31
0.0
  0
LINE
  8
0
 62
     250
 10
26.4322
 20
62.1372
 30
0.0
 11
25.05
 21
62.1372
 31
0.0
  0
LINE
  8
0
 62
     250
 10
25.05
 20
62.1372
 30
0.0
 11
23.4666
 21
62.1372
 31
0.0
  0
LINE
  8
0
 62
     250
 10
23.4666
 20
62.1372
 30
0.0
 11
21.8833
 21
62.1372
 31
0.0
  0
LINE
  8
0
 62
     250
 10
21.8833
 20
62.1372
 30
0.0
 11
20.5011
 21
62.1372
 31
0.0
  0
LINE
  8
0
 62
     250
 10
20.5011
 20
62.1372
 30
0.0
 11
19.5241
 21
62.1372
 31
0.0
  0
LINE
  8
0
 62
     250
 10
19.5241
 20
62.1372
 30
0.0
 11
19.1547
 21
62.1372
 31
0.0
  0
LINE
  8
0
 62
     250
 10
19.1547
 20
62.1372
 30
0.0
 11
19.1547
 21
62.1372
 31
0.0
  0
LINE
  8
0
 62
     250
 10
19.1547
 20
62.1372
 30
0.0
 11
19.1547
 21
62.1372
 31
0.0
  0
LINE
  8
0
 62
     250
 10
19.1547
 20
62.1372
 30
0.0
 11
19.1547
 21
61.3752
 31
0.0
  0
LINE
  8
0
 62
     250
 10
19.1547
 20
61.3752
 30
0.0
 11
19.1547
 21
59.363
 31
0.0
  0
LINE
  8
0
 62
     250
 10
19.1547
 20
59.363
 30
0.0
 11
19.1547
 21
56.5189
 31
0.0
  0
LINE
  8
0
 62
     250
 10
19.1547
 20
56.5189
 30
0.0
 11
19.1547
 21
53.2585
 31
0.0
  0
LINE
  8
0
 62
     250
 10
19.1547
 20
53.2585
 30
0.0
 11
19.1547
 21
49.9981
 31
0.0
  0
LINE
  8
0
 62
     250
 10
19.1547
 20
49.9981
 30
0.0
 11
19.1547
 21
47.1537
 31
0.0
  0
LINE
  8
0
 62
     250
 10
19.1547
 20
47.1537
 30
0.0
 11
19.1547
 21
45.1418
 31
0.0
  0
LINE
  8
0
 62
     250
 10
19.1547
 20
45.1418
 30
0.0
 11
19.1547
 21
44.3784
 31
0.0
  0
LINE
  8
0
 62
     250
 10
19.1547
 20
44.3784
 30
0.0
 11
19.1547
 21
44.3784
 31
0.0
  0
LINE
  8
0
 62
     250
 10
19.1547
 20
44.3784
 30
0.0
 11
19.1547
 21
44.3784
 31
0.0
  0
LINE
  8
0
 62
     250
 10
19.1547
 20
44.3784
 30
0.0
 11
19.5241
 21
44.3784
 31
0.0
  0
LINE
  8
0
 62
     250
 10
19.5241
 20
44.3784
 30
0.0
 11
20.5011
 21
44.3784
 31
0.0
  0
LINE
  8
0
 62
     250
 10
20.5011
 20
44.3784
 30
0.0
 11
21.8833
 21
44.3784
 31
0.0
  0
LINE
  8
0
 62
     250
 10
21.8833
 20
44.3784
 30
0.0
 11
23.4666
 21
44.3784
 31
0.0
  0
LINE
  8
0
 62
     250
 10
23.4666
 20
44.3784
 30
0.0
 11
25.05
 21
44.3784
 31
0.0
  0
LINE
  8
0
 62
     250
 10
25.05
 20
44.3784
 30
0.0
 11
26.4322
 21
44.3784
 31
0.0
  0
LINE
  8
0
 62
     250
 10
26.4322
 20
44.3784
 30
0.0
 11
27.4092
 21
44.3784
 31
0.0
  0
LINE
  8
0
 62
     250
 10
27.4092
 20
44.3784
 30
0.0
 11
27.7799
 21
44.3784
 31
0.0
  0
LINE
  8
0
 62
     250
 10
27.7799
 20
44.3784
 30
0.0
 11
27.7799
 21
44.3784
 31
0.0
  0
LINE
  8
0
 62
     250
 10
27.7799
 20
44.3784
 30
0.0
 11
27.7799
 21
44.3784
 31
0.0
  0
LINE
  8
0
 62
     250
 10
27.7799
 20
44.3784
 30
0.0
 11
27.7799
 21
43.2636
 31
0.0
  0
LINE
  8
0
 62
     250
 10
27.7799
 20
43.2636
 30
0.0
 11
27.7799
 21
40.8107
 31
0.0
  0
LINE
  8
0
 62
     250
 10
27.7799
 20
40.8107
 30
0.0
 11
27.7799
 21
38.3575
 31
0.0
  0
LINE
  8
0
 62
     250
 10
27.7799
 20
38.3575
 30
0.0
 11
27.7799
 21
37.2413
 31
0.0
  0
LINE
  8
0
 62
     250
 10
27.7799
 20
37.2413
 30
0.0
 11
27.7799
 21
37.2413
 31
0.0
  0
LINE
  8
0
 62
     250
 10
113.443
 20
37.2428
 30
0.0
 11
113.443
 21
37.2428
 31
0.0
  0
LINE
  8
0
 62
     250
 10
113.443
 20
37.2428
 30
0.0
 11
112.786
 21
37.2428
 31
0.0
  0
LINE
  8
0
 62
     250
 10
112.786
 20
37.2428
 30
0.0
 11
111.055
 21
37.2428
 31
0.0
  0
LINE
  8
0
 62
     250
 10
111.055
 20
37.2428
 30
0.0
 11
108.609
 21
37.2428
 31
0.0
  0
LINE
  8
0
 62
     250
 10
108.609
 20
37.2428
 30
0.0
 11
105.803
 21
37.2428
 31
0.0
  0
LINE
  8
0
 62
     250
 10
105.803
 20
37.2428
 30
0.0
 11
102.997
 21
37.2428
 31
0.0
  0
LINE
  8
0
 62
     250
 10
102.997
 20
37.2428
 30
0.0
 11
100.551
 21
37.2428
 31
0.0
  0
LINE
  8
0
 62
     250
 10
100.551
 20
37.2428
 30
0.0
 11
98.8205
 21
37.2428
 31
0.0
  0
LINE
  8
0
 62
     250
 10
98.8205
 20
37.2428
 30
0.0
 11
98.1646
 21
37.2428
 31
0.0
  0
LINE
  8
0
 62
     250
 10
98.1646
 20
37.2428
 30
0.0
 11
98.1646
 21
37.2428
 31
0.0
  0
LINE
  8
0
 62
     250
 10
98.1646
 20
37.2428
 30
0.0
 11
98.1646
 21
37.2428
 31
0.0
  0
LINE
  8
0
 62
     250
 10
98.1646
 20
37.2428
 30
0.0
 11
98.1646
 21
38.3589
 31
0.0
  0
LINE
  8
0
 62
     250
 10
98.1646
 20
38.3589
 30
0.0
 11
98.1646
 21
40.8122
 31
0.0
  0
LINE
  8
0
 62
     250
 10
98.1646
 20
40.8122
 30
0.0
 11
98.1646
 21
43.2664
 31
0.0
  0
LINE
  8
0
 62
     250
 10
98.1646
 20
43.2664
 30
0.0
 11
98.1646
 21
44.3812
 31
0.0
  0
LINE
  8
0
 62
     250
 10
98.1646
 20
44.3812
 30
0.0
 11
98.1646
 21
44.3812
 31
0.0
  0
LINE
  8
0
 62
     250
 10
98.1646
 20
44.3812
 30
0.0
 11
98.1646
 21
44.3812
 31
0.0
  0
LINE
  8
0
 62
     250
 10
98.1646
 20
44.3812
 30
0.0
 11
98.6924
 21
44.3812
 31
0.0
  0
LINE
  8
0
 62
     250
 10
98.6924
 20
44.3812
 30
0.0
 11
99.8569
 21
44.3812
 31
0.0
  0
LINE
  8
0
 62
     250
 10
99.8569
 20
44.3812
 30
0.0
 11
101.02
 21
44.3812
 31
0.0
  0
LINE
  8
0
 62
     250
 10
101.02
 20
44.3812
 30
0.0
 11
101.549
 21
44.3812
 31
0.0
  0
LINE
  8
0
 62
     250
 10
101.549
 20
44.3812
 30
0.0
 11
101.549
 21
44.3812
 31
0.0
  0
LINE
  8
0
 62
     250
 10
101.549
 20
44.3812
 30
0.0
 11
101.549
 21
44.3812
 31
0.0
  0
LINE
  8
0
 62
     250
 10
101.549
 20
44.3812
 30
0.0
 11
101.549
 21
45.1446
 31
0.0
  0
LINE
  8
0
 62
     250
 10
101.549
 20
45.1446
 30
0.0
 11
101.549
 21
47.1565
 31
0.0
  0
LINE
  8
0
 62
     250
 10
101.549
 20
47.1565
 30
0.0
 11
101.549
 21
50.0006
 31
0.0
  0
LINE
  8
0
 62
     250
 10
101.549
 20
50.0006
 30
0.0
 11
101.549
 21
53.2613
 31
0.0
  0
LINE
  8
0
 62
     250
 10
101.549
 20
53.2613
 30
0.0
 11
101.549
 21
56.5217
 31
0.0
  0
LINE
  8
0
 62
     250
 10
101.549
 20
56.5217
 30
0.0
 11
101.549
 21
59.3658
 31
0.0
  0
LINE
  8
0
 62
     250
 10
101.549
 20
59.3658
 30
0.0
 11
101.549
 21
61.3777
 31
0.0
  0
LINE
  8
0
 62
     250
 10
101.549
 20
61.3777
 30
0.0
 11
101.549
 21
62.14
 31
0.0
  0
LINE
  8
0
 62
     250
 10
101.549
 20
62.14
 30
0.0
 11
101.549
 21
62.14
 31
0.0
  0
LINE
  8
0
 62
     250
 10
101.549
 20
62.14
 30
0.0
 11
101.549
 21
62.14
 31
0.0
  0
LINE
  8
0
 62
     250
 10
101.549
 20
62.14
 30
0.0
 11
101.02
 21
62.14
 31
0.0
  0
LINE
  8
0
 62
     250
 10
101.02
 20
62.14
 30
0.0
 11
99.8569
 21
62.14
 31
0.0
  0
LINE
  8
0
 62
     250
 10
99.8569
 20
62.14
 30
0.0
 11
98.6924
 21
62.14
 31
0.0
  0
LINE
  8
0
 62
     250
 10
98.6924
 20
62.14
 30
0.0
 11
98.1646
 21
62.14
 31
0.0
  0
LINE
  8
0
 62
     250
 10
98.1646
 20
62.14
 30
0.0
 11
98.1646
 21
62.14
 31
0.0
  0
LINE
  8
0
 62
     250
 10
98.1646
 20
62.14
 30
0.0
 11
98.1646
 21
62.14
 31
0.0
  0
LINE
  8
0
 62
     250
 10
98.1646
 20
62.14
 30
0.0
 11
98.1646
 21
63.2562
 31
0.0
  0
LINE
  8
0
 62
     250
 10
98.1646
 20
63.2562
 30
0.0
 11
98.1646
 21
65.7105
 31
0.0
  0
LINE
  8
0
 62
     250
 10
98.1646
 20
65.7105
 30
0.0
 11
98.1646
 21
68.1648
 31
0.0
  0
LINE
  8
0
 62
     250
 10
98.1646
 20
68.1648
 30
0.0
 11
98.1646
 21
69.2796
 31
0.0
  0
LINE
  8
0
 62
     250
 10
98.1646
 20
69.2796
 30
0.0
 11
98.1646
 21
69.2796
 31
0.0
  0
LINE
  8
0
 62
     250
 10
98.1646
 20
69.2796
 30
0.0
 11
98.1646
 21
69.2796
 31
0.0
  0
LINE
  8
0
 62
     250
 10
98.1646
 20
69.2796
 30
0.0
 11
98.7901
 21
69.2796
 31
0.0
  0
LINE
  8
0
 62
     250
 10
98.7901
 20
69.2796
 30
0.0
 11
100.44
 21
69.2796
 31
0.0
  0
LINE
  8
0
 62
     250
 10
100.44
 20
69.2796
 30
0.0
 11
102.773
 21
69.2796
 31
0.0
  0
LINE
  8
0
 62
     250
 10
102.773
 20
69.2796
 30
0.0
 11
105.446
 21
69.2796
 31
0.0
  0
LINE
  8
0
 62
     250
 10
105.446
 20
69.2796
 30
0.0
 11
108.119
 21
69.2796
 31
0.0
  0
LINE
  8
0
 62
     250
 10
108.119
 20
69.2796
 30
0.0
 11
110.453
 21
69.2796
 31
0.0
  0
LINE
  8
0
 62
     250
 10
110.453
 20
69.2796
 30
0.0
 11
112.102
 21
69.2796
 31
0.0
  0
LINE
  8
0
 62
     250
 10
112.102
 20
69.2796
 30
0.0
 11
112.729
 21
69.2796
 31
0.0
  0
LINE
  8
0
 62
     250
 10
112.729
 20
69.2796
 30
0.0
 11
112.729
 21
69.2796
 31
0.0
  0
LINE
  8
0
 62
     250
 10
112.729
 20
69.2796
 30
0.0
 11
112.729
 21
69.2796
 31
0.0
  0
LINE
  8
0
 62
     250
 10
112.729
 20
69.2796
 30
0.0
 11
113.187
 21
68.5768
 31
0.0
  0
LINE
  8
0
 62
     250
 10
113.187
 20
68.5768
 30
0.0
 11
114.392
 21
66.7205
 31
0.0
  0
LINE
  8
0
 62
     250
 10
114.392
 20
66.7205
 30
0.0
 11
116.097
 21
64.0965
 31
0.0
  0
LINE
  8
0
 62
     250
 10
116.097
 20
64.0965
 30
0.0
 11
118.052
 21
61.0884
 31
0.0
  0
LINE
  8
0
 62
     250
 10
118.052
 20
61.0884
 30
0.0
 11
120.008
 21
58.0803
 31
0.0
  0
LINE
  8
0
 62
     250
 10
120.008
 20
58.0803
 30
0.0
 11
121.713
 21
55.4563
 31
0.0
  0
LINE
  8
0
 62
     250
 10
121.713
 20
55.4563
 30
0.0
 11
122.918
 21
53.6004
 31
0.0
  0
LINE
  8
0
 62
     250
 10
122.918
 20
53.6004
 30
0.0
 11
123.377
 21
52.8959
 31
0.0
  0
LINE
  8
0
 62
     250
 10
123.377
 20
52.8959
 30
0.0
 11
123.377
 21
52.8959
 31
0.0
  0
LINE
  8
0
 62
     250
 10
123.377
 20
52.8959
 30
0.0
 11
123.377
 21
52.8959
 31
0.0
  0
LINE
  8
0
 62
     250
 10
123.377
 20
52.8959
 30
0.0
 11
123.377
 21
53.2941
 31
0.0
  0
LINE
  8
0
 62
     250
 10
123.377
 20
53.2941
 30
0.0
 11
123.377
 21
54.3415
 31
0.0
  0
LINE
  8
0
 62
     250
 10
123.377
 20
54.3415
 30
0.0
 11
123.377
 21
55.8214
 31
0.0
  0
LINE
  8
0
 62
     250
 10
123.377
 20
55.8214
 30
0.0
 11
123.377
 21
57.5194
 31
0.0
  0
LINE
  8
0
 62
     250
 10
123.377
 20
57.5194
 30
0.0
 11
123.377
 21
59.2169
 31
0.0
  0
LINE
  8
0
 62
     250
 10
123.377
 20
59.2169
 30
0.0
 11
123.377
 21
60.6972
 31
0.0
  0
LINE
  8
0
 62
     250
 10
123.377
 20
60.6972
 30
0.0
 11
123.377
 21
61.7442
 31
0.0
  0
LINE
  8
0
 62
     250
 10
123.377
 20
61.7442
 30
0.0
 11
123.377
 21
62.1411
 31
0.0
  0
LINE
  8
0
 62
     250
 10
123.377
 20
62.1411
 30
0.0
 11
123.377
 21
62.1411
 31
0.0
  0
LINE
  8
0
 62
     250
 10
123.377
 20
62.1411
 30
0.0
 11
123.377
 21
62.1411
 31
0.0
  0
LINE
  8
0
 62
     250
 10
123.377
 20
62.1411
 30
0.0
 11
122.884
 21
62.1411
 31
0.0
  0
LINE
  8
0
 62
     250
 10
122.884
 20
62.1411
 30
0.0
 11
121.799
 21
62.1411
 31
0.0
  0
LINE
  8
0
 62
     250
 10
121.799
 20
62.1411
 30
0.0
 11
120.713
 21
62.1411
 31
0.0
  0
LINE
  8
0
 62
     250
 10
120.713
 20
62.1411
 30
0.0
 11
120.221
 21
62.1411
 31
0.0
  0
LINE
  8
0
 62
     250
 10
120.221
 20
62.1411
 30
0.0
 11
120.221
 21
62.1411
 31
0.0
  0
LINE
  8
0
 62
     250
 10
120.221
 20
62.1411
 30
0.0
 11
120.221
 21
62.1411
 31
0.0
  0
LINE
  8
0
 62
     250
 10
120.221
 20
62.1411
 30
0.0
 11
120.221
 21
63.2576
 31
0.0
  0
LINE
  8
0
 62
     250
 10
120.221
 20
63.2576
 30
0.0
 11
120.221
 21
65.7119
 31
0.0
  0
LINE
  8
0
 62
     250
 10
120.221
 20
65.7119
 30
0.0
 11
120.221
 21
68.1662
 31
0.0
  0
LINE
  8
0
 62
     250
 10
120.221
 20
68.1662
 30
0.0
 11
120.221
 21
69.281
 31
0.0
  0
LINE
  8
0
 62
     250
 10
120.221
 20
69.281
 30
0.0
 11
120.221
 21
69.281
 31
0.0
  0
LINE
  8
0
 62
     250
 10
120.221
 20
69.281
 30
0.0
 11
120.221
 21
69.281
 31
0.0
  0
LINE
  8
0
 62
     250
 10
120.221
 20
69.281
 30
0.0
 11
120.862
 21
69.281
 31
0.0
  0
LINE
  8
0
 62
     250
 10
120.862
 20
69.281
 30
0.0
 11
122.553
 21
69.281
 31
0.0
  0
LINE
  8
0
 62
     250
 10
122.553
 20
69.281
 30
0.0
 11
124.943
 21
69.281
 31
0.0
  0
LINE
  8
0
 62
     250
 10
124.943
 20
69.281
 30
0.0
 11
127.682
 21
69.281
 31
0.0
  0
LINE
  8
0
 62
     250
 10
127.682
 20
69.281
 30
0.0
 11
130.422
 21
69.281
 31
0.0
  0
LINE
  8
0
 62
     250
 10
130.422
 20
69.281
 30
0.0
 11
132.811
 21
69.281
 31
0.0
  0
LINE
  8
0
 62
     250
 10
132.811
 20
69.281
 30
0.0
 11
134.502
 21
69.281
 31
0.0
  0
LINE
  8
0
 62
     250
 10
134.502
 20
69.281
 30
0.0
 11
135.144
 21
69.281
 31
0.0
  0
LINE
  8
0
 62
     250
 10
135.144
 20
69.281
 30
0.0
 11
135.144
 21
69.281
 31
0.0
  0
LINE
  8
0
 62
     250
 10
135.144
 20
69.281
 30
0.0
 11
135.144
 21
69.281
 31
0.0
  0
LINE
  8
0
 62
     250
 10
135.144
 20
69.281
 30
0.0
 11
135.144
 21
68.1648
 31
0.0
  0
LINE
  8
0
 62
     250
 10
135.144
 20
68.1648
 30
0.0
 11
135.144
 21
65.7091
 31
0.0
  0
LINE
  8
0
 62
     250
 10
135.144
 20
65.7091
 30
0.0
 11
135.144
 21
63.2534
 31
0.0
  0
LINE
  8
0
 62
     250
 10
135.144
 20
63.2534
 30
0.0
 11
135.144
 21
62.1372
 31
0.0
  0
LINE
  8
0
 62
     250
 10
135.144
 20
62.1372
 30
0.0
 11
135.144
 21
62.1372
 31
0.0
  0
LINE
  8
0
 62
     250
 10
135.144
 20
62.1372
 30
0.0
 11
135.144
 21
62.1372
 31
0.0
  0
LINE
  8
0
 62
     250
 10
135.144
 20
62.1372
 30
0.0
 11
134.627
 21
62.1372
 31
0.0
  0
LINE
  8
0
 62
     250
 10
134.627
 20
62.1372
 30
0.0
 11
133.49
 21
62.1372
 31
0.0
  0
LINE
  8
0
 62
     250
 10
133.49
 20
62.1372
 30
0.0
 11
132.354
 21
62.1372
 31
0.0
  0
LINE
  8
0
 62
     250
 10
132.354
 20
62.1372
 30
0.0
 11
131.837
 21
62.1372
 31
0.0
  0
LINE
  8
0
 62
     250
 10
131.837
 20
62.1372
 30
0.0
 11
131.837
 21
62.1372
 31
0.0
  0
LINE
  8
0
 62
     250
 10
131.837
 20
62.1372
 30
0.0
 11
131.837
 21
62.1372
 31
0.0
  0
LINE
  8
0
 62
     250
 10
131.837
 20
62.1372
 30
0.0
 11
131.837
 21
61.0676
 31
0.0
  0
LINE
  8
0
 62
     250
 10
131.837
 20
61.0676
 30
0.0
 11
131.837
 21
58.2482
 31
0.0
  0
LINE
  8
0
 62
     250
 10
131.837
 20
58.2482
 30
0.0
 11
131.837
 21
54.2604
 31
0.0
  0
LINE
  8
0
 62
     250
 10
131.837
 20
54.2604
 30
0.0
 11
131.837
 21
49.6895
 31
0.0
  0
LINE
  8
0
 62
     250
 10
131.837
 20
49.6895
 30
0.0
 11
131.837
 21
45.1196
 31
0.0
  0
LINE
  8
0
 62
     250
 10
131.837
 20
45.1196
 30
0.0
 11
131.837
 21
41.1318
 31
0.0
  0
LINE
  8
0
 62
     250
 10
131.837
 20
41.1318
 30
0.0
 11
131.837
 21
38.3124
 31
0.0
  0
LINE
  8
0
 62
     250
 10
131.837
 20
38.3124
 30
0.0
 11
131.837
 21
37.2413
 31
0.0
  0
LINE
  8
0
 62
     250
 10
131.837
 20
37.2413
 30
0.0
 11
131.837
 21
37.2413
 31
0.0
  0
LINE
  8
0
 62
     250
 10
131.837
 20
37.2413
 30
0.0
 11
131.837
 21
37.2413
 31
0.0
  0
LINE
  8
0
 62
     250
 10
131.837
 20
37.2413
 30
0.0
 11
131.384
 21
37.2413
 31
0.0
  0
LINE
  8
0
 62
     250
 10
131.384
 20
37.2413
 30
0.0
 11
130.19
 21
37.2413
 31
0.0
  0
LINE
  8
0
 62
     250
 10
130.19
 20
37.2413
 30
0.0
 11
128.502
 21
37.2413
 31
0.0
  0
LINE
  8
0
 62
     250
 10
128.502
 20
37.2413
 30
0.0
 11
126.567
 21
37.2413
 31
0.0
  0
LINE
  8
0
 62
     250
 10
126.567
 20
37.2413
 30
0.0
 11
124.633
 21
37.2413
 31
0.0
  0
LINE
  8
0
 62
     250
 10
124.633
 20
37.2413
 30
0.0
 11
122.944
 21
37.2413
 31
0.0
  0
LINE
  8
0
 62
     250
 10
122.944
 20
37.2413
 30
0.0
 11
121.751
 21
37.2413
 31
0.0
  0
LINE
  8
0
 62
     250
 10
121.751
 20
37.2413
 30
0.0
 11
121.299
 21
37.2413
 31
0.0
  0
LINE
  8
0
 62
     250
 10
121.299
 20
37.2413
 30
0.0
 11
121.299
 21
37.2413
 31
0.0
  0
LINE
  8
0
 62
     250
 10
121.299
 20
37.2413
 30
0.0
 11
121.299
 21
37.2413
 31
0.0
  0
LINE
  8
0
 62
     250
 10
121.299
 20
37.2413
 30
0.0
 11
120.814
 21
38.027
 31
0.0
  0
LINE
  8
0
 62
     250
 10
120.814
 20
38.027
 30
0.0
 11
119.535
 21
40.0953
 31
0.0
  0
LINE
  8
0
 62
     250
 10
119.535
 20
40.0953
 30
0.0
 11
117.729
 21
43.0195
 31
0.0
  0
LINE
  8
0
 62
     250
 10
117.729
 20
43.0195
 30
0.0
 11
115.657
 21
46.3709
 31
0.0
  0
LINE
  8
0
 62
     250
 10
115.657
 20
46.3709
 30
0.0
 11
113.586
 21
49.7223
 31
0.0
  0
LINE
  8
0
 62
     250
 10
113.586
 20
49.7223
 30
0.0
 11
111.779
 21
52.6464
 31
0.0
  0
LINE
  8
0
 62
     250
 10
111.779
 20
52.6464
 30
0.0
 11
110.501
 21
54.7151
 31
0.0
  0
LINE
  8
0
 62
     250
 10
110.501
 20
54.7151
 30
0.0
 11
110.017
 21
55.499
 31
0.0
  0
LINE
  8
0
 62
     250
 10
110.017
 20
55.499
 30
0.0
 11
110.017
 21
55.499
 31
0.0
  0
LINE
  8
0
 62
     250
 10
110.017
 20
55.499
 30
0.0
 11
110.017
 21
55.499
 31
0.0
  0
LINE
  8
0
 62
     250
 10
110.017
 20
55.499
 30
0.0
 11
110.017
 21
55.0224
 31
0.0
  0
LINE
  8
0
 62
     250
 10
110.017
 20
55.0224
 30
0.0
 11
110.017
 21
53.7626
 31
0.0
  0
LINE
  8
0
 62
     250
 10
110.017
 20
53.7626
 30
0.0
 11
110.017
 21
51.9825
 31
0.0
  0
LINE
  8
0
 62
     250
 10
110.017
 20
51.9825
 30
0.0
 11
110.017
 21
49.9403
 31
0.0
  0
LINE
  8
0
 62
     250
 10
110.017
 20
49.9403
 30
0.0
 11
110.017
 21
47.8991
 31
0.0
  0
LINE
  8
0
 62
     250
 10
110.017
 20
47.8991
 30
0.0
 11
110.017
 21
46.1186
 31
0.0
  0
LINE
  8
0
 62
     250
 10
110.017
 20
46.1186
 30
0.0
 11
110.017
 21
44.8592
 31
0.0
  0
LINE
  8
0
 62
     250
 10
110.017
 20
44.8592
 30
0.0
 11
110.017
 21
44.3812
 31
0.0
  0
LINE
  8
0
 62
     250
 10
110.017
 20
44.3812
 30
0.0
 11
110.017
 21
44.3812
 31
0.0
  0
LINE
  8
0
 62
     250
 10
110.017
 20
44.3812
 30
0.0
 11
110.017
 21
44.3812
 31
0.0
  0
LINE
  8
0
 62
     250
 10
110.017
 20
44.3812
 30
0.0
 11
110.545
 21
44.3812
 31
0.0
  0
LINE
  8
0
 62
     250
 10
110.545
 20
44.3812
 30
0.0
 11
111.708
 21
44.3812
 31
0.0
  0
LINE
  8
0
 62
     250
 10
111.708
 20
44.3812
 30
0.0
 11
112.869
 21
44.3812
 31
0.0
  0
LINE
  8
0
 62
     250
 10
112.869
 20
44.3812
 30
0.0
 11
113.399
 21
44.3812
 31
0.0
  0
LINE
  8
0
 62
     250
 10
113.399
 20
44.3812
 30
0.0
 11
113.399
 21
44.3812
 31
0.0
  0
LINE
  8
0
 62
     250
 10
113.399
 20
44.3812
 30
0.0
 11
113.399
 21
44.3812
 31
0.0
  0
LINE
  8
0
 62
     250
 10
113.399
 20
44.3812
 30
0.0
 11
113.406
 21
43.2664
 31
0.0
  0
LINE
  8
0
 62
     250
 10
113.406
 20
43.2664
 30
0.0
 11
113.421
 21
40.8122
 31
0.0
  0
LINE
  8
0
 62
     250
 10
113.421
 20
40.8122
 30
0.0
 11
113.436
 21
38.3589
 31
0.0
  0
LINE
  8
0
 62
     250
 10
113.436
 20
38.3589
 30
0.0
 11
113.443
 21
37.2428
 31
0.0
  0
LINE
  8
0
 62
     250
 10
113.443
 20
37.2428
 30
0.0
 11
113.443
 21
37.2428
 31
0.0
  0
LINE
  8
0
 62
     250
 10
83.8094
 20
61.9538
 30
0.0
 11
83.8094
 21
61.9538
 31
0.0
  0
LINE
  8
0
 62
     250
 10
83.8094
 20
61.9538
 30
0.0
 11
83.6112
 21
61.9538
 31
0.0
  0
LINE
  8
0
 62
     250
 10
83.6112
 20
61.9538
 30
0.0
 11
83.0873
 21
61.9538
 31
0.0
  0
LINE
  8
0
 62
     250
 10
83.0873
 20
61.9538
 30
0.0
 11
82.3475
 21
61.9538
 31
0.0
  0
LINE
  8
0
 62
     250
 10
82.3475
 20
61.9538
 30
0.0
 11
81.4998
 21
61.9538
 31
0.0
  0
LINE
  8
0
 62
     250
 10
81.4998
 20
61.9538
 30
0.0
 11
80.6524
 21
61.9538
 31
0.0
  0
LINE
  8
0
 62
     250
 10
80.6524
 20
61.9538
 30
0.0
 11
79.9123
 21
61.9538
 31
0.0
  0
LINE
  8
0
 62
     250
 10
79.9123
 20
61.9538
 30
0.0
 11
79.3888
 21
61.9538
 31
0.0
  0
LINE
  8
0
 62
     250
 10
79.3888
 20
61.9538
 30
0.0
 11
79.1916
 21
61.9538
 31
0.0
  0
LINE
  8
0
 62
     250
 10
79.1916
 20
61.9538
 30
0.0
 11
79.1916
 21
61.9538
 31
0.0
  0
LINE
  8
0
 62
     250
 10
79.1916
 20
61.9538
 30
0.0
 11
78.9739
 21
61.9538
 31
0.0
  0
LINE
  8
0
 62
     250
 10
78.9739
 20
61.9538
 30
0.0
 11
78.3223
 21
61.9347
 31
0.0
  0
LINE
  8
0
 62
     250
 10
78.3223
 20
61.9347
 30
0.0
 11
77.7296
 21
61.8726
 31
0.0
  0
LINE
  8
0
 62
     250
 10
77.7296
 20
61.8726
 30
0.0
 11
77.3409
 21
61.7594
 31
0.0
  0
LINE
  8
0
 62
     250
 10
77.3409
 20
61.7594
 30
0.0
 11
77.1412
 21
61.6398
 31
0.0
  0
LINE
  8
0
 62
     250
 10
77.1412
 20
61.6398
 30
0.0
 11
77.0876
 21
61.5872
 31
0.0
  0
LINE
  8
0
 62
     250
 10
77.0876
 20
61.5872
 30
0.0
 11
77.0075
 21
61.5075
 31
0.0
  0
LINE
  8
0
 62
     250
 10
77.0075
 20
61.5075
 30
0.0
 11
76.8657
 21
61.1353
 31
0.0
  0
LINE
  8
0
 62
     250
 10
76.8657
 20
61.1353
 30
0.0
 11
76.6907
 21
59.9295
 31
0.0
  0
LINE
  8
0
 62
     250
 10
76.6907
 20
59.9295
 30
0.0
 11
76.5761
 21
57.4696
 31
0.0
  0
LINE
  8
0
 62
     250
 10
76.5761
 20
57.4696
 30
0.0
 11
76.5348
 21
54.314
 31
0.0
  0
LINE
  8
0
 62
     250
 10
76.5348
 20
54.314
 30
0.0
 11
76.5348
 21
53.2613
 31
0.0
  0
LINE
  8
0
 62
     250
 10
76.5348
 20
53.2613
 30
0.0
 11
76.5348
 21
52.2041
 31
0.0
  0
LINE
  8
0
 62
     250
 10
76.5348
 20
52.2041
 30
0.0
 11
76.575
 21
49.0319
 31
0.0
  0
LINE
  8
0
 62
     250
 10
76.575
 20
49.0319
 30
0.0
 11
76.6893
 21
46.5737
 31
0.0
  0
LINE
  8
0
 62
     250
 10
76.6893
 20
46.5737
 30
0.0
 11
76.8643
 21
45.3775
 31
0.0
  0
LINE
  8
0
 62
     250
 10
76.8643
 20
45.3775
 30
0.0
 11
77.0061
 21
45.0109
 31
0.0
  0
LINE
  8
0
 62
     250
 10
77.0061
 20
45.0109
 30
0.0
 11
77.0876
 21
44.9308
 31
0.0
  0
LINE
  8
0
 62
     250
 10
77.0876
 20
44.9308
 30
0.0
 11
77.1398
 21
44.8786
 31
0.0
  0
LINE
  8
0
 62
     250
 10
77.1398
 20
44.8786
 30
0.0
 11
77.3409
 21
44.7559
 31
0.0
  0
LINE
  8
0
 62
     250
 10
77.3409
 20
44.7559
 30
0.0
 11
77.7311
 21
44.6416
 31
0.0
  0
LINE
  8
0
 62
     250
 10
77.7311
 20
44.6416
 30
0.0
 11
78.3237
 21
44.5809
 31
0.0
  0
LINE
  8
0
 62
     250
 10
78.3237
 20
44.5809
 30
0.0
 11
78.9739
 21
44.5615
 31
0.0
  0
LINE
  8
0
 62
     250
 10
78.9739
 20
44.5615
 30
0.0
 11
79.1916
 21
44.5615
 31
0.0
  0
LINE
  8
0
 62
     250
 10
79.1916
 20
44.5615
 30
0.0
 11
79.1916
 21
44.5615
 31
0.0
  0
LINE
  8
0
 62
     250
 10
79.1916
 20
44.5615
 30
0.0
 11
79.3888
 21
44.5615
 31
0.0
  0
LINE
  8
0
 62
     250
 10
79.3888
 20
44.5615
 30
0.0
 11
79.9123
 21
44.5615
 31
0.0
  0
LINE
  8
0
 62
     250
 10
79.9123
 20
44.5615
 30
0.0
 11
80.6524
 21
44.5615
 31
0.0
  0
LINE
  8
0
 62
     250
 10
80.6524
 20
44.5615
 30
0.0
 11
81.4998
 21
44.5615
 31
0.0
  0
LINE
  8
0
 62
     250
 10
81.4998
 20
44.5615
 30
0.0
 11
82.3475
 21
44.5615
 31
0.0
  0
LINE
  8
0
 62
     250
 10
82.3475
 20
44.5615
 30
0.0
 11
83.0873
 21
44.5615
 31
0.0
  0
LINE
  8
0
 62
     250
 10
83.0873
 20
44.5615
 30
0.0
 11
83.6112
 21
44.5615
 31
0.0
  0
LINE
  8
0
 62
     250
 10
83.6112
 20
44.5615
 30
0.0
 11
83.8094
 21
44.5615
 31
0.0
  0
LINE
  8
0
 62
     250
 10
83.8094
 20
44.5615
 30
0.0
 11
83.8094
 21
44.5615
 31
0.0
  0
LINE
  8
0
 62
     250
 10
83.8094
 20
44.5615
 30
0.0
 11
84.026
 21
44.5615
 31
0.0
  0
LINE
  8
0
 62
     250
 10
84.026
 20
44.5615
 30
0.0
 11
84.6776
 21
44.5809
 31
0.0
  0
LINE
  8
0
 62
     250
 10
84.6776
 20
44.5809
 30
0.0
 11
85.2717
 21
44.6416
 31
0.0
  0
LINE
  8
0
 62
     250
 10
85.2717
 20
44.6416
 30
0.0
 11
85.6601
 21
44.7559
 31
0.0
  0
LINE
  8
0
 62
     250
 10
85.6601
 20
44.7559
 30
0.0
 11
85.8615
 21
44.8786
 31
0.0
  0
LINE
  8
0
 62
     250
 10
85.8615
 20
44.8786
 30
0.0
 11
85.9151
 21
44.9308
 31
0.0
  0
LINE
  8
0
 62
     250
 10
85.9151
 20
44.9308
 30
0.0
 11
85.9938
 21
45.0123
 31
0.0
  0
LINE
  8
0
 62
     250
 10
85.9938
 20
45.0123
 30
0.0
 11
86.1342
 21
45.3842
 31
0.0
  0
LINE
  8
0
 62
     250
 10
86.1342
 20
45.3842
 30
0.0
 11
86.3092
 21
46.5914
 31
0.0
  0
LINE
  8
0
 62
     250
 10
86.3092
 20
46.5914
 30
0.0
 11
86.4235
 21
49.0513
 31
0.0
  0
LINE
  8
0
 62
     250
 10
86.4235
 20
49.0513
 30
0.0
 11
86.4665
 21
52.2097
 31
0.0
  0
LINE
  8
0
 62
     250
 10
86.4665
 20
52.2097
 30
0.0
 11
86.4665
 21
53.2613
 31
0.0
  0
LINE
  8
0
 62
     250
 10
86.4665
 20
53.2613
 30
0.0
 11
86.4665
 21
54.314
 31
0.0
  0
LINE
  8
0
 62
     250
 10
86.4665
 20
54.314
 30
0.0
 11
86.4249
 21
57.4696
 31
0.0
  0
LINE
  8
0
 62
     250
 10
86.4249
 20
57.4696
 30
0.0
 11
86.3106
 21
59.9295
 31
0.0
  0
LINE
  8
0
 62
     250
 10
86.3106
 20
59.9295
 30
0.0
 11
86.1356
 21
61.1353
 31
0.0
  0
LINE
  8
0
 62
     250
 10
86.1356
 20
61.1353
 30
0.0
 11
85.9952
 21
61.5075
 31
0.0
  0
LINE
  8
0
 62
     250
 10
85.9952
 20
61.5075
 30
0.0
 11
85.9151
 21
61.5872
 31
0.0
  0
LINE
  8
0
 62
     250
 10
85.9151
 20
61.5872
 30
0.0
 11
85.8601
 21
61.6398
 31
0.0
  0
LINE
  8
0
 62
     250
 10
85.8601
 20
61.6398
 30
0.0
 11
85.659
 21
61.7594
 31
0.0
  0
LINE
  8
0
 62
     250
 10
85.659
 20
61.7594
 30
0.0
 11
85.2703
 21
61.8726
 31
0.0
  0
LINE
  8
0
 62
     250
 10
85.2703
 20
61.8726
 30
0.0
 11
84.6762
 21
61.9347
 31
0.0
  0
LINE
  8
0
 62
     250
 10
84.6762
 20
61.9347
 30
0.0
 11
84.026
 21
61.9538
 31
0.0
  0
LINE
  8
0
 62
     250
 10
84.026
 20
61.9538
 30
0.0
 11
83.8094
 21
61.9538
 31
0.0
  0
LINE
  8
0
 62
     250
 10
50.2916
 20
62.2268
 30
0.0
 11
50.2916
 21
62.2268
 31
0.0
  0
LINE
  8
0
 62
     250
 10
50.2916
 20
62.2268
 30
0.0
 11
49.1712
 21
62.2268
 31
0.0
  0
LINE
  8
0
 62
     250
 10
49.1712
 20
62.2268
 30
0.0
 11
46.7085
 21
62.2268
 31
0.0
  0
LINE
  8
0
 62
     250
 10
46.7085
 20
62.2268
 30
0.0
 11
44.2461
 21
62.2268
 31
0.0
  0
LINE
  8
0
 62
     250
 10
44.2461
 20
62.2268
 30
0.0
 11
43.1271
 21
62.2268
 31
0.0
  0
LINE
  8
0
 62
     250
 10
43.1271
 20
62.2268
 30
0.0
 11
43.1271
 21
62.2268
 31
0.0
  0
LINE
  8
0
 62
     250
 10
43.1271
 20
62.2268
 30
0.0
 11
43.1271
 21
62.2268
 31
0.0
  0
LINE
  8
0
 62
     250
 10
43.1271
 20
62.2268
 30
0.0
 11
43.1271
 21
61.2401
 31
0.0
  0
LINE
  8
0
 62
     250
 10
43.1271
 20
61.2401
 30
0.0
 11
43.1271
 21
59.0684
 31
0.0
  0
LINE
  8
0
 62
     250
 10
43.1271
 20
59.0684
 30
0.0
 11
43.1271
 21
56.8978
 31
0.0
  0
LINE
  8
0
 62
     250
 10
43.1271
 20
56.8978
 30
0.0
 11
43.1271
 21
55.9096
 31
0.0
  0
LINE
  8
0
 62
     250
 10
43.1271
 20
55.9096
 30
0.0
 11
43.1271
 21
55.9096
 31
0.0
  0
LINE
  8
0
 62
     250
 10
43.1271
 20
55.9096
 30
0.0
 11
43.1271
 21
55.9096
 31
0.0
  0
LINE
  8
0
 62
     250
 10
43.1271
 20
55.9096
 30
0.0
 11
44.2461
 21
55.9096
 31
0.0
  0
LINE
  8
0
 62
     250
 10
44.2461
 20
55.9096
 30
0.0
 11
46.7099
 21
55.9096
 31
0.0
  0
LINE
  8
0
 62
     250
 10
46.7099
 20
55.9096
 30
0.0
 11
49.174
 21
55.9096
 31
0.0
  0
LINE
  8
0
 62
     250
 10
49.174
 20
55.9096
 30
0.0
 11
50.2941
 21
55.9096
 31
0.0
  0
LINE
  8
0
 62
     250
 10
50.2941
 20
55.9096
 30
0.0
 11
50.2941
 21
55.9096
 31
0.0
  0
LINE
  8
0
 62
     250
 10
50.2941
 20
55.9096
 30
0.0
 11
50.5065
 21
55.9096
 31
0.0
  0
LINE
  8
0
 62
     250
 10
50.5065
 20
55.9096
 30
0.0
 11
51.1447
 21
55.929
 31
0.0
  0
LINE
  8
0
 62
     250
 10
51.1447
 20
55.929
 30
0.0
 11
51.7412
 21
55.9911
 31
0.0
  0
LINE
  8
0
 62
     250
 10
51.7412
 20
55.9911
 30
0.0
 11
52.1409
 21
56.1054
 31
0.0
  0
LINE
  8
0
 62
     250
 10
52.1409
 20
56.1054
 30
0.0
 11
52.3448
 21
56.2254
 31
0.0
  0
LINE
  8
0
 62
     250
 10
52.3448
 20
56.2254
 30
0.0
 11
52.3984
 21
56.279
 31
0.0
  0
LINE
  8
0
 62
     250
 10
52.3984
 20
56.279
 30
0.0
 11
52.4757
 21
56.3658
 31
0.0
  0
LINE
  8
0
 62
     250
 10
52.4757
 20
56.3658
 30
0.0
 11
52.6493
 21
56.6759
 31
0.0
  0
LINE
  8
0
 62
     250
 10
52.6493
 20
56.6759
 30
0.0
 11
52.8024
 21
57.2273
 31
0.0
  0
LINE
  8
0
 62
     250
 10
52.8024
 20
57.2273
 30
0.0
 11
52.8796
 21
58.003
 31
0.0
  0
LINE
  8
0
 62
     250
 10
52.8796
 20
58.003
 30
0.0
 11
52.9015
 21
58.8024
 31
0.0
  0
LINE
  8
0
 62
     250
 10
52.9015
 20
58.8024
 30
0.0
 11
52.9015
 21
59.0684
 31
0.0
  0
LINE
  8
0
 62
     250
 10
52.9015
 20
59.0684
 30
0.0
 11
52.9015
 21
59.3369
 31
0.0
  0
LINE
  8
0
 62
     250
 10
52.9015
 20
59.3369
 30
0.0
 11
52.8796
 21
60.1391
 31
0.0
  0
LINE
  8
0
 62
     250
 10
52.8796
 20
60.1391
 30
0.0
 11
52.8024
 21
60.9134
 31
0.0
  0
LINE
  8
0
 62
     250
 10
52.8024
 20
60.9134
 30
0.0
 11
52.6493
 21
61.4634
 31
0.0
  0
LINE
  8
0
 62
     250
 10
52.6493
 20
61.4634
 30
0.0
 11
52.4743
 21
61.7721
 31
0.0
  0
LINE
  8
0
 62
     250
 10
52.4743
 20
61.7721
 30
0.0
 11
52.3984
 21
61.8575
 31
0.0
  0
LINE
  8
0
 62
     250
 10
52.3984
 20
61.8575
 30
0.0
 11
52.3448
 21
61.9125
 31
0.0
  0
LINE
  8
0
 62
     250
 10
52.3448
 20
61.9125
 30
0.0
 11
52.1409
 21
62.0339
 31
0.0
  0
LINE
  8
0
 62
     250
 10
52.1409
 20
62.0339
 30
0.0
 11
51.7398
 21
62.1482
 31
0.0
  0
LINE
  8
0
 62
     250
 10
51.7398
 20
62.1482
 30
0.0
 11
51.1418
 21
62.2088
 31
0.0
  0
LINE
  8
0
 62
     250
 10
51.1418
 20
62.2088
 30
0.0
 11
50.5037
 21
62.2268
 31
0.0
  0
LINE
  8
0
 62
     250
 10
50.5037
 20
62.2268
 30
0.0
 11
50.2916
 21
62.2268
 31
0.0
  0
LINE
  8
0
 62
     250
 10
40.6658
 20
104.611
 30
0.0
 11
41.3784
 21
104.92
 31
0.0
  0
LINE
  8
0
 62
     250
 10
41.3784
 20
104.92
 30
0.0
 11
43.7074
 21
105.41
 31
0.0
  0
LINE
  8
0
 62
     250
 10
43.7074
 20
105.41
 30
0.0
 11
47.4003
 21
105.649
 31
0.0
  0
LINE
  8
0
 62
     250
 10
47.4003
 20
105.649
 30
0.0
 11
51.7151
 21
105.596
 31
0.0
  0
LINE
  8
0
 62
     250
 10
51.7151
 20
105.596
 30
0.0
 11
55.3932
 21
105.519
 31
0.0
  0
LINE
  8
0
 62
     250
 10
55.3932
 20
105.519
 30
0.0
 11
56.6194
 21
105.519
 31
0.0
  0
LINE
  8
0
 62
     250
 10
56.6194
 20
105.519
 30
0.0
 11
58.1339
 21
105.519
 31
0.0
  0
LINE
  8
0
 62
     250
 10
58.1339
 20
105.519
 30
0.0
 11
62.6773
 21
105.562
 31
0.0
  0
LINE
  8
0
 62
     250
 10
62.6773
 20
105.562
 30
0.0
 11
68.5257
 21
105.675
 31
0.0
  0
LINE
  8
0
 62
     250
 10
68.5257
 20
105.675
 30
0.0
 11
73.987
 21
105.832
 31
0.0
  0
LINE
  8
0
 62
     250
 10
73.987
 20
105.832
 30
0.0
 11
78.8913
 21
106.014
 31
0.0
  0
LINE
  8
0
 62
     250
 10
78.8913
 20
106.014
 30
0.0
 11
83.0654
 21
106.196
 31
0.0
  0
LINE
  8
0
 62
     250
 10
83.0654
 20
106.196
 30
0.0
 11
86.3367
 21
106.353
 31
0.0
  0
LINE
  8
0
 62
     250
 10
86.3367
 20
106.353
 30
0.0
 11
88.5306
 21
106.466
 31
0.0
  0
LINE
  8
0
 62
     250
 10
88.5306
 20
106.466
 30
0.0
 11
89.2404
 21
106.507
 31
0.0
  0
LINE
  8
0
 62
     250
 10
89.2404
 20
106.507
 30
0.0
 11
89.4775
 21
106.507
 31
0.0
  0
LINE
  8
0
 62
     250
 10
89.4775
 20
106.507
 30
0.0
 11
89.516
 21
106.507
 31
0.0
  0
LINE
  8
0
 62
     250
 10
89.516
 20
106.507
 30
0.0
 11
89.6359
 21
106.521
 31
0.0
  0
LINE
  8
0
 62
     250
 10
89.6359
 20
106.521
 30
0.0
 11
89.8028
 21
106.533
 31
0.0
  0
LINE
  8
0
 62
     250
 10
89.8028
 20
106.533
 30
0.0
 11
90.0162
 21
106.506
 31
0.0
  0
LINE
  8
0
 62
     250
 10
90.0162
 20
106.506
 30
0.0
 11
90.3168
 21
106.4
 31
0.0
  0
LINE
  8
0
 62
     250
 10
90.3168
 20
106.4
 30
0.0
 11
90.744
 21
106.175
 31
0.0
  0
LINE
  8
0
 62
     250
 10
90.744
 20
106.175
 30
0.0
 11
91.3363
 21
105.793
 31
0.0
  0
LINE
  8
0
 62
     250
 10
91.3363
 20
105.793
 30
0.0
 11
92.1343
 21
105.216
 31
0.0
  0
LINE
  8
0
 62
     250
 10
92.1343
 20
105.216
 30
0.0
 11
92.9199
 21
104.61
 31
0.0
  0
LINE
  8
0
 62
     250
 10
92.9199
 20
104.61
 30
0.0
 11
93.1788
 21
104.403
 31
0.0
  0
LINE
  8
0
 62
     250
 10
93.1788
 20
104.403
 30
0.0
 11
93.2864
 21
104.312
 31
0.0
  0
LINE
  8
0
 62
     250
 10
93.2864
 20
104.312
 30
0.0
 11
93.6322
 21
104.059
 31
0.0
  0
LINE
  8
0
 62
     250
 10
93.6322
 20
104.059
 30
0.0
 11
94.1888
 21
103.631
 31
0.0
  0
LINE
  8
0
 62
     250
 10
94.1888
 20
103.631
 30
0.0
 11
94.6602
 21
103.17
 31
0.0
  0
LINE
  8
0
 62
     250
 10
94.6602
 20
103.17
 30
0.0
 11
94.8602
 21
102.835
 31
0.0
  0
LINE
  8
0
 62
     250
 10
94.8602
 20
102.835
 30
0.0
 11
94.8602
 21
102.722
 31
0.0
  0
LINE
  8
0
 62
     250
 10
94.8602
 20
102.722
 30
0.0
 11
94.8602
 21
102.649
 31
0.0
  0
LINE
  8
0
 62
     250
 10
94.8602
 20
102.649
 30
0.0
 11
94.6161
 21
102.43
 31
0.0
  0
LINE
  8
0
 62
     250
 10
94.6161
 20
102.43
 30
0.0
 11
94.011
 21
102.187
 31
0.0
  0
LINE
  8
0
 62
     250
 10
94.011
 20
102.187
 30
0.0
 11
93.2367
 21
102.003
 31
0.0
  0
LINE
  8
0
 62
     250
 10
93.2367
 20
102.003
 30
0.0
 11
92.6716
 21
101.907
 31
0.0
  0
LINE
  8
0
 62
     250
 10
92.6716
 20
101.907
 30
0.0
 11
92.4828
 21
101.885
 31
0.0
  0
LINE
  8
0
 62
     250
 10
92.4828
 20
101.885
 30
0.0
 11
91.8436
 21
101.811
 31
0.0
  0
LINE
  8
0
 62
     250
 10
91.8436
 20
101.811
 30
0.0
 11
88.2385
 21
101.46
 31
0.0
  0
LINE
  8
0
 62
     250
 10
88.2385
 20
101.46
 30
0.0
 11
84.3209
 21
101.141
 31
0.0
  0
LINE
  8
0
 62
     250
 10
84.3209
 20
101.141
 30
0.0
 11
83.5258
 21
101.083
 31
0.0
  0
LINE
  8
0
 62
     250
 10
83.5258
 20
101.083
 30
0.0
 11
82.9194
 21
100.915
 31
0.0
  0
LINE
  8
0
 62
     250
 10
82.9194
 20
100.915
 30
0.0
 11
80.301
 21
99.5853
 31
0.0
  0
LINE
  8
0
 62
     250
 10
80.301
 20
99.5853
 30
0.0
 11
78.1526
 21
97.893
 31
0.0
  0
LINE
  8
0
 62
     250
 10
78.1526
 20
97.893
 30
0.0
 11
77.7833
 21
97.5416
 31
0.0
  0
LINE
  8
0
 62
     250
 10
77.7833
 20
97.5416
 30
0.0
 11
76.9786
 21
96.7768
 31
0.0
  0
LINE
  8
0
 62
     250
 10
76.9786
 20
96.7768
 30
0.0
 11
74.5024
 21
94.5459
 31
0.0
  0
LINE
  8
0
 62
     250
 10
74.5024
 20
94.5459
 30
0.0
 11
71.8538
 21
92.2736
 31
0.0
  0
LINE
  8
0
 62
     250
 10
71.8538
 20
92.2736
 30
0.0
 11
69.9301
 21
90.6392
 31
0.0
  0
LINE
  8
0
 62
     250
 10
69.9301
 20
90.6392
 30
0.0
 11
69.0467
 21
89.8331
 31
0.0
  0
LINE
  8
0
 62
     250
 10
69.0467
 20
89.8331
 30
0.0
 11
68.8248
 21
89.5519
 31
0.0
  0
LINE
  8
0
 62
     250
 10
68.8248
 20
89.5519
 30
0.0
 11
69.2132
 21
89.7435
 31
0.0
  0
LINE
  8
0
 62
     250
 10
69.2132
 20
89.7435
 30
0.0
 11
70.3735
 21
90.3277
 31
0.0
  0
LINE
  8
0
 62
     250
 10
70.3735
 20
90.3277
 30
0.0
 11
71.7035
 21
90.9465
 31
0.0
  0
LINE
  8
0
 62
     250
 10
71.7035
 20
90.9465
 30
0.0
 11
72.9477
 21
91.3557
 31
0.0
  0
LINE
  8
0
 62
     250
 10
72.9477
 20
91.3557
 30
0.0
 11
73.9193
 21
91.5031
 31
0.0
  0
LINE
  8
0
 62
     250
 10
73.9193
 20
91.5031
 30
0.0
 11
74.2446
 21
91.5031
 31
0.0
  0
LINE
  8
0
 62
     250
 10
74.2446
 20
91.5031
 30
0.0
 11
74.4802
 21
91.5031
 31
0.0
  0
LINE
  8
0
 62
     250
 10
74.4802
 20
91.5031
 30
0.0
 11
75.1886
 21
91.3074
 31
0.0
  0
LINE
  8
0
 62
     250
 10
75.1886
 20
91.3074
 30
0.0
 11
76.2081
 21
90.7673
 31
0.0
  0
LINE
  8
0
 62
     250
 10
76.2081
 20
90.7673
 30
0.0
 11
77.0227
 21
89.9569
 31
0.0
  0
LINE
  8
0
 62
     250
 10
77.0227
 20
89.9569
 30
0.0
 11
77.3575
 21
89.203
 31
0.0
  0
LINE
  8
0
 62
     250
 10
77.3575
 20
89.203
 30
0.0
 11
77.3575
 21
88.9512
 31
0.0
  0
LINE
  8
0
 62
     250
 10
77.3575
 20
88.9512
 30
0.0
 11
77.3575
 21
88.8213
 31
0.0
  0
LINE
  8
0
 62
     250
 10
77.3575
 20
88.8213
 30
0.0
 11
77.2114
 21
88.4329
 31
0.0
  0
LINE
  8
0
 62
     250
 10
77.2114
 20
88.4329
 30
0.0
 11
76.769
 21
87.9658
 31
0.0
  0
LINE
  8
0
 62
     250
 10
76.769
 20
87.9658
 30
0.0
 11
76.6202
 21
87.8346
 31
0.0
  0
LINE
  8
0
 62
     250
 10
76.6202
 20
87.8346
 30
0.0
 11
76.4261
 21
87.6695
 31
0.0
  0
LINE
  8
0
 62
     250
 10
76.4261
 20
87.6695
 30
0.0
 11
75.8363
 21
87.1774
 31
0.0
  0
LINE
  8
0
 62
     250
 10
75.8363
 20
87.1774
 30
0.0
 11
74.815
 21
86.3215
 31
0.0
  0
LINE
  8
0
 62
     250
 10
74.815
 20
86.3215
 30
0.0
 11
73.6604
 21
85.3295
 31
0.0
  0
LINE
  8
0
 62
     250
 10
73.6604
 20
85.3295
 30
0.0
 11
72.4778
 21
84.2603
 31
0.0
  0
LINE
  8
0
 62
     250
 10
72.4778
 20
84.2603
 30
0.0
 11
71.3754
 21
83.1744
 31
0.0
  0
LINE
  8
0
 62
     250
 10
71.3754
 20
83.1744
 30
0.0
 11
70.4564
 21
82.1323
 31
0.0
  0
LINE
  8
0
 62
     250
 10
70.4564
 20
82.1323
 30
0.0
 11
69.8281
 21
81.1967
 31
0.0
  0
LINE
  8
0
 62
     250
 10
69.8281
 20
81.1967
 30
0.0
 11
69.5949
 21
80.6178
 31
0.0
  0
LINE
  8
0
 62
     250
 10
69.5949
 20
80.6178
 30
0.0
 11
69.5949
 21
80.4238
 31
0.0
  0
LINE
  8
0
 62
     250
 10
69.5949
 20
80.4238
 30
0.0
 11
69.5949
 21
80.33
 31
0.0
  0
LINE
  8
0
 62
     250
 10
69.5949
 20
80.33
 30
0.0
 11
69.7301
 21
80.0474
 31
0.0
  0
LINE
  8
0
 62
     250
 10
69.7301
 20
80.0474
 30
0.0
 11
69.9714
 21
79.9373
 31
0.0
  0
LINE
  8
0
 62
     250
 10
69.9714
 20
79.9373
 30
0.0
 11
70.0525
 21
79.9373
 31
0.0
  0
LINE
  8
0
 62
     250
 10
70.0525
 20
79.9373
 30
0.0
 11
70.2455
 21
79.9373
 31
0.0
  0
LINE
  8
0
 62
     250
 10
70.2455
 20
79.9373
 30
0.0
 11
70.8258
 21
80.1867
 31
0.0
  0
LINE
  8
0
 62
     250
 10
70.8258
 20
80.1867
 30
0.0
 11
71.9998
 21
80.851
 31
0.0
  0
LINE
  8
0
 62
     250
 10
71.9998
 20
80.851
 30
0.0
 11
73.4219
 21
81.8099
 31
0.0
  0
LINE
  8
0
 62
     250
 10
73.4219
 20
81.8099
 30
0.0
 11
74.5684
 21
82.652
 31
0.0
  0
LINE
  8
0
 62
     250
 10
74.5684
 20
82.652
 30
0.0
 11
74.9434
 21
82.9412
 31
0.0
  0
LINE
  8
0
 62
     250
 10
74.9434
 20
82.9412
 30
0.0
 11
75.1777
 21
83.1219
 31
0.0
  0
LINE
  8
0
 62
     250
 10
75.1777
 20
83.1219
 30
0.0
 11
75.8197
 21
83.7449
 31
0.0
  0
LINE
  8
0
 62
     250
 10
75.8197
 20
83.7449
 30
0.0
 11
76.6258
 21
84.6653
 31
0.0
  0
LINE
  8
0
 62
     250
 10
76.6258
 20
84.6653
 30
0.0
 11
77.2791
 21
85.5183
 31
0.0
  0
LINE
  8
0
 62
     250
 10
77.2791
 20
85.5183
 30
0.0
 11
77.6041
 21
85.9801
 31
0.0
  0
LINE
  8
0
 62
     250
 10
77.6041
 20
85.9801
 30
0.0
 11
77.6937
 21
86.1148
 31
0.0
  0
LINE
  8
0
 62
     250
 10
77.6937
 20
86.1148
 30
0.0
 11
77.9431
 21
86.4898
 31
0.0
  0
LINE
  8
0
 62
     250
 10
77.9431
 20
86.4898
 30
0.0
 11
79.4314
 21
88.2798
 31
0.0
  0
LINE
  8
0
 62
     250
 10
79.4314
 20
88.2798
 30
0.0
 11
81.1308
 21
89.9626
 31
0.0
  0
LINE
  8
0
 62
     250
 10
81.1308
 20
89.9626
 30
0.0
 11
81.4874
 21
90.2836
 31
0.0
  0
LINE
  8
0
 62
     250
 10
81.4874
 20
90.2836
 30
0.0
 11
81.9616
 21
90.7108
 31
0.0
  0
LINE
  8
0
 62
     250
 10
81.9616
 20
90.7108
 30
0.0
 11
83.4566
 21
91.9138
 31
0.0
  0
LINE
  8
0
 62
     250
 10
83.4566
 20
91.9138
 30
0.0
 11
85.1655
 21
93.0437
 31
0.0
  0
LINE
  8
0
 62
     250
 10
85.1655
 20
93.0437
 30
0.0
 11
86.5999
 21
93.7024
 31
0.0
  0
LINE
  8
0
 62
     250
 10
86.5999
 20
93.7024
 30
0.0
 11
87.46
 21
93.9161
 31
0.0
  0
LINE
  8
0
 62
     250
 10
87.46
 20
93.9161
 30
0.0
 11
87.7478
 21
93.9161
 31
0.0
  0
LINE
  8
0
 62
     250
 10
87.7478
 20
93.9161
 30
0.0
 11
87.8939
 21
93.9161
 31
0.0
  0
LINE
  8
0
 62
     250
 10
87.8939
 20
93.9161
 30
0.0
 11
88.3363
 21
93.7867
 31
0.0
  0
LINE
  8
0
 62
     250
 10
88.3363
 20
93.7867
 30
0.0
 11
88.9854
 21
93.4268
 31
0.0
  0
LINE
  8
0
 62
     250
 10
88.9854
 20
93.4268
 30
0.0
 11
89.662
 21
92.8839
 31
0.0
  0
LINE
  8
0
 62
     250
 10
89.662
 20
92.8839
 30
0.0
 11
90.176
 21
92.3794
 31
0.0
  0
LINE
  8
0
 62
     250
 10
90.176
 20
92.3794
 30
0.0
 11
90.3358
 21
92.2002
 31
0.0
  0
LINE
  8
0
 62
     250
 10
90.3358
 20
92.2002
 30
0.0
 11
90.5302
 21
92.0214
 31
0.0
  0
LINE
  8
0
 62
     250
 10
90.5302
 20
92.0214
 30
0.0
 11
91.0759
 21
91.4344
 31
0.0
  0
LINE
  8
0
 62
     250
 10
91.0759
 20
91.4344
 30
0.0
 11
91.4837
 21
90.8389
 31
0.0
  0
LINE
  8
0
 62
     250
 10
91.4837
 20
90.8389
 30
0.0
 11
91.6573
 21
90.3746
 31
0.0
  0
LINE
  8
0
 62
     250
 10
91.6573
 20
90.3746
 30
0.0
 11
91.6947
 21
90.0963
 31
0.0
  0
LINE
  8
0
 62
     250
 10
91.6947
 20
90.0963
 30
0.0
 11
91.6947
 21
90.0024
 31
0.0
  0
LINE
  8
0
 62
     250
 10
91.6947
 20
90.0024
 30
0.0
 11
91.6947
 21
89.6744
 31
0.0
  0
LINE
  8
0
 62
     250
 10
91.6947
 20
89.6744
 30
0.0
 11
91.4411
 21
88.689
 31
0.0
  0
LINE
  8
0
 62
     250
 10
91.4411
 20
88.689
 30
0.0
 11
90.7521
 21
87.3181
 31
0.0
  0
LINE
  8
0
 62
     250
 10
90.7521
 20
87.3181
 30
0.0
 11
89.7308
 21
85.9592
 31
0.0
  0
LINE
  8
0
 62
     250
 10
89.7308
 20
85.9592
 30
0.0
 11
88.4837
 21
84.6861
 31
0.0
  0
LINE
  8
0
 62
     250
 10
88.4837
 20
84.6861
 30
0.0
 11
87.1128
 21
83.5699
 31
0.0
  0
LINE
  8
0
 62
     250
 10
87.1128
 20
83.5699
 30
0.0
 11
85.7236
 21
82.6837
 31
0.0
  0
LINE
  8
0
 62
     250
 10
85.7236
 20
82.6837
 30
0.0
 11
84.4201
 21
82.0995
 31
0.0
  0
LINE
  8
0
 62
     250
 10
84.4201
 20
82.0995
 30
0.0
 11
83.5865
 21
81.8871
 31
0.0
  0
LINE
  8
0
 62
     250
 10
83.5865
 20
81.8871
 30
0.0
 11
83.3092
 21
81.8871
 31
0.0
  0
LINE
  8
0
 62
     250
 10
83.3092
 20
81.8871
 30
0.0
 11
82.9924
 21
81.8871
 31
0.0
  0
LINE
  8
0
 62
     250
 10
82.9924
 20
81.8871
 30
0.0
 11
82.0441
 21
82.1986
 31
0.0
  0
LINE
  8
0
 62
     250
 10
82.0441
 20
82.1986
 30
0.0
 11
80.9487
 21
82.9137
 31
0.0
  0
LINE
  8
0
 62
     250
 10
80.9487
 20
82.9137
 30
0.0
 11
80.7572
 21
83.1162
 31
0.0
  0
LINE
  8
0
 62
     250
 10
80.7572
 20
83.1162
 30
0.0
 11
80.5903
 21
82.8643
 31
0.0
  0
LINE
  8
0
 62
     250
 10
80.5903
 20
82.8643
 30
0.0
 11
79.9814
 21
81.715
 31
0.0
  0
LINE
  8
0
 62
     250
 10
79.9814
 20
81.715
 30
0.0
 11
79.7045
 21
80.88
 31
0.0
  0
LINE
  8
0
 62
     250
 10
79.7045
 20
80.88
 30
0.0
 11
79.7045
 21
80.6002
 31
0.0
  0
LINE
  8
0
 62
     250
 10
79.7045
 20
80.6002
 30
0.0
 11
79.7045
 21
80.4912
 31
0.0
  0
LINE
  8
0
 62
     250
 10
79.7045
 20
80.4912
 30
0.0
 11
79.7648
 21
80.1617
 31
0.0
  0
LINE
  8
0
 62
     250
 10
79.7648
 20
80.1617
 30
0.0
 11
79.9828
 21
79.7429
 31
0.0
  0
LINE
  8
0
 62
     250
 10
79.9828
 20
79.7429
 30
0.0
 11
80.4016
 21
79.4272
 31
0.0
  0
LINE
  8
0
 62
     250
 10
80.4016
 20
79.4272
 30
0.0
 11
80.9032
 21
79.3034
 31
0.0
  0
LINE
  8
0
 62
     250
 10
80.9032
 20
79.3034
 30
0.0
 11
81.0715
 21
79.3034
 31
0.0
  0
LINE
  8
0
 62
     250
 10
81.0715
 20
79.3034
 30
0.0
 11
81.3167
 21
79.3034
 31
0.0
  0
LINE
  8
0
 62
     250
 10
81.3167
 20
79.3034
 30
0.0
 11
82.0568
 21
79.4286
 31
0.0
  0
LINE
  8
0
 62
     250
 10
82.0568
 20
79.4286
 30
0.0
 11
82.7828
 21
79.6188
 31
0.0
  0
LINE
  8
0
 62
     250
 10
82.7828
 20
79.6188
 30
0.0
 11
82.8904
 21
79.6519
 31
0.0
  0
LINE
  8
0
 62
     250
 10
82.8904
 20
79.6519
 30
0.0
 11
83.9692
 21
80.0488
 31
0.0
  0
LINE
  8
0
 62
     250
 10
83.9692
 20
80.0488
 30
0.0
 11
87.1142
 21
81.4959
 31
0.0
  0
LINE
  8
0
 62
     250
 10
87.1142
 20
81.4959
 30
0.0
 11
90.1996
 21
83.2626
 31
0.0
  0
LINE
  8
0
 62
     250
 10
90.1996
 20
83.2626
 30
0.0
 11
92.148
 21
84.588
 31
0.0
  0
LINE
  8
0
 62
     250
 10
92.148
 20
84.588
 30
0.0
 11
92.7559
 21
85.1105
 31
0.0
  0
LINE
  8
0
 62
     250
 10
92.7559
 20
85.1105
 30
0.0
 11
92.9598
 21
85.1105
 31
0.0
  0
LINE
  8
0
 62
     250
 10
92.9598
 20
85.1105
 30
0.0
 11
93.0233
 21
85.1105
 31
0.0
  0
LINE
  8
0
 62
     250
 10
93.0233
 20
85.1105
 30
0.0
 11
93.2145
 21
84.9863
 31
0.0
  0
LINE
  8
0
 62
     250
 10
93.2145
 20
84.9863
 30
0.0
 11
93.2656
 21
84.8184
 31
0.0
  0
LINE
  8
0
 62
     250
 10
93.2656
 20
84.8184
 30
0.0
 11
93.2656
 21
84.7619
 31
0.0
  0
LINE
  8
0
 62
     250
 10
93.2656
 20
84.7619
 30
0.0
 11
93.2656
 21
84.6391
 31
0.0
  0
LINE
  8
0
 62
     250
 10
93.2656
 20
84.6391
 30
0.0
 11
93.0243
 21
84.2684
 31
0.0
  0
LINE
  8
0
 62
     250
 10
93.0243
 20
84.2684
 30
0.0
 11
92.3879
 21
83.4595
 31
0.0
  0
LINE
  8
0
 62
     250
 10
92.3879
 20
83.4595
 30
0.0
 11
91.4823
 21
82.4784
 31
0.0
  0
LINE
  8
0
 62
     250
 10
91.4823
 20
82.4784
 30
0.0
 11
90.7052
 21
81.715
 31
0.0
  0
LINE
  8
0
 62
     250
 10
90.7052
 20
81.715
 30
0.0
 11
90.4364
 21
81.4709
 31
0.0
  0
LINE
  8
0
 62
     250
 10
90.4364
 20
81.4709
 30
0.0
 11
89.9389
 21
81.0161
 31
0.0
  0
LINE
  8
0
 62
     250
 10
89.9389
 20
81.0161
 30
0.0
 11
88.3666
 21
79.7373
 31
0.0
  0
LINE
  8
0
 62
     250
 10
88.3666
 20
79.7373
 30
0.0
 11
86.046
 21
78.201
 31
0.0
  0
LINE
  8
0
 62
     250
 10
86.046
 20
78.201
 30
0.0
 11
83.5614
 21
77.1028
 31
0.0
  0
LINE
  8
0
 62
     250
 10
83.5614
 20
77.1028
 30
0.0
 11
81.6434
 21
76.6822
 31
0.0
  0
LINE
  8
0
 62
     250
 10
81.6434
 20
76.6822
 30
0.0
 11
81.0038
 21
76.6822
 31
0.0
  0
LINE
  8
0
 62
     250
 10
81.0038
 20
76.6822
 30
0.0
 11
80.8468
 21
76.6822
 31
0.0
  0
LINE
  8
0
 62
     250
 10
80.8468
 20
76.6822
 30
0.0
 11
80.3755
 21
76.8311
 31
0.0
  0
LINE
  8
0
 62
     250
 10
80.3755
 20
76.8311
 30
0.0
 11
79.6452
 21
77.2336
 31
0.0
  0
LINE
  8
0
 62
     250
 10
79.6452
 20
77.2336
 30
0.0
 11
78.8691
 21
77.8288
 31
0.0
  0
LINE
  8
0
 62
     250
 10
78.8691
 20
77.8288
 30
0.0
 11
78.1004
 21
78.5537
 31
0.0
  0
LINE
  8
0
 62
     250
 10
78.1004
 20
78.5537
 30
0.0
 11
77.392
 21
79.3503
 31
0.0
  0
LINE
  8
0
 62
     250
 10
77.392
 20
79.3503
 30
0.0
 11
76.7994
 21
80.1522
 31
0.0
  0
LINE
  8
0
 62
     250
 10
76.7994
 20
80.1522
 30
0.0
 11
76.3764
 21
80.9004
 31
0.0
  0
LINE
  8
0
 62
     250
 10
76.3764
 20
80.9004
 30
0.0
 11
76.1972
 21
81.3717
 31
0.0
  0
LINE
  8
0
 62
     250
 10
76.1972
 20
81.3717
 30
0.0
 11
76.1781
 21
81.5329
 31
0.0
  0
LINE
  8
0
 62
     250
 10
76.1781
 20
81.5329
 30
0.0
 11
75.7424
 21
81.1318
 31
0.0
  0
LINE
  8
0
 62
     250
 10
75.7424
 20
81.1318
 30
0.0
 11
74.3687
 21
79.9994
 31
0.0
  0
LINE
  8
0
 62
     250
 10
74.3687
 20
79.9994
 30
0.0
 11
72.3388
 21
78.5343
 31
0.0
  0
LINE
  8
0
 62
     250
 10
72.3388
 20
78.5343
 30
0.0
 11
70.4
 21
77.4361
 31
0.0
  0
LINE
  8
0
 62
     250
 10
70.4
 20
77.4361
 30
0.0
 11
69.2478
 21
77.0033
 31
0.0
  0
LINE
  8
0
 62
     250
 10
69.2478
 20
77.0033
 30
0.0
 11
68.8647
 21
77.0033
 31
0.0
  0
LINE
  8
0
 62
     250
 10
68.8647
 20
77.0033
 30
0.0
 11
68.5366
 21
77.0033
 31
0.0
  0
LINE
  8
0
 62
     250
 10
68.5366
 20
77.0033
 30
0.0
 11
67.5555
 21
77.4139
 31
0.0
  0
LINE
  8
0
 62
     250
 10
67.5555
 20
77.4139
 30
0.0
 11
66.6157
 21
78.4447
 31
0.0
  0
LINE
  8
0
 62
     250
 10
66.6157
 20
78.4447
 30
0.0
 11
66.0495
 21
79.8036
 31
0.0
  0
LINE
  8
0
 62
     250
 10
66.0495
 20
79.8036
 30
0.0
 11
65.8594
 21
80.8454
 31
0.0
  0
LINE
  8
0
 62
     250
 10
65.8594
 20
80.8454
 30
0.0
 11
65.8594
 21
81.1925
 31
0.0
  0
LINE
  8
0
 62
     250
 10
65.8594
 20
81.1925
 30
0.0
 11
65.8594
 21
81.6211
 31
0.0
  0
LINE
  8
0
 62
     250
 10
65.8594
 20
81.6211
 30
0.0
 11
66.3166
 21
82.907
 31
0.0
  0
LINE
  8
0
 62
     250
 10
66.3166
 20
82.907
 30
0.0
 11
67.5033
 21
84.7065
 31
0.0
  0
LINE
  8
0
 62
     250
 10
67.5033
 20
84.7065
 30
0.0
 11
69.1335
 21
86.5325
 31
0.0
  0
LINE
  8
0
 62
     250
 10
69.1335
 20
86.5325
 30
0.0
 11
70.4755
 21
87.8801
 31
0.0
  0
LINE
  8
0
 62
     250
 10
70.4755
 20
87.8801
 30
0.0
 11
70.9263
 21
88.3253
 31
0.0
  0
LINE
  8
0
 62
     250
 10
70.9263
 20
88.3253
 30
0.0
 11
70.3696
 21
88.0897
 31
0.0
  0
LINE
  8
0
 62
     250
 10
70.3696
 20
88.0897
 30
0.0
 11
68.7945
 21
87.1541
 31
0.0
  0
LINE
  8
0
 62
     250
 10
68.7945
 20
87.1541
 30
0.0
 11
66.3967
 21
85.2607
 31
0.0
  0
LINE
  8
0
 62
     250
 10
66.3967
 20
85.2607
 30
0.0
 11
63.5977
 21
82.4689
 31
0.0
  0
LINE
  8
0
 62
     250
 10
63.5977
 20
82.4689
 30
0.0
 11
61.0718
 21
79.5927
 31
0.0
  0
LINE
  8
0
 62
     250
 10
61.0718
 20
79.5927
 30
0.0
 11
60.2643
 21
78.6059
 31
0.0
  0
LINE
  8
0
 62
     250
 10
60.2643
 20
78.6059
 30
0.0
 11
60.1941
 21
78.5276
 31
0.0
  0
LINE
  8
0
 62
     250
 10
60.1941
 20
78.5276
 30
0.0
 11
60.0026
 21
78.2077
 31
0.0
  0
LINE
  8
0
 62
     250
 10
60.0026
 20
78.2077
 30
0.0
 11
59.6731
 21
77.6344
 31
0.0
  0
LINE
  8
0
 62
     250
 10
59.6731
 20
77.6344
 30
0.0
 11
59.3231
 21
77.1204
 31
0.0
  0
LINE
  8
0
 62
     250
 10
59.3231
 20
77.1204
 30
0.0
 11
59.0832
 21
76.8974
 31
0.0
  0
LINE
  8
0
 62
     250
 10
59.0832
 20
76.8974
 30
0.0
 11
59.0049
 21
76.8974
 31
0.0
  0
LINE
  8
0
 62
     250
 10
59.0049
 20
76.8974
 30
0.0
 11
58.9248
 21
76.8974
 31
0.0
  0
LINE
  8
0
 62
     250
 10
58.9248
 20
76.8974
 30
0.0
 11
58.6853
 21
76.98
 31
0.0
  0
LINE
  8
0
 62
     250
 10
58.6853
 20
76.98
 30
0.0
 11
58.2595
 21
77.2072
 31
0.0
  0
LINE
  8
0
 62
     250
 10
58.2595
 20
77.2072
 30
0.0
 11
57.7716
 21
77.5533
 31
0.0
  0
LINE
  8
0
 62
     250
 10
57.7716
 20
77.5533
 30
0.0
 11
57.2685
 21
77.9861
 31
0.0
  0
LINE
  8
0
 62
     250
 10
57.2685
 20
77.9861
 30
0.0
 11
56.7972
 21
78.4807
 31
0.0
  0
LINE
  8
0
 62
     250
 10
56.7972
 20
78.4807
 30
0.0
 11
56.4032
 21
79.0071
 31
0.0
  0
LINE
  8
0
 62
     250
 10
56.4032
 20
79.0071
 30
0.0
 11
56.1315
 21
79.5362
 31
0.0
  0
LINE
  8
0
 62
     250
 10
56.1315
 20
79.5362
 30
0.0
 11
56.0324
 21
79.9151
 31
0.0
  0
LINE
  8
0
 62
     250
 10
56.0324
 20
79.9151
 30
0.0
 11
56.0324
 21
80.0407
 31
0.0
  0
LINE
  8
0
 62
     250
 10
56.0324
 20
80.0407
 30
0.0
 11
56.0324
 21
80.1289
 31
0.0
  0
LINE
  8
0
 62
     250
 10
56.0324
 20
80.1289
 30
0.0
 11
56.1111
 21
80.3906
 31
0.0
  0
LINE
  8
0
 62
     250
 10
56.1111
 20
80.3906
 30
0.0
 11
56.2956
 21
80.7642
 31
0.0
  0
LINE
  8
0
 62
     250
 10
56.2956
 20
80.7642
 30
0.0
 11
56.3481
 21
80.8411
 31
0.0
  0
LINE
  8
0
 62
     250
 10
56.3481
 20
80.8411
 30
0.0
 11
56.7821
 21
81.4765
 31
0.0
  0
LINE
  8
0
 62
     250
 10
56.7821
 20
81.4765
 30
0.0
 11
58.1865
 21
83.312
 31
0.0
  0
LINE
  8
0
 62
     250
 10
58.1865
 20
83.312
 30
0.0
 11
60.3733
 21
85.9109
 31
0.0
  0
LINE
  8
0
 62
     250
 10
60.3733
 20
85.9109
 30
0.0
 11
62.8124
 21
88.5733
 31
0.0
  0
LINE
  8
0
 62
     250
 10
62.8124
 20
88.5733
 30
0.0
 11
65.4057
 21
91.2357
 31
0.0
  0
LINE
  8
0
 62
     250
 10
65.4057
 20
91.2357
 30
0.0
 11
68.0558
 21
93.8361
 31
0.0
  0
LINE
  8
0
 62
     250
 10
68.0558
 20
93.8361
 30
0.0
 11
70.666
 21
96.3083
 31
0.0
  0
LINE
  8
0
 62
     250
 10
70.666
 20
96.3083
 30
0.0
 11
73.1393
 21
98.589
 31
0.0
  0
LINE
  8
0
 62
     250
 10
73.1393
 20
98.589
 30
0.0
 11
74.8164
 21
100.11
 31
0.0
  0
LINE
  8
0
 62
     250
 10
74.8164
 20
100.11
 30
0.0
 11
75.3787
 21
100.613
 31
0.0
  0
LINE
  8
0
 62
     250
 10
75.3787
 20
100.613
 30
0.0
 11
75.0245
 21
100.598
 31
0.0
  0
LINE
  8
0
 62
     250
 10
75.0245
 20
100.598
 30
0.0
 11
73.4039
 21
100.543
 31
0.0
  0
LINE
  8
0
 62
     250
 10
73.4039
 20
100.543
 30
0.0
 11
72.2175
 21
100.518
 31
0.0
  0
LINE
  8
0
 62
     250
 10
72.2175
 20
100.518
 30
0.0
 11
71.8234
 21
100.518
 31
0.0
  0
LINE
  8
0
 62
     250
 10
71.8234
 20
100.518
 30
0.0
 11
71.5328
 21
100.518
 31
0.0
  0
LINE
  8
0
 62
     250
 10
71.5328
 20
100.518
 30
0.0
 11
70.6617
 21
100.079
 31
0.0
  0
LINE
  8
0
 62
     250
 10
70.6617
 20
100.079
 30
0.0
 11
68.9875
 21
98.9376
 31
0.0
  0
LINE
  8
0
 62
     250
 10
68.9875
 20
98.9376
 30
0.0
 11
67.0691
 21
97.3624
 31
0.0
  0
LINE
  8
0
 62
     250
 10
67.0691
 20
97.3624
 30
0.0
 11
65.6389
 21
96.0699
 31
0.0
  0
LINE
  8
0
 62
     250
 10
65.6389
 20
96.0699
 30
0.0
 11
65.1785
 21
95.6236
 31
0.0
  0
LINE
  8
0
 62
     250
 10
65.1785
 20
95.6236
 30
0.0
 11
64.8684
 21
95.323
 31
0.0
  0
LINE
  8
0
 62
     250
 10
64.8684
 20
95.323
 30
0.0
 11
63.9424
 21
94.4192
 31
0.0
  0
LINE
  8
0
 62
     250
 10
63.9424
 20
94.4192
 30
0.0
 11
62.3866
 21
92.8825
 31
0.0
  0
LINE
  8
0
 62
     250
 10
62.3866
 20
92.8825
 30
0.0
 11
60.5896
 21
91.0759
 31
0.0
  0
LINE
  8
0
 62
     250
 10
60.5896
 20
91.0759
 30
0.0
 11
58.6299
 21
89.057
 31
0.0
  0
LINE
  8
0
 62
     250
 10
58.6299
 20
89.057
 30
0.0
 11
56.5877
 21
86.8881
 31
0.0
  0
LINE
  8
0
 62
     250
 10
56.5877
 20
86.8881
 30
0.0
 11
54.5402
 21
84.6268
 31
0.0
  0
LINE
  8
0
 62
     250
 10
54.5402
 20
84.6268
 30
0.0
 11
52.5667
 21
82.3337
 31
0.0
  0
LINE
  8
0
 62
     250
 10
52.5667
 20
82.3337
 30
0.0
 11
51.1888
 21
80.6443
 31
0.0
  0
LINE
  8
0
 62
     250
 10
51.1888
 20
80.6443
 30
0.0
 11
50.7464
 21
80.0682
 31
0.0
  0
LINE
  8
0
 62
     250
 10
50.7464
 20
80.0682
 30
0.0
 11
50.516
 21
79.7719
 31
0.0
  0
LINE
  8
0
 62
     250
 10
50.516
 20
79.7719
 30
0.0
 11
49.8588
 21
78.8582
 31
0.0
  0
LINE
  8
0
 62
     250
 10
49.8588
 20
78.8582
 30
0.0
 11
49.2153
 21
77.8577
 31
0.0
  0
LINE
  8
0
 62
     250
 10
49.2153
 20
77.8577
 30
0.0
 11
48.7659
 21
77.0516
 31
0.0
  0
LINE
  8
0
 62
     250
 10
48.7659
 20
77.0516
 30
0.0
 11
48.4671
 21
76.4261
 31
0.0
  0
LINE
  8
0
 62
     250
 10
48.4671
 20
76.4261
 30
0.0
 11
48.2727
 21
75.9658
 31
0.0
  0
LINE
  8
0
 62
     250
 10
48.2727
 20
75.9658
 30
0.0
 11
48.1334
 21
75.6557
 31
0.0
  0
LINE
  8
0
 62
     250
 10
48.1334
 20
75.6557
 30
0.0
 11
48.0053
 21
75.4793
 31
0.0
  0
LINE
  8
0
 62
     250
 10
48.0053
 20
75.4793
 30
0.0
 11
47.8825
 21
75.4242
 31
0.0
  0
LINE
  8
0
 62
     250
 10
47.8825
 20
75.4242
 30
0.0
 11
47.8427
 21
75.4242
 31
0.0
  0
LINE
  8
0
 62
     250
 10
47.8427
 20
75.4242
 30
0.0
 11
47.7008
 21
75.4242
 31
0.0
  0
LINE
  8
0
 62
     250
 10
47.7008
 20
75.4242
 30
0.0
 11
47.2765
 21
75.6049
 31
0.0
  0
LINE
  8
0
 62
     250
 10
47.2765
 20
75.6049
 30
0.0
 11
46.6563
 21
76.0871
 31
0.0
  0
LINE
  8
0
 62
     250
 10
46.6563
 20
76.0871
 30
0.0
 11
46.0209
 21
76.7842
 31
0.0
  0
LINE
  8
0
 62
     250
 10
46.0209
 20
76.7842
 30
0.0
 11
45.4106
 21
77.6055
 31
0.0
  0
LINE
  8
0
 62
     250
 10
45.4106
 20
77.6055
 30
0.0
 11
44.8663
 21
78.4655
 31
0.0
  0
LINE
  8
0
 62
     250
 10
44.8663
 20
78.4655
 30
0.0
 11
44.4281
 21
79.2745
 31
0.0
  0
LINE
  8
0
 62
     250
 10
44.4281
 20
79.2745
 30
0.0
 11
44.1357
 21
79.944
 31
0.0
  0
LINE
  8
0
 62
     250
 10
44.1357
 20
79.944
 30
0.0
 11
44.0298
 21
80.2763
 31
0.0
  0
LINE
  8
0
 62
     250
 10
44.0298
 20
80.2763
 30
0.0
 11
44.0298
 21
80.3864
 31
0.0
  0
LINE
  8
0
 62
     250
 10
44.0298
 20
80.3864
 30
0.0
 11
44.0298
 21
80.6358
 31
0.0
  0
LINE
  8
0
 62
     250
 10
44.0298
 20
80.6358
 30
0.0
 11
44.3068
 21
81.3827
 31
0.0
  0
LINE
  8
0
 62
     250
 10
44.3068
 20
81.3827
 30
0.0
 11
45.0674
 21
82.6604
 31
0.0
  0
LINE
  8
0
 62
     250
 10
45.0674
 20
82.6604
 30
0.0
 11
46.1987
 21
84.1403
 31
0.0
  0
LINE
  8
0
 62
     250
 10
46.1987
 20
84.1403
 30
0.0
 11
47.5904
 21
85.7416
 31
0.0
  0
LINE
  8
0
 62
     250
 10
47.5904
 20
85.7416
 30
0.0
 11
49.1314
 21
87.3841
 31
0.0
  0
LINE
  8
0
 62
     250
 10
49.1314
 20
87.3841
 30
0.0
 11
50.7104
 21
88.9868
 31
0.0
  0
LINE
  8
0
 62
     250
 10
50.7104
 20
88.9868
 30
0.0
 11
52.2168
 21
90.4695
 31
0.0
  0
LINE
  8
0
 62
     250
 10
52.2168
 20
90.4695
 30
0.0
 11
53.2088
 21
91.4329
 31
0.0
  0
LINE
  8
0
 62
     250
 10
53.2088
 20
91.4329
 30
0.0
 11
53.5397
 21
91.7526
 31
0.0
  0
LINE
  8
0
 62
     250
 10
53.5397
 20
91.7526
 30
0.0
 11
54.4283
 21
92.6123
 31
0.0
  0
LINE
  8
0
 62
     250
 10
54.4283
 20
92.6123
 30
0.0
 11
57.1211
 21
95.1689
 31
0.0
  0
LINE
  8
0
 62
     250
 10
57.1211
 20
95.1689
 30
0.0
 11
59.8343
 21
97.681
 31
0.0
  0
LINE
  8
0
 62
     250
 10
59.8343
 20
97.681
 30
0.0
 11
61.6631
 21
99.3165
 31
0.0
  0
LINE
  8
0
 62
     250
 10
61.6631
 20
99.3165
 30
0.0
 11
62.4346
 21
99.9779
 31
0.0
  0
LINE
  8
0
 62
     250
 10
62.4346
 20
99.9779
 30
0.0
 11
62.5919
 21
100.099
 31
0.0
  0
LINE
  8
0
 62
     250
 10
62.5919
 20
100.099
 30
0.0
 11
62.654
 21
100.145
 31
0.0
  0
LINE
  8
0
 62
     250
 10
62.654
 20
100.145
 30
0.0
 11
62.8414
 21
100.281
 31
0.0
  0
LINE
  8
0
 62
     250
 10
62.8414
 20
100.281
 30
0.0
 11
63.1183
 21
100.478
 31
0.0
  0
LINE
  8
0
 62
     250
 10
63.1183
 20
100.478
 30
0.0
 11
63.3416
 21
100.636
 31
0.0
  0
LINE
  8
0
 62
     250
 10
63.3416
 20
100.636
 30
0.0
 11
63.434
 21
100.699
 31
0.0
  0
LINE
  8
0
 62
     250
 10
63.434
 20
100.699
 30
0.0
 11
63.434
 21
100.699
 31
0.0
  0
LINE
  8
0
 62
     250
 10
63.434
 20
100.699
 30
0.0
 11
62.0339
 21
100.944
 31
0.0
  0
LINE
  8
0
 62
     250
 10
62.0339
 20
100.944
 30
0.0
 11
57.8541
 21
101.782
 31
0.0
  0
LINE
  8
0
 62
     250
 10
57.8541
 20
101.782
 30
0.0
 11
52.4468
 21
102.8
 31
0.0
  0
LINE
  8
0
 62
     250
 10
52.4468
 20
102.8
 30
0.0
 11
47.5439
 21
103.332
 31
0.0
  0
LINE
  8
0
 62
     250
 10
47.5439
 20
103.332
 30
0.0
 11
44.4514
 21
103.221
 31
0.0
  0
LINE
  8
0
 62
     250
 10
44.4514
 20
103.221
 30
0.0
 11
43.4855
 21
102.952
 31
0.0
  0
LINE
  8
0
 62
     250
 10
43.4855
 20
102.952
 30
0.0
 11
42.9341
 21
102.8
 31
0.0
  0
LINE
  8
0
 62
     250
 10
42.9341
 20
102.8
 30
0.0
 11
41.4143
 21
101.872
 31
0.0
  0
LINE
  8
0
 62
     250
 10
41.4143
 20
101.872
 30
0.0
 11
39.7108
 21
100.065
 31
0.0
  0
LINE
  8
0
 62
     250
 10
39.7108
 20
100.065
 30
0.0
 11
38.4789
 21
97.8503
 31
0.0
  0
LINE
  8
0
 62
     250
 10
38.4789
 20
97.8503
 30
0.0
 11
37.8217
 21
95.5407
 31
0.0
  0
LINE
  8
0
 62
     250
 10
37.8217
 20
95.5407
 30
0.0
 11
37.8435
 21
93.453
 31
0.0
  0
LINE
  8
0
 62
     250
 10
37.8435
 20
93.453
 30
0.0
 11
38.6486
 21
91.9014
 31
0.0
  0
LINE
  8
0
 62
     250
 10
38.6486
 20
91.9014
 30
0.0
 11
40.3408
 21
91.1987
 31
0.0
  0
LINE
  8
0
 62
     250
 10
40.3408
 20
91.1987
 30
0.0
 11
42.3926
 21
91.4368
 31
0.0
  0
LINE
  8
0
 62
     250
 10
42.3926
 20
91.4368
 30
0.0
 11
43.0251
 21
91.663
 31
0.0
  0
LINE
  8
0
 62
     250
 10
43.0251
 20
91.663
 30
0.0
 11
43.7074
 21
91.9081
 31
0.0
  0
LINE
  8
0
 62
     250
 10
43.7074
 20
91.9081
 30
0.0
 11
45.6653
 21
92.892
 31
0.0
  0
LINE
  8
0
 62
     250
 10
45.6653
 20
92.892
 30
0.0
 11
48.0935
 21
94.5169
 31
0.0
  0
LINE
  8
0
 62
     250
 10
48.0935
 20
94.5169
 30
0.0
 11
50.213
 21
96.3581
 31
0.0
  0
LINE
  8
0
 62
     250
 10
50.213
 20
96.3581
 30
0.0
 11
51.5331
 21
97.7441
 31
0.0
  0
LINE
  8
0
 62
     250
 10
51.5331
 20
97.7441
 30
0.0
 11
51.9328
 21
98.2377
 31
0.0
  0
LINE
  8
0
 62
     250
 10
51.9328
 20
98.2377
 30
0.0
 11
52.0375
 21
98.37
 31
0.0
  0
LINE
  8
0
 62
     250
 10
52.0375
 20
98.37
 30
0.0
 11
52.4387
 21
98.6966
 31
0.0
  0
LINE
  8
0
 62
     250
 10
52.4387
 20
98.6966
 30
0.0
 11
52.7445
 21
98.6744
 31
0.0
  0
LINE
  8
0
 62
     250
 10
52.7445
 20
98.6744
 30
0.0
 11
52.7512
 21
98.2306
 31
0.0
  0
LINE
  8
0
 62
     250
 10
52.7512
 20
98.2306
 30
0.0
 11
52.4813
 21
97.6094
 31
0.0
  0
LINE
  8
0
 62
     250
 10
52.4813
 20
97.6094
 30
0.0
 11
52.3628
 21
97.4203
 31
0.0
  0
LINE
  8
0
 62
     250
 10
52.3628
 20
97.4203
 30
0.0
 11
51.8513
 21
96.6212
 31
0.0
  0
LINE
  8
0
 62
     250
 10
51.8513
 20
96.6212
 30
0.0
 11
50.0574
 21
94.3889
 31
0.0
  0
LINE
  8
0
 62
     250
 10
50.0574
 20
94.3889
 30
0.0
 11
46.9911
 21
91.7607
 31
0.0
  0
LINE
  8
0
 62
     250
 10
46.9911
 20
91.7607
 30
0.0
 11
42.9369
 21
89.862
 31
0.0
  0
LINE
  8
0
 62
     250
 10
42.9369
 20
89.862
 30
0.0
 11
38.9943
 21
89.064
 31
0.0
  0
LINE
  8
0
 62
     250
 10
38.9943
 20
89.064
 30
0.0
 11
37.6728
 21
89.0185
 31
0.0
  0
LINE
  8
0
 62
     250
 10
37.6728
 20
89.0185
 30
0.0
 11
37.0762
 21
88.9991
 31
0.0
  0
LINE
  8
0
 62
     250
 10
37.0762
 20
88.9991
 30
0.0
 11
35.2681
 21
89.4553
 31
0.0
  0
LINE
  8
0
 62
     250
 10
35.2681
 20
89.4553
 30
0.0
 11
33.6889
 21
90.7976
 31
0.0
  0
LINE
  8
0
 62
     250
 10
33.6889
 20
90.7976
 30
0.0
 11
32.92
 21
92.8095
 31
0.0
  0
LINE
  8
0
 62
     250
 10
32.92
 20
92.8095
 30
0.0
 11
32.9461
 21
95.2528
 31
0.0
  0
LINE
  8
0
 62
     250
 10
32.9461
 20
95.2528
 30
0.0
 11
33.7495
 21
97.8916
 31
0.0
  0
LINE
  8
0
 62
     250
 10
33.7495
 20
97.8916
 30
0.0
 11
35.3138
 21
100.489
 31
0.0
  0
LINE
  8
0
 62
     250
 10
35.3138
 20
100.489
 30
0.0
 11
37.6245
 21
102.809
 31
0.0
  0
LINE
  8
0
 62
     250
 10
37.6245
 20
102.809
 30
0.0
 11
39.8611
 21
104.264
 31
0.0
  0
LINE
  8
0
 62
     250
 10
39.8611
 20
104.264
 30
0.0
 11
40.6658
 21
104.611
 31
0.0
  0
LINE
  8
0
 62
     250
 10
89.2129
 20
90.0053
 30
0.0
 11
89.2129
 21
90.0797
 31
0.0
  0
LINE
  8
0
 62
     250
 10
89.2129
 20
90.0797
 30
0.0
 11
89.0944
 21
90.3016
 31
0.0
  0
LINE
  8
0
 62
     250
 10
89.0944
 20
90.3016
 30
0.0
 11
88.8683
 21
90.3884
 31
0.0
  0
LINE
  8
0
 62
     250
 10
88.8683
 20
90.3884
 30
0.0
 11
88.7938
 21
90.3884
 31
0.0
  0
LINE
  8
0
 62
     250
 10
88.7938
 20
90.3884
 30
0.0
 11
88.6947
 21
90.3884
 31
0.0
  0
LINE
  8
0
 62
     250
 10
88.6947
 20
90.3884
 30
0.0
 11
88.3998
 21
90.303
 31
0.0
  0
LINE
  8
0
 62
     250
 10
88.3998
 20
90.303
 30
0.0
 11
88.1006
 21
90.1637
 31
0.0
  0
LINE
  8
0
 62
     250
 10
88.1006
 20
90.1637
 30
0.0
 11
88.0579
 21
90.1375
 31
0.0
  0
LINE
  8
0
 62
     250
 10
88.0579
 20
90.1375
 30
0.0
 11
87.4723
 21
89.7378
 31
0.0
  0
LINE
  8
0
 62
     250
 10
87.4723
 20
89.7378
 30
0.0
 11
84.6391
 21
87.424
 31
0.0
  0
LINE
  8
0
 62
     250
 10
84.6391
 20
87.424
 30
0.0
 11
82.1711
 21
84.9313
 31
0.0
  0
LINE
  8
0
 62
     250
 10
82.1711
 20
84.9313
 30
0.0
 11
81.7686
 21
84.4405
 31
0.0
  0
LINE
  8
0
 62
     250
 10
81.7686
 20
84.4405
 30
0.0
 11
81.8374
 21
84.3361
 31
0.0
  0
LINE
  8
0
 62
     250
 10
81.8374
 20
84.3361
 30
0.0
 11
82.2262
 21
84.0564
 31
0.0
  0
LINE
  8
0
 62
     250
 10
82.2262
 20
84.0564
 30
0.0
 11
82.5115
 21
83.9858
 31
0.0
  0
LINE
  8
0
 62
     250
 10
82.5115
 20
83.9858
 30
0.0
 11
82.6064
 21
83.9858
 31
0.0
  0
LINE
  8
0
 62
     250
 10
82.6064
 20
83.9858
 30
0.0
 11
82.8202
 21
83.9858
 31
0.0
  0
LINE
  8
0
 62
     250
 10
82.8202
 20
83.9858
 30
0.0
 11
83.4623
 21
84.201
 31
0.0
  0
LINE
  8
0
 62
     250
 10
83.4623
 20
84.201
 30
0.0
 11
84.4793
 21
84.7743
 31
0.0
  0
LINE
  8
0
 62
     250
 10
84.4793
 20
84.7743
 30
0.0
 11
85.5719
 21
85.6051
 31
0.0
  0
LINE
  8
0
 62
     250
 10
85.5719
 20
85.6051
 30
0.0
 11
86.6567
 21
86.589
 31
0.0
  0
LINE
  8
0
 62
     250
 10
86.6567
 20
86.589
 30
0.0
 11
87.6473
 21
87.624
 31
0.0
  0
LINE
  8
0
 62
     250
 10
87.6473
 20
87.624
 30
0.0
 11
88.4604
 21
88.6065
 31
0.0
  0
LINE
  8
0
 62
     250
 10
88.4604
 20
88.6065
 30
0.0
 11
89.0104
 21
89.4348
 31
0.0
  0
LINE
  8
0
 62
     250
 10
89.0104
 20
89.4348
 30
0.0
 11
89.2129
 21
89.8631
 31
0.0
  0
LINE
  8
0
 62
     250
 10
89.2129
 20
89.8631
 30
0.0
 11
89.2129
 21
90.0053
 31
0.0
  0
ENDSEC
  0
EOF
