  0
SECTION
  2
HEADER
  9
$ACADVER
  1
AC1009
  9
$EXTMIN
 10
0.0
 20
0.0
 30
0.0
  9
$EXTMAX
 10
1000.0
 20
1000.0
 30
0.0
  9
$FILLMODE
 70
 0
  9
$SPLFRAME
 70
 1
  0
ENDSEC
  0
SECTION
  2
TABLES
  0
TABLE
  2
LAYER
 70
1
  0
LAYER
  2
0
 70
     0
 62
     7
  6
CONTINUOUS
  0
ENDTAB
  0
ENDSEC
  0
SECTION
  2
ENTITIES
  0
LINE
  8
0
 62
     250
 10
203.598
 20
128.408
 30
0.0
 11
203.598
 21
128.408
 31
0.0
  0
LINE
  8
0
 62
     250
 10
203.598
 20
128.408
 30
0.0
 11
203.325
 21
128.563
 31
0.0
  0
LINE
  8
0
 62
     250
 10
203.325
 20
128.563
 30
0.0
 11
202.534
 21
129.01
 31
0.0
  0
LINE
  8
0
 62
     250
 10
202.534
 20
129.01
 30
0.0
 11
201.255
 21
129.733
 31
0.0
  0
LINE
  8
0
 62
     250
 10
201.255
 20
129.733
 30
0.0
 11
199.528
 21
130.71
 31
0.0
  0
LINE
  8
0
 62
     250
 10
199.528
 20
130.71
 30
0.0
 11
197.382
 21
131.921
 31
0.0
  0
LINE
  8
0
 62
     250
 10
197.382
 20
131.921
 30
0.0
 11
194.856
 21
133.349
 31
0.0
  0
LINE
  8
0
 62
     250
 10
194.856
 20
133.349
 30
0.0
 11
191.983
 21
134.973
 31
0.0
  0
LINE
  8
0
 62
     250
 10
191.983
 20
134.973
 30
0.0
 11
188.797
 21
136.773
 31
0.0
  0
LINE
  8
0
 62
     250
 10
188.797
 20
136.773
 30
0.0
 11
185.334
 21
138.73
 31
0.0
  0
LINE
  8
0
 62
     250
 10
185.334
 20
138.73
 30
0.0
 11
181.628
 21
140.825
 31
0.0
  0
LINE
  8
0
 62
     250
 10
181.628
 20
140.825
 30
0.0
 11
177.715
 21
143.036
 31
0.0
  0
LINE
  8
0
 62
     250
 10
177.715
 20
143.036
 30
0.0
 11
173.627
 21
145.346
 31
0.0
  0
LINE
  8
0
 62
     250
 10
173.627
 20
145.346
 30
0.0
 11
169.401
 21
147.734
 31
0.0
  0
LINE
  8
0
 62
     250
 10
169.401
 20
147.734
 30
0.0
 11
165.071
 21
150.181
 31
0.0
  0
LINE
  8
0
 62
     250
 10
165.071
 20
150.181
 30
0.0
 11
160.671
 21
152.669
 31
0.0
  0
LINE
  8
0
 62
     250
 10
160.671
 20
152.669
 30
0.0
 11
156.236
 21
155.174
 31
0.0
  0
LINE
  8
0
 62
     250
 10
156.236
 20
155.174
 30
0.0
 11
151.802
 21
157.679
 31
0.0
  0
LINE
  8
0
 62
     250
 10
151.802
 20
157.679
 30
0.0
 11
147.402
 21
160.167
 31
0.0
  0
LINE
  8
0
 62
     250
 10
147.402
 20
160.167
 30
0.0
 11
143.072
 21
162.614
 31
0.0
  0
LINE
  8
0
 62
     250
 10
143.072
 20
162.614
 30
0.0
 11
138.846
 21
165.002
 31
0.0
  0
LINE
  8
0
 62
     250
 10
138.846
 20
165.002
 30
0.0
 11
134.758
 21
167.312
 31
0.0
  0
LINE
  8
0
 62
     250
 10
134.758
 20
167.312
 30
0.0
 11
130.845
 21
169.523
 31
0.0
  0
LINE
  8
0
 62
     250
 10
130.845
 20
169.523
 30
0.0
 11
127.139
 21
171.618
 31
0.0
  0
LINE
  8
0
 62
     250
 10
127.139
 20
171.618
 30
0.0
 11
123.676
 21
173.575
 31
0.0
  0
LINE
  8
0
 62
     250
 10
123.676
 20
173.575
 30
0.0
 11
120.49
 21
175.375
 31
0.0
  0
LINE
  8
0
 62
     250
 10
120.49
 20
175.375
 30
0.0
 11
117.617
 21
176.999
 31
0.0
  0
LINE
  8
0
 62
     250
 10
117.617
 20
176.999
 30
0.0
 11
115.091
 21
178.427
 31
0.0
  0
LINE
  8
0
 62
     250
 10
115.091
 20
178.427
 30
0.0
 11
112.945
 21
179.638
 31
0.0
  0
LINE
  8
0
 62
     250
 10
112.945
 20
179.638
 30
0.0
 11
111.217
 21
180.615
 31
0.0
  0
LINE
  8
0
 62
     250
 10
111.217
 20
180.615
 30
0.0
 11
109.939
 21
181.337
 31
0.0
  0
LINE
  8
0
 62
     250
 10
109.939
 20
181.337
 30
0.0
 11
109.148
 21
181.785
 31
0.0
  0
LINE
  8
0
 62
     250
 10
109.148
 20
181.785
 30
0.0
 11
108.876
 21
181.938
 31
0.0
  0
LINE
  8
0
 62
     250
 10
108.876
 20
181.938
 30
0.0
 11
108.876
 21
181.938
 31
0.0
  0
LINE
  8
0
 62
     250
 10
108.876
 20
181.938
 30
0.0
 11
108.373
 21
182.239
 31
0.0
  0
LINE
  8
0
 62
     250
 10
108.373
 20
182.239
 30
0.0
 11
106.671
 21
182.811
 31
0.0
  0
LINE
  8
0
 62
     250
 10
106.671
 20
182.811
 30
0.0
 11
104.158
 21
183.1
 31
0.0
  0
LINE
  8
0
 62
     250
 10
104.158
 20
183.1
 30
0.0
 11
101.646
 21
182.811
 31
0.0
  0
LINE
  8
0
 62
     250
 10
101.646
 20
182.811
 30
0.0
 11
99.9423
 21
182.239
 31
0.0
  0
LINE
  8
0
 62
     250
 10
99.9423
 20
182.239
 30
0.0
 11
99.4406
 21
181.938
 31
0.0
  0
LINE
  8
0
 62
     250
 10
99.4406
 20
181.938
 30
0.0
 11
99.4406
 21
181.938
 31
0.0
  0
LINE
  8
0
 62
     250
 10
99.4406
 20
181.938
 30
0.0
 11
99.1676
 21
181.785
 31
0.0
  0
LINE
  8
0
 62
     250
 10
99.1676
 20
181.785
 30
0.0
 11
98.3767
 21
181.337
 31
0.0
  0
LINE
  8
0
 62
     250
 10
98.3767
 20
181.337
 30
0.0
 11
97.0979
 21
180.615
 31
0.0
  0
LINE
  8
0
 62
     250
 10
97.0979
 20
180.615
 30
0.0
 11
95.3699
 21
179.638
 31
0.0
  0
LINE
  8
0
 62
     250
 10
95.3699
 20
179.638
 30
0.0
 11
93.2243
 21
178.427
 31
0.0
  0
LINE
  8
0
 62
     250
 10
93.2243
 20
178.427
 30
0.0
 11
90.6985
 21
176.999
 31
0.0
  0
LINE
  8
0
 62
     250
 10
90.6985
 20
176.999
 30
0.0
 11
87.8251
 21
175.375
 31
0.0
  0
LINE
  8
0
 62
     250
 10
87.8251
 20
175.375
 30
0.0
 11
84.6391
 21
173.575
 31
0.0
  0
LINE
  8
0
 62
     250
 10
84.6391
 20
173.575
 30
0.0
 11
81.1759
 21
171.618
 31
0.0
  0
LINE
  8
0
 62
     250
 10
81.1759
 20
171.618
 30
0.0
 11
77.4707
 21
169.523
 31
0.0
  0
LINE
  8
0
 62
     250
 10
77.4707
 20
169.523
 30
0.0
 11
73.5556
 21
167.312
 31
0.0
  0
LINE
  8
0
 62
     250
 10
73.5556
 20
167.312
 30
0.0
 11
69.4683
 21
165.002
 31
0.0
  0
LINE
  8
0
 62
     250
 10
69.4683
 20
165.002
 30
0.0
 11
65.242
 21
162.614
 31
0.0
  0
LINE
  8
0
 62
     250
 10
65.242
 20
162.614
 30
0.0
 11
60.912
 21
160.167
 31
0.0
  0
LINE
  8
0
 62
     250
 10
60.912
 20
160.167
 30
0.0
 11
56.5118
 21
157.679
 31
0.0
  0
LINE
  8
0
 62
     250
 10
56.5118
 20
157.679
 30
0.0
 11
52.0774
 21
155.174
 31
0.0
  0
LINE
  8
0
 62
     250
 10
52.0774
 20
155.174
 30
0.0
 11
47.643
 21
152.669
 31
0.0
  0
LINE
  8
0
 62
     250
 10
47.643
 20
152.669
 30
0.0
 11
43.2428
 21
150.181
 31
0.0
  0
LINE
  8
0
 62
     250
 10
43.2428
 20
150.181
 30
0.0
 11
38.9132
 21
147.734
 31
0.0
  0
LINE
  8
0
 62
     250
 10
38.9132
 20
147.734
 30
0.0
 11
34.6866
 21
145.346
 31
0.0
  0
LINE
  8
0
 62
     250
 10
34.6866
 20
145.346
 30
0.0
 11
30.5993
 21
143.036
 31
0.0
  0
LINE
  8
0
 62
     250
 10
30.5993
 20
143.036
 30
0.0
 11
26.6843
 21
140.825
 31
0.0
  0
LINE
  8
0
 62
     250
 10
26.6843
 20
140.825
 30
0.0
 11
22.9788
 21
138.73
 31
0.0
  0
LINE
  8
0
 62
     250
 10
22.9788
 20
138.73
 30
0.0
 11
19.5158
 21
136.773
 31
0.0
  0
LINE
  8
0
 62
     250
 10
19.5158
 20
136.773
 30
0.0
 11
16.3298
 21
134.973
 31
0.0
  0
LINE
  8
0
 62
     250
 10
16.3298
 20
134.973
 30
0.0
 11
13.4565
 21
133.349
 31
0.0
  0
LINE
  8
0
 62
     250
 10
13.4565
 20
133.349
 30
0.0
 11
10.9306
 21
131.921
 31
0.0
  0
LINE
  8
0
 62
     250
 10
10.9306
 20
131.921
 30
0.0
 11
8.78498
 21
130.71
 31
0.0
  0
LINE
  8
0
 62
     250
 10
8.78498
 20
130.71
 30
0.0
 11
7.05693
 21
129.733
 31
0.0
  0
LINE
  8
0
 62
     250
 10
7.05693
 20
129.733
 30
0.0
 11
5.77811
 21
129.01
 31
0.0
  0
LINE
  8
0
 62
     250
 10
5.77811
 20
129.01
 30
0.0
 11
4.98711
 21
128.563
 31
0.0
  0
LINE
  8
0
 62
     250
 10
4.98711
 20
128.563
 30
0.0
 11
4.71565
 21
128.408
 31
0.0
  0
LINE
  8
0
 62
     250
 10
4.71565
 20
128.408
 30
0.0
 11
4.71565
 21
128.408
 31
0.0
  0
LINE
  8
0
 62
     250
 10
4.71565
 20
128.408
 30
0.0
 11
4.20991
 21
128.107
 31
0.0
  0
LINE
  8
0
 62
     250
 10
4.20991
 20
128.107
 30
0.0
 11
2.88423
 21
126.879
 31
0.0
  0
LINE
  8
0
 62
     250
 10
2.88423
 20
126.879
 30
0.0
 11
1.38493
 21
124.802
 31
0.0
  0
LINE
  8
0
 62
     250
 10
1.38493
 20
124.802
 30
0.0
 11
0.372071
 21
122.448
 31
0.0
  0
LINE
  8
0
 62
     250
 10
0.372071
 20
122.448
 30
0.0
 11
0
 21
120.679
 31
0.0
  0
LINE
  8
0
 62
     250
 10
0
 20
120.679
 30
0.0
 11
0
 21
120.089
 31
0.0
  0
LINE
  8
0
 62
     250
 10
0
 20
120.089
 30
0.0
 11
0
 21
120.089
 31
0.0
  0
LINE
  8
0
 62
     250
 10
0
 20
120.089
 30
0.0
 11
0
 21
119.211
 31
0.0
  0
LINE
  8
0
 62
     250
 10
0
 20
119.211
 30
0.0
 11
0
 21
116.728
 31
0.0
  0
LINE
  8
0
 62
     250
 10
0
 20
116.728
 30
0.0
 11
0
 21
112.869
 31
0.0
  0
LINE
  8
0
 62
     250
 10
0
 20
112.869
 30
0.0
 11
0
 21
107.865
 31
0.0
  0
LINE
  8
0
 62
     250
 10
0
 20
107.865
 30
0.0
 11
0
 21
101.943
 31
0.0
  0
LINE
  8
0
 62
     250
 10
0
 20
101.943
 30
0.0
 11
0
 21
95.3326
 31
0.0
  0
LINE
  8
0
 62
     250
 10
0
 20
95.3326
 30
0.0
 11
0
 21
88.2646
 31
0.0
  0
LINE
  8
0
 62
     250
 10
0
 20
88.2646
 30
0.0
 11
0
 21
80.9681
 31
0.0
  0
LINE
  8
0
 62
     250
 10
0
 20
80.9681
 30
0.0
 11
0
 21
73.6713
 31
0.0
  0
LINE
  8
0
 62
     250
 10
0
 20
73.6713
 30
0.0
 11
0
 21
66.6034
 31
0.0
  0
LINE
  8
0
 62
     250
 10
0
 20
66.6034
 30
0.0
 11
0
 21
59.993
 31
0.0
  0
LINE
  8
0
 62
     250
 10
0
 20
59.993
 30
0.0
 11
0
 21
54.0713
 31
0.0
  0
LINE
  8
0
 62
     250
 10
0
 20
54.0713
 30
0.0
 11
0
 21
49.0664
 31
0.0
  0
LINE
  8
0
 62
     250
 10
0
 20
49.0664
 30
0.0
 11
0
 21
45.2078
 31
0.0
  0
LINE
  8
0
 62
     250
 10
0
 20
45.2078
 30
0.0
 11
0
 21
42.7246
 31
0.0
  0
LINE
  8
0
 62
     250
 10
0
 20
42.7246
 30
0.0
 11
0
 21
41.8454
 31
0.0
  0
LINE
  8
0
 62
     250
 10
0
 20
41.8454
 30
0.0
 11
0
 21
41.8454
 31
0.0
  0
LINE
  8
0
 62
     250
 10
0
 20
41.8454
 30
0.0
 11
0
 21
41.2821
 31
0.0
  0
LINE
  8
0
 62
     250
 10
0
 20
41.2821
 30
0.0
 11
0.414789
 21
39.587
 31
0.0
  0
LINE
  8
0
 62
     250
 10
0.414789
 20
39.587
 30
0.0
 11
1.54478
 21
37.502
 31
0.0
  0
LINE
  8
0
 62
     250
 10
1.54478
 20
37.502
 30
0.0
 11
3.2191
 21
35.8221
 31
0.0
  0
LINE
  8
0
 62
     250
 10
3.2191
 20
35.8221
 30
0.0
 11
4.72391
 21
34.9402
 31
0.0
  0
LINE
  8
0
 62
     250
 10
4.72391
 20
34.9402
 30
0.0
 11
5.26549
 21
34.7775
 31
0.0
  0
LINE
  8
0
 62
     250
 10
5.26549
 20
34.7775
 30
0.0
 11
5.26549
 21
34.7775
 31
0.0
  0
LINE
  8
0
 62
     250
 10
5.26549
 20
34.7775
 30
0.0
 11
5.53283
 21
34.6797
 31
0.0
  0
LINE
  8
0
 62
     250
 10
5.53283
 20
34.6797
 30
0.0
 11
6.31694
 21
34.3945
 31
0.0
  0
LINE
  8
0
 62
     250
 10
6.31694
 20
34.3945
 30
0.0
 11
7.57922
 21
33.9342
 31
0.0
  0
LINE
  8
0
 62
     250
 10
7.57922
 20
33.9342
 30
0.0
 11
9.28797
 21
33.3113
 31
0.0
  0
LINE
  8
0
 62
     250
 10
9.28797
 20
33.3113
 30
0.0
 11
11.4074
 21
32.5396
 31
0.0
  0
LINE
  8
0
 62
     250
 10
11.4074
 20
32.5396
 30
0.0
 11
13.9044
 21
31.6288
 31
0.0
  0
LINE
  8
0
 62
     250
 10
13.9044
 20
31.6288
 30
0.0
 11
16.7445
 21
30.5938
 31
0.0
  0
LINE
  8
0
 62
     250
 10
16.7445
 20
30.5938
 30
0.0
 11
19.8934
 21
29.4459
 31
0.0
  0
LINE
  8
0
 62
     250
 10
19.8934
 20
29.4459
 30
0.0
 11
23.3164
 21
28.1988
 31
0.0
  0
LINE
  8
0
 62
     250
 10
23.3164
 20
28.1988
 30
0.0
 11
26.9792
 21
26.8635
 31
0.0
  0
LINE
  8
0
 62
     250
 10
26.9792
 20
26.8635
 30
0.0
 11
30.8488
 21
25.4537
 31
0.0
  0
LINE
  8
0
 62
     250
 10
30.8488
 20
25.4537
 30
0.0
 11
34.8878
 21
23.9806
 31
0.0
  0
LINE
  8
0
 62
     250
 10
34.8878
 20
23.9806
 30
0.0
 11
39.0659
 21
22.4579
 31
0.0
  0
LINE
  8
0
 62
     250
 10
39.0659
 20
22.4579
 30
0.0
 11
43.3462
 21
20.898
 31
0.0
  0
LINE
  8
0
 62
     250
 10
43.3462
 20
20.898
 30
0.0
 11
47.6938
 21
19.3132
 31
0.0
  0
LINE
  8
0
 62
     250
 10
47.6938
 20
19.3132
 30
0.0
 11
52.0774
 21
17.7161
 31
0.0
  0
LINE
  8
0
 62
     250
 10
52.0774
 20
17.7161
 30
0.0
 11
56.461
 21
16.1189
 31
0.0
  0
LINE
  8
0
 62
     250
 10
56.461
 20
16.1189
 30
0.0
 11
60.8087
 21
14.5342
 31
0.0
  0
LINE
  8
0
 62
     250
 10
60.8087
 20
14.5342
 30
0.0
 11
65.0889
 21
12.9742
 31
0.0
  0
LINE
  8
0
 62
     250
 10
65.0889
 20
12.9742
 30
0.0
 11
69.2672
 21
11.4515
 31
0.0
  0
LINE
  8
0
 62
     250
 10
69.2672
 20
11.4515
 30
0.0
 11
73.3062
 21
9.97839
 31
0.0
  0
LINE
  8
0
 62
     250
 10
73.3062
 20
9.97839
 30
0.0
 11
77.1758
 21
8.56865
 31
0.0
  0
LINE
  8
0
 62
     250
 10
77.1758
 20
8.56865
 30
0.0
 11
80.8383
 21
7.23332
 31
0.0
  0
LINE
  8
0
 62
     250
 10
80.8383
 20
7.23332
 30
0.0
 11
84.2617
 21
5.98622
 31
0.0
  0
LINE
  8
0
 62
     250
 10
84.2617
 20
5.98622
 30
0.0
 11
87.4102
 21
4.83828
 31
0.0
  0
LINE
  8
0
 62
     250
 10
87.4102
 20
4.83828
 30
0.0
 11
90.2504
 21
3.8034
 31
0.0
  0
LINE
  8
0
 62
     250
 10
90.2504
 20
3.8034
 30
0.0
 11
92.7474
 21
2.8925
 31
0.0
  0
LINE
  8
0
 62
     250
 10
92.7474
 20
2.8925
 30
0.0
 11
94.8669
 21
2.1208
 31
0.0
  0
LINE
  8
0
 62
     250
 10
94.8669
 20
2.1208
 30
0.0
 11
96.5757
 21
1.49793
 31
0.0
  0
LINE
  8
0
 62
     250
 10
96.5757
 20
1.49793
 30
0.0
 11
97.838
 21
1.03766
 31
0.0
  0
LINE
  8
0
 62
     250
 10
97.838
 20
1.03766
 30
0.0
 11
98.6222
 21
0.752408
 31
0.0
  0
LINE
  8
0
 62
     250
 10
98.6222
 20
0.752408
 30
0.0
 11
98.8907
 21
0.653189
 31
0.0
  0
LINE
  8
0
 62
     250
 10
98.8907
 20
0.653189
 30
0.0
 11
98.8907
 21
0.653189
 31
0.0
  0
LINE
  8
0
 62
     250
 10
98.8907
 20
0.653189
 30
0.0
 11
99.4876
 21
0.474045
 31
0.0
  0
LINE
  8
0
 62
     250
 10
99.4876
 20
0.474045
 30
0.0
 11
101.352
 21
0.163987
 31
0.0
  0
LINE
  8
0
 62
     250
 10
101.352
 20
0.163987
 30
0.0
 11
104.158
 21
0
 31
0.0
  0
LINE
  8
0
 62
     250
 10
104.158
 20
0
 30
0.0
 11
106.962
 21
0.163987
 31
0.0
  0
LINE
  8
0
 62
     250
 10
106.962
 20
0.163987
 30
0.0
 11
108.824
 21
0.474045
 31
0.0
  0
LINE
  8
0
 62
     250
 10
108.824
 20
0.474045
 30
0.0
 11
109.422
 21
0.653189
 31
0.0
  0
LINE
  8
0
 62
     250
 10
109.422
 20
0.653189
 30
0.0
 11
109.422
 21
0.653189
 31
0.0
  0
LINE
  8
0
 62
     250
 10
109.422
 20
0.653189
 30
0.0
 11
109.689
 21
0.752408
 31
0.0
  0
LINE
  8
0
 62
     250
 10
109.689
 20
0.752408
 30
0.0
 11
110.473
 21
1.03766
 31
0.0
  0
LINE
  8
0
 62
     250
 10
110.473
 20
1.03766
 30
0.0
 11
111.735
 21
1.49793
 31
0.0
  0
LINE
  8
0
 62
     250
 10
111.735
 20
1.49793
 30
0.0
 11
113.444
 21
2.1208
 31
0.0
  0
LINE
  8
0
 62
     250
 10
113.444
 20
2.1208
 30
0.0
 11
115.565
 21
2.8925
 31
0.0
  0
LINE
  8
0
 62
     250
 10
115.565
 20
2.8925
 30
0.0
 11
118.062
 21
3.8034
 31
0.0
  0
LINE
  8
0
 62
     250
 10
118.062
 20
3.8034
 30
0.0
 11
120.902
 21
4.83828
 31
0.0
  0
LINE
  8
0
 62
     250
 10
120.902
 20
4.83828
 30
0.0
 11
124.051
 21
5.98622
 31
0.0
  0
LINE
  8
0
 62
     250
 10
124.051
 20
5.98622
 30
0.0
 11
127.474
 21
7.23332
 31
0.0
  0
LINE
  8
0
 62
     250
 10
127.474
 20
7.23332
 30
0.0
 11
131.137
 21
8.56865
 31
0.0
  0
LINE
  8
0
 62
     250
 10
131.137
 20
8.56865
 30
0.0
 11
135.006
 21
9.97839
 31
0.0
  0
LINE
  8
0
 62
     250
 10
135.006
 20
9.97839
 30
0.0
 11
139.047
 21
11.4515
 31
0.0
  0
LINE
  8
0
 62
     250
 10
139.047
 20
11.4515
 30
0.0
 11
143.224
 21
12.9742
 31
0.0
  0
LINE
  8
0
 62
     250
 10
143.224
 20
12.9742
 30
0.0
 11
147.504
 21
14.5342
 31
0.0
  0
LINE
  8
0
 62
     250
 10
147.504
 20
14.5342
 30
0.0
 11
151.853
 21
16.1189
 31
0.0
  0
LINE
  8
0
 62
     250
 10
151.853
 20
16.1189
 30
0.0
 11
156.236
 21
17.7161
 31
0.0
  0
LINE
  8
0
 62
     250
 10
156.236
 20
17.7161
 30
0.0
 11
160.62
 21
19.3132
 31
0.0
  0
LINE
  8
0
 62
     250
 10
160.62
 20
19.3132
 30
0.0
 11
164.969
 21
20.898
 31
0.0
  0
LINE
  8
0
 62
     250
 10
164.969
 20
20.898
 30
0.0
 11
169.249
 21
22.4579
 31
0.0
  0
LINE
  8
0
 62
     250
 10
169.249
 20
22.4579
 30
0.0
 11
173.426
 21
23.9806
 31
0.0
  0
LINE
  8
0
 62
     250
 10
173.426
 20
23.9806
 30
0.0
 11
177.467
 21
25.4537
 31
0.0
  0
LINE
  8
0
 62
     250
 10
177.467
 20
25.4537
 30
0.0
 11
181.336
 21
26.8635
 31
0.0
  0
LINE
  8
0
 62
     250
 10
181.336
 20
26.8635
 30
0.0
 11
184.999
 21
28.1988
 31
0.0
  0
LINE
  8
0
 62
     250
 10
184.999
 20
28.1988
 30
0.0
 11
188.422
 21
29.4459
 31
0.0
  0
LINE
  8
0
 62
     250
 10
188.422
 20
29.4459
 30
0.0
 11
191.571
 21
30.5938
 31
0.0
  0
LINE
  8
0
 62
     250
 10
191.571
 20
30.5938
 30
0.0
 11
194.411
 21
31.6288
 31
0.0
  0
LINE
  8
0
 62
     250
 10
194.411
 20
31.6288
 30
0.0
 11
196.908
 21
32.5396
 31
0.0
  0
LINE
  8
0
 62
     250
 10
196.908
 20
32.5396
 30
0.0
 11
199.029
 21
33.3113
 31
0.0
  0
LINE
  8
0
 62
     250
 10
199.029
 20
33.3113
 30
0.0
 11
200.738
 21
33.9342
 31
0.0
  0
LINE
  8
0
 62
     250
 10
200.738
 20
33.9342
 30
0.0
 11
202
 21
34.3945
 31
0.0
  0
LINE
  8
0
 62
     250
 10
202
 20
34.3945
 30
0.0
 11
202.784
 21
34.6797
 31
0.0
  0
LINE
  8
0
 62
     250
 10
202.784
 20
34.6797
 30
0.0
 11
203.053
 21
34.7775
 31
0.0
  0
LINE
  8
0
 62
     250
 10
203.053
 20
34.7775
 30
0.0
 11
203.053
 21
34.7775
 31
0.0
  0
LINE
  8
0
 62
     250
 10
203.053
 20
34.7775
 30
0.0
 11
203.593
 21
34.9402
 31
0.0
  0
LINE
  8
0
 62
     250
 10
203.593
 20
34.9402
 30
0.0
 11
205.095
 21
35.8221
 31
0.0
  0
LINE
  8
0
 62
     250
 10
205.095
 20
35.8221
 30
0.0
 11
206.769
 21
37.502
 31
0.0
  0
LINE
  8
0
 62
     250
 10
206.769
 20
37.502
 30
0.0
 11
207.9
 21
39.587
 31
0.0
  0
LINE
  8
0
 62
     250
 10
207.9
 20
39.587
 30
0.0
 11
208.317
 21
41.2821
 31
0.0
  0
LINE
  8
0
 62
     250
 10
208.317
 20
41.2821
 30
0.0
 11
208.317
 21
41.8454
 31
0.0
  0
LINE
  8
0
 62
     250
 10
208.317
 20
41.8454
 30
0.0
 11
208.317
 21
41.8454
 31
0.0
  0
LINE
  8
0
 62
     250
 10
208.317
 20
41.8454
 30
0.0
 11
208.317
 21
42.7246
 31
0.0
  0
LINE
  8
0
 62
     250
 10
208.317
 20
42.7246
 30
0.0
 11
208.317
 21
45.2078
 31
0.0
  0
LINE
  8
0
 62
     250
 10
208.317
 20
45.2078
 30
0.0
 11
208.317
 21
49.0664
 31
0.0
  0
LINE
  8
0
 62
     250
 10
208.317
 20
49.0664
 30
0.0
 11
208.317
 21
54.0713
 31
0.0
  0
LINE
  8
0
 62
     250
 10
208.317
 20
54.0713
 30
0.0
 11
208.317
 21
59.993
 31
0.0
  0
LINE
  8
0
 62
     250
 10
208.317
 20
59.993
 30
0.0
 11
208.317
 21
66.6034
 31
0.0
  0
LINE
  8
0
 62
     250
 10
208.317
 20
66.6034
 30
0.0
 11
208.317
 21
73.6713
 31
0.0
  0
LINE
  8
0
 62
     250
 10
208.317
 20
73.6713
 30
0.0
 11
208.317
 21
80.9681
 31
0.0
  0
LINE
  8
0
 62
     250
 10
208.317
 20
80.9681
 30
0.0
 11
208.317
 21
88.2646
 31
0.0
  0
LINE
  8
0
 62
     250
 10
208.317
 20
88.2646
 30
0.0
 11
208.317
 21
95.3326
 31
0.0
  0
LINE
  8
0
 62
     250
 10
208.317
 20
95.3326
 30
0.0
 11
208.317
 21
101.943
 31
0.0
  0
LINE
  8
0
 62
     250
 10
208.317
 20
101.943
 30
0.0
 11
208.317
 21
107.865
 31
0.0
  0
LINE
  8
0
 62
     250
 10
208.317
 20
107.865
 30
0.0
 11
208.317
 21
112.869
 31
0.0
  0
LINE
  8
0
 62
     250
 10
208.317
 20
112.869
 30
0.0
 11
208.317
 21
116.728
 31
0.0
  0
LINE
  8
0
 62
     250
 10
208.317
 20
116.728
 30
0.0
 11
208.317
 21
119.211
 31
0.0
  0
LINE
  8
0
 62
     250
 10
208.317
 20
119.211
 30
0.0
 11
208.317
 21
120.089
 31
0.0
  0
LINE
  8
0
 62
     250
 10
208.317
 20
120.089
 30
0.0
 11
208.317
 21
120.089
 31
0.0
  0
LINE
  8
0
 62
     250
 10
208.317
 20
120.089
 30
0.0
 11
208.317
 21
120.679
 31
0.0
  0
LINE
  8
0
 62
     250
 10
208.317
 20
120.679
 30
0.0
 11
207.943
 21
122.447
 31
0.0
  0
LINE
  8
0
 62
     250
 10
207.943
 20
122.447
 30
0.0
 11
206.927
 21
124.801
 31
0.0
  0
LINE
  8
0
 62
     250
 10
206.927
 20
124.801
 30
0.0
 11
205.427
 21
126.879
 31
0.0
  0
LINE
  8
0
 62
     250
 10
205.427
 20
126.879
 30
0.0
 11
204.103
 21
128.107
 31
0.0
  0
LINE
  8
0
 62
     250
 10
204.103
 20
128.107
 30
0.0
 11
203.598
 21
128.408
 31
0.0
  0
ENDSEC
  0
EOF
